<?xml version="1.0" encoding="UTF-8" standalone="no"?>
<!-- Created with Inkscape (http://www.inkscape.org/) -->

<svg
   width="210mm"
   height="297mm"
   viewBox="0 0 210 297"
   version="1.1"
   id="svg23834"
   inkscape:version="1.1.1 (1:1.1+202109281949+c3084ef5ed)"
   sodipodi:docname="flexible_icon.svg"
   xmlns:inkscape="http://www.inkscape.org/namespaces/inkscape"
   xmlns:sodipodi="http://sodipodi.sourceforge.net/DTD/sodipodi-0.dtd"
   xmlns="http://www.w3.org/2000/svg"
   xmlns:svg="http://www.w3.org/2000/svg">
  <sodipodi:namedview
     id="namedview23836"
     pagecolor="#ffffff"
     bordercolor="#666666"
     borderopacity="1.0"
     inkscape:pageshadow="2"
     inkscape:pageopacity="0.0"
     inkscape:pagecheckerboard="0"
     inkscape:document-units="mm"
     showgrid="false"
     inkscape:zoom="0.26582969"
     inkscape:cx="-86.521561"
     inkscape:cy="596.24641"
     inkscape:window-width="1838"
     inkscape:window-height="1016"
     inkscape:window-x="82"
     inkscape:window-y="27"
     inkscape:window-maximized="1"
     inkscape:current-layer="layer1" />
  <defs
     id="defs23831" />
  <g
     inkscape:label="Layer 1"
     inkscape:groupmode="layer"
     id="layer1">
    <g
       id="g27418"
       transform="matrix(1.4941952,0,0,1.4941952,-40.904295,-124.46665)">
      <circle
         style="fill:#000000;stroke-width:5.61225;stroke-linecap:round;stroke-linejoin:round;paint-order:markers fill stroke"
         id="path25608"
         cx="91.751808"
         cy="133.5847"
         r="10.517787" />
      <path
         style="fill:#000000;stroke:#000000;stroke-width:0.9;stroke-linecap:round;stroke-linejoin:round;stroke-miterlimit:4;stroke-dasharray:none;stroke-opacity:1;paint-order:markers fill stroke"
         d="m 60.893067,232.10538 c -16.34784,-13.90687 -17.76389,-15.20718 -20.10354,-18.46043 -2.83958,-3.94842 -4.75241,-8.36814 -5.7468,-13.27842 -0.3472,-1.71448 -0.69837,-4.72406 -0.69837,-5.98515 v -0.79517 l 1.27524,-0.13989 c 2.22248,-0.24382 6.19466,-0.5527 6.26052,-0.48683 0.0349,0.0349 0.20067,1.59611 0.36846,3.46944 0.32136,3.58792 0.36744,3.94573 0.5788,4.49469 0.1266,0.32883 0.16623,0.34216 1.01863,0.3428 0.4878,2.7e-4 2.3051,-0.0903 4.03843,-0.20143 1.78316,-0.11435 3.19761,-0.15515 3.25765,-0.094 0.0584,0.0595 0.22318,1.53577 0.36624,3.28067 0.29543,3.60347 0.4481,4.65187 0.70895,4.86835 0.14371,0.11927 0.91456,0.1067 3.62728,-0.0592 4.67038,-0.28556 4.58167,-0.28815 4.66441,0.13627 0.0367,0.18817 0.18974,1.96574 0.34014,3.95014 0.1504,1.9844 0.29646,3.68672 0.3246,3.78294 0.0428,0.14628 0.42242,0.16035 2.31816,0.0859 1.24685,-0.049 2.58717,-0.13042 2.97848,-0.18106 0.67473,-0.0873 0.70856,-0.0789 0.65494,0.16289 -0.0311,0.14023 -0.73357,4.17372 -1.56103,8.96331 -0.82746,4.7896 -1.52023,8.72412 -1.53949,8.74338 -0.0193,0.0193 -1.42852,-1.15043 -3.1317,-2.5993 z"
         id="path25469" />
      <path
         style="fill:#000000;stroke:#000000;stroke-width:0.3;stroke-linecap:round;stroke-linejoin:round;stroke-miterlimit:4;stroke-dasharray:none;stroke-opacity:1;paint-order:markers fill stroke"
         d="m 110.98333,246.87606 c -1.09385,-0.33003 -2.35128,-0.9452 -3.03742,-1.486 -0.33102,-0.2609 -0.61872,-0.66901 -0.89847,-1.2745 -0.54874,-1.18769 -4.00256,-9.7795 -8.047746,-20.01984 -4.760828,-12.05197 -6.688524,-16.73894 -7.267141,-17.66923 -0.131969,-0.21218 -0.170556,-0.22047 -0.277982,-0.0598 -0.429223,0.64214 -3.130132,7.27095 -8.33891,20.46609 -6.20011,15.70643 -7.168552,17.95456 -7.919288,18.38377 -0.215159,0.12302 -0.871451,0.71232 -1.47223,1.05079 -1.199033,0.71025 -2.564504,1.0572 -3.672706,0.90938 -0.91517,-0.13458 -1.40968,0.0539 -2.2919,-0.38276 -1.21632,-0.60202 -1.94367,-1.95575 -2.60205,-3.08236 -1.00503,-1.71979 -1.16221,-2.97266 -0.70496,-5.61936 0.26698,-1.5454 0.3242,-2.86152 0.12441,-2.86152 -0.0684,0 -0.12441,-0.11434 -0.12441,-0.2541 0,-0.13975 0.70141,-4.29172 1.5587,-9.22659 1.06715,-6.14296 1.61486,-9.01525 1.73679,-9.10805 0.23296,-0.17732 1.65375,-8.34082 6.140618,-35.28249 2.274062,-13.65475 2.132084,-12.73437 1.979375,-12.83139 -0.328383,-0.20864 -2.62023,-0.26383 -15.147903,-0.36477 -7.87851,-0.0635 -13.86152,-0.16154 -14.36981,-0.2355 -6.51916,-0.94857 -11.30147,-4.59355 -14.55487,-11.09342 -0.48568,-0.97031 -0.77553,-1.68633 -0.70941,-1.75245 0.13726,-0.13726 2.22551,-0.72029 2.57988,-0.72029 0.30122,0 0.70787,0.41737 1.83374,1.8821 1.63623,2.12868 4.30777,4.49531 6.38717,5.65818 3.79249,2.12088 6.43346,2.51451 18.65196,2.78005 4.90185,0.10653 8.37168,0.0812 9.61203,-0.0702 0.73979,-0.0903 0.81499,-0.33581 0.62878,-2.05274 l -0.14693,-1.35461 -4.80075,-7.9e-4 c -6.88285,-0.001 -13.54809,-0.27292 -16.82099,-0.68597 -3.18721,-0.40223 -6.60059,-2.0964 -8.98524,-4.45968 -1.09379,-1.08397 -2.15636,-2.40125 -2.03492,-2.52268 0.10146,-0.10147 1.35215,-0.38544 6.18596,-1.40454 l 4.17152,-0.8795 h 14.97251 14.972507 l 1.150358,1.09975 c 1.388893,1.32779 2.677983,2.25335 4.429617,3.18044 2.426949,1.28451 3.97642,1.67601 7.037811,1.77819 3.520382,0.11751 5.897549,-0.3171 8.315187,-1.52024 2.250993,-1.12022 4.212273,-2.73441 9.837513,-8.09658 4.18962,-3.9937 5.4444,-5.14002 7.20719,-6.5843 4.4548,-3.64986 8.85142,-5.61502 18.77397,-8.39142 l 4.01431,-1.12324 h 2.34542 2.34541 l -1.17028,1.21304 c -0.64366,0.66717 -8.89622,8.98837 -18.33903,18.49157 l -17.16874,17.27853 0.40771,2.37887 c 0.22424,1.30838 0.58643,3.35863 0.80485,4.55611 l 0.39714,2.17724 6.01744,0.0323 6.01745,0.0323 3.44238,-3.39149 c 3.80375,-3.74752 4.9129,-4.63562 5.78947,-4.63562 1.00707,0 1.6482,0.75496 2.69418,3.17256 1.0683,2.46917 1.83968,3.98124 2.03104,3.98124 0.28066,0 1.68411,-1.24631 4.50478,-4.00039 2.8799,-2.8119 3.30169,-3.13407 4.0877,-3.12219 1.12937,0.0171 1.72673,0.71294 2.87438,3.34833 0.89453,2.05415 1.53726,3.2766 1.72277,3.2766 0.25173,0 1.6538,-1.23089 4.22857,-3.71228 2.617,-2.5221 3.38322,-3.13049 3.94256,-3.13049 0.81128,0 1.55408,0.54453 2.03661,1.49297 0.34452,0.67722 2.33461,5.47564 3.68932,8.89559 0.54212,1.36856 1.03721,2.61033 1.1002,2.7595 0.10028,0.23742 0.0399,0.31911 -0.48419,0.65544 -0.67958,0.43608 -2.42539,1.21734 -2.9586,1.32398 -0.34709,0.0694 -0.37123,0.0375 -1.05848,-1.40084 -0.38682,-0.80952 -1.04974,-2.28367 -1.47317,-3.27587 -0.99744,-2.33723 -1.57477,-3.47734 -1.80575,-3.56598 -0.10208,-0.0392 -0.41709,0.0892 -0.70003,0.28529 -0.79019,0.5476 -3.51831,3.21718 -3.96106,3.87607 -0.37853,0.56331 -0.39142,0.624 -0.32521,1.53165 l 0.0689,0.94509 -0.89663,0.50382 c -0.92746,0.52115 -2.4238,1.15179 -2.73286,1.15179 -0.19241,0 -1.12686,-1.89165 -2.27398,-4.60332 -0.93628,-2.21327 -1.63984,-3.6023 -1.86917,-3.6903 -0.1022,-0.0392 -0.4216,0.0892 -0.70978,0.28543 -0.63717,0.43381 -4.32601,4.06815 -4.64956,4.58086 -0.12908,0.20455 -0.25934,0.69881 -0.29399,1.11551 -0.0562,0.67553 -0.10168,0.77475 -0.46858,1.02133 -0.44954,0.30213 -2.35629,1.02633 -2.9739,1.12951 -0.48031,0.0802 -0.4558,0.12316 -1.97972,-3.46662 -1.05108,-2.47595 -1.93842,-4.36897 -2.1911,-4.67442 -0.0952,-0.11512 -0.19047,-0.11866 -0.38544,-0.0143 -0.14243,0.0762 -1.55574,1.41903 -3.14068,2.98401 l -2.88172,2.84541 -6.2105,0.10382 c -4.59304,0.0768 -6.28692,0.14473 -6.50397,0.26089 -0.27193,0.14554 -0.28759,0.20864 -0.21326,0.8597 0.16241,1.42278 5.65299,34.36598 6.64447,39.86651 0.40883,2.26811 0.5284,2.49048 1.17331,2.18204 0.82056,-0.39245 6.09991,-3.79604 15.33647,-9.88741 9.93702,-6.55331 11.75371,-7.63324 12.8409,-7.63324 0.47381,0 0.60849,0.0684 1.09673,0.55659 0.69359,0.69359 0.70818,0.84156 0.34983,3.54907 -0.19092,1.44252 -0.19107,1.62728 -0.002,2.55049 0.67716,3.30762 3.20137,5.412 6.49173,5.412 1.93225,0 3.39207,-0.61616 4.72091,-1.99261 0.56661,-0.58689 0.95719,-1.14141 1.27428,-1.80912 0.41877,-0.88181 0.46189,-1.0755 0.51242,-2.30177 0.0458,-1.11121 0.011,-1.48455 -0.20489,-2.19509 -0.33353,-1.09806 -1.02522,-2.1596 -1.96981,-3.02307 -0.77155,-0.70529 -1.0771,-0.88537 -2.93325,-1.7287 -0.59874,-0.27204 -1.08863,-0.52346 -1.08863,-0.55872 0,-0.13914 0.85513,-2.41241 1.11449,-2.96274 0.3391,-0.71955 0.5314,-0.88672 1.00454,-0.87327 0.55047,0.0157 2.46547,0.9042 3.65606,1.6964 3.41151,2.26994 5.55584,6.70487 5.05642,10.45777 -0.53793,4.0423 -2.74129,7.10769 -6.42605,8.94013 -2.93316,1.45867 -6.71628,1.36014 -9.94187,-0.25892 -2.30297,-1.15596 -3.60534,-2.49122 -4.82365,-4.94546 -0.30572,-0.61585 -0.67829,-1.49339 -0.82794,-1.9501 -0.34824,-1.06277 -0.50707,-1.20338 -1.06094,-0.93925 -0.99876,0.47627 -15.45522,9.64747 -22.49364,14.27 -1.36751,0.89811 -1.58628,1.08703 -1.58628,1.36979 0,0.18039 0.30792,2.19679 0.68427,4.48089 0.37636,2.2841 0.68428,4.47229 0.68428,4.86266 0,1.27899 -0.6627,2.89018 -1.66619,4.05093 -0.53653,0.62061 -1.622,1.36059 -2.48926,1.69697 -1.36716,0.56143 -2.68472,0.91274 -3.93145,0.53708 z"
         id="path25508"
         sodipodi:nodetypes="csssssssccsssssssssscssssssssccsssccccssssssscccsscsscccssssssssssssssssssssscssssssssssssscssssssssscssssssssssssssssssssssccc" />
      <path
         style="fill:#000000;stroke:#000000;stroke-width:0.2;stroke-linecap:round;stroke-linejoin:round;stroke-miterlimit:4;stroke-dasharray:none;stroke-opacity:1;paint-order:markers fill stroke"
         d="m 143.76543,131.61367 c 0,-0.0399 -0.56197,-0.0553 -2.33983,-0.0639 l -2.33983,-0.0114 1.14118,-0.32387 c 1.78994,-0.50797 4.15963,-1.20888 4.85086,-1.43479 0.34674,-0.11332 0.64043,-0.19604 0.65266,-0.18381 0.0122,0.0122 -0.34364,0.40479 -0.79081,0.87237 -0.979,1.02372 -1.17423,1.21415 -1.17423,1.14539 z"
         id="path25547" />
    </g>
  </g>
</svg>
