<svg width="210mm" height="297mm" viewBox="0 0 210 297" xmlns="http://www.w3.org/2000/svg"><g transform="matrix(1.4942 0 0 1.4942 -40.9043 -124.4667)"><circle style="fill:#000;stroke-width:5.61225;stroke-linecap:round;stroke-linejoin:round;paint-order:markers fill stroke" cx="91.7518" cy="133.5847" r="10.5178"/><path style="fill:#000;stroke:#000;stroke-width:.9;stroke-linecap:round;stroke-linejoin:round;stroke-miterlimit:4;stroke-dasharray:none;stroke-opacity:1;paint-order:markers fill stroke" d="M60.893 232.1054c-16.3478-13.9069-17.7638-15.2072-20.1035-18.4605-2.8396-3.9484-4.7524-8.368-5.7468-13.2784-.3472-1.7145-.6983-4.724-.6983-5.9851v-.7952l1.2752-.1399c2.2225-.2438 6.1947-.5527 6.2605-.4868.035.0349.2007 1.5961.3685 3.4694.3213 3.588.3674 3.9458.5788 4.4947.1266.3288.1662.3422 1.0186.3428.4878.0003 2.3051-.0903 4.0384-.2014 1.7832-.1144 3.1976-.1552 3.2577-.094.0584.0595.2232 1.5358.3662 3.2807.2955 3.6034.4481 4.6518.709 4.8683.1437.1193.9145.1067 3.6273-.0592 4.6703-.2856 4.5816-.2881 4.6644.1363.0367.1881.1897 1.9657.3401 3.9501s.2965 3.6867.3246 3.783c.0428.1462.4224.1603 2.3182.0859 1.2468-.049 2.5871-.1305 2.9784-.1811.6748-.0873.7086-.0789.655.1629-.0311.1402-.7336 4.1737-1.561 8.9633-.8275 4.7896-1.5203 8.7241-1.5395 8.7434-.0193.0193-1.4286-1.1505-3.1317-2.5993z"/><path style="fill:#000;stroke:#000;stroke-width:.3;stroke-linecap:round;stroke-linejoin:round;stroke-miterlimit:4;stroke-dasharray:none;stroke-opacity:1;paint-order:markers fill stroke" d="M110.9833 246.876c-1.0938-.33-2.3513-.9451-3.0374-1.486-.331-.2608-.6187-.669-.8985-1.2744-.5487-1.1877-4.0025-9.7795-8.0477-20.0199-4.7608-12.052-6.6885-16.739-7.2671-17.6692-.132-.2122-.1706-.2205-.278-.0598-.4293.6421-3.1302 7.271-8.339 20.466-6.2 15.7065-7.1685 17.9546-7.9192 18.3839-.2152.123-.8715.7123-1.4723 1.0507-1.199.7103-2.5645 1.0572-3.6727.9094-.9151-.1346-1.4096.054-2.2919-.3827-1.2163-.602-1.9436-1.9558-2.602-3.0824-1.005-1.7198-1.1622-2.9727-.705-5.6194.267-1.5454.3242-2.8615.1244-2.8615-.0684 0-.1244-.1143-.1244-.254 0-.1398.7014-4.2918 1.5587-9.2267 1.0672-6.143 1.6149-9.0152 1.7368-9.108.233-.1773 1.6538-8.3408 6.1406-35.2825 2.2741-13.6548 2.1321-12.7344 1.9794-12.8314-.3284-.2086-2.6202-.2638-15.1479-.3648-7.8785-.0635-13.8615-.1615-14.3698-.2355-6.5192-.9485-11.3015-4.5935-14.5549-11.0934-.4857-.9703-.7755-1.6863-.7094-1.7524.1373-.1373 2.2255-.7203 2.5799-.7203.3012 0 .7079.4173 1.8337 1.882 1.6363 2.1288 4.3078 4.4954 6.3872 5.6583 3.7925 2.1208 6.4335 2.5145 18.652 2.78 4.9018.1065 8.3716.0812 9.612-.0702.7398-.0903.815-.3358.6288-2.0527l-.147-1.3546-4.8007-.0008c-6.8829-.001-13.548-.273-16.821-.686-3.1872-.4022-6.6006-2.0964-8.9852-4.4597-1.0938-1.084-2.1564-2.4012-2.035-2.5227.1015-.1014 1.3522-.3854 6.186-1.4045l4.1715-.8795h29.945l1.1504 1.0997c1.3889 1.3278 2.678 2.2534 4.4296 3.1805 2.427 1.2845 3.9764 1.676 7.0378 1.7782 3.5204.1175 5.8976-.3171 8.3152-1.5203 2.251-1.1202 4.2123-2.7344 9.8375-8.0965 4.1897-3.9937 5.4444-5.14 7.2072-6.5843 4.4548-3.65 8.8514-5.615 18.774-8.3915l4.0143-1.1232h4.6908l-1.1702 1.213c-.6437.6672-8.8963 8.9884-18.339 18.4916L107.072 168.577l.4077 2.3789c.2242 1.3084.5864 3.3586.8048 4.5561l.3972 2.1773 6.0174.0323 6.0175.0323 3.4423-3.3915c3.8038-3.7476 4.913-4.6357 5.7895-4.6357 1.007 0 1.6482.755 2.6942 3.1726 1.0683 2.4692 1.8397 3.9812 2.031 3.9812.2807 0 1.6841-1.2463 4.5048-4.0003 2.88-2.812 3.3017-3.1341 4.0877-3.1222 1.1294.017 1.7268.7129 2.8744 3.3483.8945 2.0541 1.5373 3.2766 1.7228 3.2766.2517 0 1.6538-1.2309 4.2285-3.7123 2.617-2.522 3.3833-3.1305 3.9426-3.1305.8113 0 1.554.5446 2.0366 1.493.3445.6772 2.3346 5.4756 3.6893 8.8956.5421 1.3685 1.0372 2.6103 1.1002 2.7595.1003.2374.04.319-.4842.6554-.6795.4361-2.4254 1.2174-2.9586 1.324-.347.0694-.3712.0375-1.0584-1.4008-.3869-.8096-1.0498-2.2837-1.4732-3.276-.9975-2.3371-1.5748-3.4772-1.8058-3.5659-.102-.0392-.417.0892-.7.2853-.7902.5476-3.5183 3.2172-3.961 3.876-.3786.5634-.3915.624-.3253 1.5317l.069.9451-.8967.5038c-.9274.5212-2.4238 1.1518-2.7328 1.1518-.1925 0-1.127-1.8916-2.274-4.6033-.9363-2.2133-1.6399-3.6023-1.8692-3.6903-.1022-.0392-.4216.0892-.7098.2854-.6371.4338-4.326 4.0682-4.6495 4.5809-.1291.2045-.2594.6988-.294 1.1155-.0562.6755-.1017.7748-.4686 1.0213-.4496.3022-2.3563 1.0264-2.974 1.1295-.4802.0802-.4557.1232-1.9796-3.4666-1.0511-2.476-1.9384-4.369-2.1911-4.6744-.0952-.1151-.1905-.1187-.3855-.0143-.1424.0762-1.5557 1.419-3.1406 2.984l-2.8818 2.8454-6.2105.1038c-4.593.0768-6.2869.1448-6.504.261-.2719.1455-.2875.2086-.2132.8596.1624 1.4228 5.653 34.366 6.6445 39.8665.4088 2.2682.5284 2.4905 1.1733 2.182.8205-.3924 6.0999-3.796 15.3365-9.8873 9.937-6.5533 11.7537-7.6333 12.8409-7.6333.4738 0 .6084.0684 1.0967.5566.6936.6936.7082.8416.3498 3.549-.191 1.4426-.191 1.6274-.002 2.5506.6772 3.3076 3.2014 5.412 6.4917 5.412 1.9323 0 3.3921-.6162 4.721-1.9926.5666-.587.9571-1.1414 1.2742-1.8091.4188-.8819.462-1.0755.5125-2.3018.0458-1.1112.011-1.4846-.205-2.1951-.3335-1.098-1.0252-2.1596-1.9697-3.023-.7716-.7054-1.0771-.8854-2.9333-1.7288-.5987-.272-1.0886-.5234-1.0886-.5587 0-.1391.8551-2.4124 1.1145-2.9627.339-.7196.5314-.8868 1.0045-.8733.5505.0157 2.4655.9042 3.656 1.6964 3.4116 2.27 5.5559 6.7049 5.0565 10.4578-.538 4.0423-2.7413 7.1077-6.426 8.94-2.9332 1.4588-6.7163 1.3602-9.942-.2588-2.303-1.156-3.6053-2.4912-4.8236-4.9455-.3057-.6158-.6783-1.4934-.828-1.95-.3482-1.0629-.507-1.2035-1.0609-.9393-.9987.4762-15.4552 9.6474-22.4936 14.27-1.3675.898-1.5863 1.087-1.5863 1.3698 0 .1803.308 2.1967.6843 4.4808.3763 2.2841.6843 4.4723.6843 4.8627 0 1.279-.6627 2.8902-1.6662 4.051-.5366.6205-1.622 1.3605-2.4893 1.6969-1.3671.5614-2.6847.9127-3.9314.537z"/><path style="fill:#000;stroke:#000;stroke-width:.2;stroke-linecap:round;stroke-linejoin:round;stroke-miterlimit:4;stroke-dasharray:none;stroke-opacity:1;paint-order:markers fill stroke" d="M143.7654 131.6137c0-.04-.562-.0553-2.3398-.064l-2.3398-.0113 1.1411-.3239c1.79-.508 4.1597-1.2089 4.851-1.4348.3466-.1133.6403-.196.6526-.1838.0122.0122-.3437.4048-.7908.8724-.979 1.0237-1.1743 1.2141-1.1743 1.1454z"/></g></svg>