<svg width="210mm" height="297mm" viewBox="0 0 210 297" xmlns="http://www.w3.org/2000/svg"><path style="fill:#000;stroke-width:1.07533" d="M-14.591129 1228.4854c-22.050452-1.9338-36.962159-6.0564-41.212171-11.3942-2.046141-2.5698.03766-24.4999.03766-75.703 35.6673 13.3033 87.205594 13.9283 135.53722 2.8342 0 60.2589 1.902323 75.49-8.480019 77.5108-15.844221 3.0838-54.065722 9.5422-85.882685 6.7522zm67.015697-10.3994c6.247876-1.1099 13.185437-2.7797 15.416822-3.7104l4.057051-1.6924v-12.4706c0-12.4501-.004-12.4694-2.434233-11.694-12.224417 3.9006-38.024563 6.9638-58.480542 6.9434-19.9955604-.02-49.929009-3.5818-58.362675-6.9446-1.738565-.6932-1.893293.2634-1.893293 11.7055v12.4603l3.98282 1.6441c4.815135 1.9876 17.746654 4.4711 29.847594 5.7324 14.6195881 1.5237 54.750041.3567 67.866456-1.9737zm-85.552303-7.7321c-1.236075-1.2212-1.966346-2.9439-1.62282-3.8283.343525-.8844.62459-2.0616.62459-2.6159 0-1.7896 5.365614-3.191 7.631229-1.9931 3.064726 1.6204 3.849448 6.0258 1.525309 8.563-2.476265 2.7032-5.339479 2.6591-8.158308-.1257zm85.552303-26.4701c6.247876-1.11 13.185437-2.7797 15.416822-3.7105l4.057051-1.6924v-12.4706c0-12.4502-.004-12.4694-2.434233-11.694-12.224417 3.9006-38.024563 6.9638-58.480542 6.9434-19.9955604-.02-49.929009-3.5818-58.362675-6.9446-1.71357 4.7846-1.893293 13.6598-1.893293 24.1658l3.98282 1.6441c4.815135 1.9876 17.746654 4.4711 29.847594 5.7324 14.6195881 1.5237 54.750041.3567 67.866456-1.9736zm-85.552303-7.7323c-1.236075-1.2211-1.966346-2.9438-1.62282-3.8282.343525-.8844.62459-2.0616.62459-2.6159 0-1.7896 5.365614-3.191 7.631229-1.9931 3.064726 1.6204 3.849448 6.0258 1.525309 8.563-2.476265 2.7032-5.339479 2.6591-8.158308-.1258z" transform="matrix(.34103 .01639 -.01647 .34275 123.6105574 -299.97161185)"/><path style="fill:#000;stroke-width:1.06882" d="M-13.506163 1160.0181c-21.784281-1.9337-36.515993-6.0564-40.714705-11.3942-2.021442-2.5698-2.098412-4.6173-2.098412-55.8205s.07697-53.2507 2.098412-55.8205c3.088952-3.927 11.180109-6.9714 25.379189-9.5492 10.815942-1.9636 16.619876-2.2881 40.927014-2.2881 24.307139 0 30.111072.3245 40.927016 2.2881 14.199077 2.5778 22.290231 5.6222 25.379191 9.5492 2.021325 2.5697 2.098408 4.6167 2.098408 55.7268 0 60.2589.60708 56.2412-9.150143 60.5563-14.590673 6.4527-53.413073 9.5422-84.84597 6.7521zm66.206738-10.3993c6.172448-1.11 13.02627-2.7797 15.230715-3.7105l4.008083-1.6924v-12.4706c0-12.4501-.0043-12.4694-2.40485-11.694-12.076856 3.9006-37.565556 6.9638-57.77461 6.9434-19.7541818-.02-49.326311-3.5818-57.658177-6.9446-1.717579-.6932-1.870439.2634-1.870439 11.7055v12.4603l3.934743 1.6441c4.757014 1.9876 17.532441 4.4711 29.48731 5.7324 14.44311217 1.5237 54.089135.3567 67.047225-1.9736zm-84.519587-7.7322c-1.221156-1.2212-1.942611-2.9439-1.603233-3.8283.339379-.8844.617051-2.0616.617051-2.6159 0-1.7896 5.300847-3.191 7.539116-1.9931 3.027729 1.6204 3.802986 6.0258 1.506897 8.563-2.446375 2.7032-5.275028 2.6591-8.059831-.1257zm84.519587-26.4701c6.172448-1.11 13.02627-2.7797 15.230715-3.7105l4.008083-1.6924v-12.4706c0-12.4502-.004-12.4694-2.40485-11.694-12.076856 3.9006-37.565556 6.9638-57.77461 6.9434-19.7541818-.02-49.326311-3.5818-57.658177-6.9446-1.717579-.6932-1.870439.2634-1.870439 11.7055v12.4603l3.934743 1.6441c4.757014 1.9876 17.532441 4.4711 29.48731 5.7324 14.44311217 1.5237 54.089135.3567 67.047225-1.9736zm-84.519587-7.7323c-1.221156-1.2211-1.942611-2.9438-1.603233-3.8282.339379-.8844.617051-2.0616.617051-2.6159 0-1.7896 5.300847-3.191 7.539116-1.9931 3.027729 1.6204 3.802986 6.0258 1.506897 8.563-2.446375 2.7032-5.275028 2.6591-8.059831-.1258zm84.519587-26.47c6.172448-1.11 13.02627-2.7798 15.230715-3.7105l4.008083-1.6924v-12.4706c0-12.4502-.004-12.4694-2.40485-11.694-12.076856 3.9006-37.565556 6.9638-57.77461 6.9433-19.7541818-.02-49.326311-3.5817-57.658177-6.9445-1.717579-.6932-1.870439.2634-1.870439 11.7055v12.4603l3.934743 1.644c4.757014 1.9877 17.532441 4.4712 29.48731 5.7324 14.44311217 1.5238 54.089135.3568 67.047225-1.9735zm-84.519587-7.7323c-1.221156-1.2211-1.942611-2.9438-1.603233-3.8283.339379-.8844.617051-2.0615.617051-2.6158 0-1.7896 5.300847-3.191 7.539116-1.9931 3.027729 1.6204 3.802986 6.0258 1.506897 8.563-2.446375 2.7032-5.275028 2.659-8.059831-.1258zm81.847532-26.0084c11.583263-1.9716 20.842031-4.6253 20.842031-5.9736 0-.5423-2.313369-1.673-5.140821-2.5127-24.585971-7.3012-72.9763928-8.1047-100.672568-1.6715-10.713703 2.4885-13.102116 3.6567-10.688221 5.2276 2.59456 1.6884 20.065705 5.3612 30.46143 6.4035 13.8754152 1.3912 53.649991.4924 65.198149-1.4733z" transform="matrix(.34103 .01639 -.01647 .34275 123.6105574 -299.97161185)"/><path style="fill:#4382ca;fill-opacity:1;stroke:#4382ca;stroke-width:.124414;stroke-opacity:1" d="M-197.38477 1973.468c-5.58477-.232-12.72087-1.4586-15.9912-2.7485l-1.19584-.4716.0401-4.7409c.0455-5.3841.0228-5.258.88807-4.9496 4.2019 1.4977 18.03135 2.9723 25.58994 2.7285 8.11351-.2617 16.17443-1.2534 20.84282-2.5643 1.22574-.3442 1.3625-.3602 1.54167-.1812.17032.1702.20225.7961.23855 4.6763l.0419 4.4797-.30556.3992c-.37137.4851-1.4151.9126-3.5215 1.4422-4.14137 1.0412-6.99352 1.3967-14.11015 1.7582-2.54032.1291-12.23717.2477-14.0588.172zm-7.8223-3.5953c.68117-.4443 1.03767-1.1068 1.0373-1.9279 0-.8399-.3452-1.5636-.93948-1.9718-.37909-.2604-.53134-.2861-1.41994-.2396-1.09699.057-1.75099.3146-1.91979.755-.0578.1507-.17211.5664-.25413.924-.19495.8499-.0404 1.3169.66495 2.0091.93662.9192 1.88238 1.07 2.83109.4512zM-199.12654 1959.4021c-5.36668-.3692-12.02627-1.6672-14.85564-2.8955l-.61027-.2649.0789-3.1998c.0975-3.9544.42661-6.4605.84243-6.4158.0961.01.7066.1624 1.35665.338 2.76651.7471 8.37171 1.5544 13.99657 2.016 3.2857.2696 10.71287.3707 13.80995.188 7.03966-.4153 12.50201-1.1587 16.73368-2.2772 2.12683-.5622 2.08613-.5596 2.20263-.1414.0545.1955.099 2.4173.099 4.9372v4.5818l-.8709.3725c-1.16663.499-2.52055.8827-4.94675 1.4021-3.26269.6985-6.53053 1.0312-12.90664 1.3142-2.49344.1107-13.49264.1437-14.92967.045zm-6.37006-3.3287c.51369-.2691 1.09813-.9526 1.26704-1.4818.28839-.9035-.0873-2.0144-.87964-2.6011-.43645-.3232-1.16681-.4017-2.04314-.2198-.98988.2055-1.32929.5658-1.53807 1.6328-.14899.7614-.14237.861.0866 1.3063.64251 1.2495 2.10219 1.8901 3.10724 1.3636zM-195.14531 1945.2983c-6.1687-.3709-12.31198-1.3052-16.98249-2.5828l-1.7418-.4764-.0328-4.2617c-.018-2.344.0122-4.5244.0668-4.8453.12195-.715.0818-.713 2.39205-.1126 4.03365 1.0484 11.1529 1.9082 18.4236 2.225 8.15848.3556 19.70293-.7607 25.87831-2.5022 1.14287-.3223 1.31781-.3438 1.48241-.182.15803.1553.19259.9129.22558 4.9445l.039 4.761-1.10127.4504c-1.60711.6573-3.25509 1.0507-6.13045 1.4633-5.73262.8225-9.72129 1.1191-15.86278 1.1795-2.66869.026-5.66396 0-6.65615-.061zm-9.9819-3.1759c.96107-.4015 1.43719-1.1231 1.43816-2.1796 0-.831-.39047-1.6217-.98388-1.9884-.67077-.4146-2.28065-.2828-2.92565.2396-.39484.3197-.7461 1.6428-.58809 2.2151.23622.8555 1.50087 1.8953 2.31465 1.9032.15616 0 .49131-.084.74481-.1899zM-197.13593 1931.4842c-5.68444-.2154-13.01771-1.5224-15.96747-2.8459l-.84217-.3778.038-4.7109c.0289-3.5935.0757-4.7563.19685-4.9022.14189-.1708.26014-.1592 1.10498.1091 2.82755.8979 9.50047 1.8607 16.29026 2.3502 9.32659.6725 21.79672-.3241 29.14502-2.3292 1.16922-.319 1.43079-.3558 1.51887-.2132.20875.3377.25281 1.4748.21616 5.5798l-.0371 4.1615-.99531.4288c-1.16832.5033-3.98848 1.23-6.53174 1.683-3.06419.5459-7.41854.8678-14.49422 1.0718-4.63211.1335-6.00794.1327-9.64208-.01zm-7.43825-3.6447c1.19745-.9133 1.19565-2.875-.003-3.7893-.3837-.2925-.54655-.3332-1.28199-.3205-.61891.011-.99819.093-1.42957.3111-.56832.2869-.59391.3241-.79944 1.1621-.31011 1.2644-.0164 1.9789 1.11191 2.7041.4948.318.66519.3613 1.26297.3211.51506-.035.8052-.1336 1.13958-.3886zM-198.38008 1917.4738c-5.64872-.3971-12.24057-1.6738-14.96075-2.8977l-.59098-.2659.003-4.3798c.003-3.866.0719-5.1804.28438-5.3928.0331-.033.53554.085 1.11649.2619 2.84323.8673 8.26682 1.6795 15.14321 2.268 3.17373.2716 11.81918.3081 14.86747.063 5.44772-.4385 11.12337-1.2501 14.121-2.0193 2.70105-.693 2.60482-.6753 2.77137-.5089.11491.1148.15235 1.3297.15235 4.9432v4.791l-.8709.3715c-1.7208.7342-5.62221 1.6656-8.52236 2.0346-1.91212.2433-5.98393.5337-9.64208.6878-2.67491.1126-12.4533.1434-13.87216.044zm-6.75753-3.2842c1.35469-.5119 1.92209-2.4294 1.06243-3.5905-.63381-.856-1.55072-1.0799-2.84647-.6952-.78882.2343-.95498.432-1.20348 1.432-.19955.803-.19878.8132.10959 1.4495.58608 1.2091 1.81152 1.8071 2.87793 1.4042z" transform="matrix(.83886 .04031 -.04031 .83886 346.30493 -1529.2693)"/><path style="fill:#59b8ca;fill-opacity:1;stroke:#43a8ca;stroke-width:.124414;stroke-opacity:1" d="M-198.15457 1903.4878c-1.21031-.053-3.05787-.2159-4.10567-.3619-4.79947-.669-10.11994-1.8823-10.92851-2.4921-.29628-.2235-.29739-.2315-.067-.4861.61407-.6785 6.168-1.9668 11.01881-2.5559 7.55912-.9179 18.16119-.8668 25.94031.1251 4.61838.5889 9.721 1.8295 10.27623 2.4986.21286.2564-.0911.4471-1.44285.9051-1.9172.6496-5.32157 1.4001-7.93118 1.7484-4.20182.5608-16.46997.8944-22.76017.6188z" transform="matrix(.83886 .04031 -.04031 .83886 346.30493 -1529.2693)"/><path d="m102.72145 147.31621-.97747-1.7602c-1.67906-3.02333-2.506464-4.17321-4.184761-5.52607-3.600235-2.90166-8.675963-5.0143-12.594849-15.81546-2.242795-6.18124-3.455384-9.30892-5.370826-12.13418-.834827-1.23146-1.651495-1.95657-1.599809-2.00302.05105-.0462.947309-1.70871 1.063678-1.04687l.99244-.71302 2.032739 1.92861c6.540488 6.28425 15.69144 11.12329 24.623538 10.07623 9.28194 2.82186 26.7558-8.47845 26.79385-8.50791l1.18928-1.40082 1.06536.83028.85193.81508-.5808 1.00117c-2.45239 4.2278-4.5378 6.37055-7.76189 13.53076-3.87602 8.60832-9.815 10.68752-12.97476 13.33822-3.61683 3.03364-4.00225 3.42498-5.325 5.40446l-1.32698 1.98594m.45886-5.42119c.64316-.81406 2.00095-2.08054 3.01712-2.81431 3.5888-2.59142 9.47627-4.44818 13.73979-13.79462 1.44829-3.17479 2.59962-5.80953 2.55843-5.85485-.13977-.1539-11.11669 3.2305-12.66527 4.42002-5.10491 3.92105-7.52429 8.98447-8.3605 17.49689-.33084 3.36861-.48143 3.3207 1.71043.54687zm-5.09586-2.88108c-.0522-6.10505-2.1298-11.48665-5.935747-15.37293-1.288525-1.31576-8.542366-3.31358-11.858873-5.53913l-.930485-.62436.464314 1.02949c.255419.56621 1.173143 3.01721 2.039469 5.44689 1.818043 5.09877 4.904075 7.47537 6.09317 9.46851.800601 1.34192 4.512157 3.70465 6.792662 5.77346.5902.53543 1.53218 1.73072 2.09349 2.65616.56125.92555 1.10225 1.69031 1.20244 1.69948.1061-1.44934.0296-2.40946.0395-4.53757zM97.018157 56.666972c1.267294.747763-6.018279-4.67891-6.557485-5.331978-4.214216-5.105382-4.235158-5.039291-4.229241-5.092915.02089-.144746 1.970552-1.372884 2.162102-1.358724.05854.000191.570066.705562 1.136015 1.557844 1.365156 2.056824 3.478588 3.997142 7.83261 7.191283l3.599022 2.640402-.71945-1.335305c-2.101769-3.900653-3.462344-8.576632-3.773569-12.968523-.102627-1.449735-.138767-4.942988-.08023-7.76306.114508-5.524675-.06891-9.781083-.506836-11.734807-.150709-.673081-.269052-1.306321-.263018-1.407249.01211-.151812.462923-.264172 2.49102-.61521.03887-.01041.41315 1.279701.833667 2.858406.962565 3.61363 2.298376 7.090738 3.765756 9.801856 1.45768 2.693558 1.73526 2.975952 2.01737 2.052765.57633-1.885933.98878-2.984736 2.6383-7.027381 2.20225-5.397406 3.19527-8.2256 4.11421-11.717624.77038-2.927042 1.55775-7.2914601 1.72836-9.5780921l.10691-1.432461 1.37003.101679 1.37026.10168-.1253 1.683036c-.18563 2.49406.0906 7.7825111.57866 11.0972211.23645 1.604106 1.11281 5.727292 1.94734 9.16257.8346 3.435562 1.59192 6.991692 1.68282 7.903174.0906.911481.23941 1.756679.32991 1.878379.56102.75381 5.44491-7.014258 7.28778-11.591196l1.16949-2.904575.73522.217718c.40439.120006.96727.325357 1.25087.457063l.51561.239061-.59282 1.862421c-.67118 2.108471-1.32078 6.037444-2.25144 13.61753-1.03427 8.423867-2.72155 13.074647-6.58887 18.161896-.52528.690739-.85257.837366 3.60268-1.614115 4.5074-2.479987 7.04425-4.261691 8.47588-5.953602.66956-.791006 1.31365-1.434439 1.43123-1.429531.1171.01134.62188.384266 1.12076.843783l.90705.835099-1.76885 1.892639c-3.40996 2.625958-6.69393 4.712519-9.91929 6.548034m-7.54268-.986064c3.39882-3.870153 5.65485-8.290369 6.73592-13.201631.81007-3.680099 1.50816-9.910621 1.04419-9.319205-.1923.245192-.92347 1.20539-1.62446 2.133583-.70106.928096-2.63762 3.10785-4.30344 4.84385-4.53107 4.721684-6.0231 7.486525-7.01681 13.004402-.0969.537691-.19915 1.268743-.29876 2.098557 3.66689.28258.82334.034 5.46336.440159zm-8.65995-.764762c.0888-7.424206-1.00005-10.583887-5.41144-16.464978-1.14924-1.532262-2.7479-3.905654-3.55239-5.274384l-1.46279-2.488676-.10216 3.499383c-.257625 8.867809 1.0584 14.105085 5.27176 20.375924 3.68145.303544 1.0537.111603 5.25666.352453zm2.47831-8.388557c.0511-.686204 2.37285-4.348458 3.68905-5.818776 1.18869-1.327943 1.49411-1.847697 1.66275-2.829331.34574-2.012824-.0557-4.808822-1.61176-11.212876-.81812-3.3674-1.62423-6.961103-1.79142-7.985977l-.3042-1.863464-.89806 2.699224c-.49407 1.48467-1.81984 4.96961-2.94634 7.744464-1.12645 2.774562-2.25863 5.768359-2.51602 6.652645-.8096 2.78193-.77044 3.022876.88048 5.425164 1.38035 2.008299 3.4016 6.288304 3.34278 7.078179-.014.191568.0859.356793.22317.36699.13702.0132.25832-.10508.26957-.256242zM108.65638 147.32206l-4.5997 33.6008c-1.90437 13.91122-6.59283 26.6844-7.194338 29.00039-.598958 2.31664-1.017617 4.16612-.92451 4.11119.09345-.0545 1.260563-2.35591 2.594046-5.11338 13.123982-27.13594 28.657742-50.26019 40.400192-60.14079l1.80773-1.52132 2.84574.0766c10.60075.28397 17.32872 2.6976 22.61491 8.11315l1.49492 1.53148.18831 2.08037c.45764 5.05652.18083 12.06805-.76016 19.25389-.59601 4.55174-4.24241 18.97019-6.09359 24.09488-8.59334 23.7895-21.13854 46.48888-45.74489 82.77155-.38606.56937-.40741.56918-1.45078-.0109l-1.05898-.58823.51206-1.724c.6018-2.0259 3.0775-8.23904 9.28739-23.30611 8.22215-19.94946 10.27032-25.67779 13.08927-36.60884 2.20097-8.55143 2.76756-11.66305 3.29655-18.23857.43253-5.37593.31326-12.12699-.29985-16.98037-.139-1.10023-.2868-2.29314-.32846-2.65095-.0671-.5772-.49976-.13915-3.84022 3.90943-10.82246 13.10917-16.04768 19.91957-22.1271 28.83999-11.50456 16.88089-21.31115 36.02167-31.273956 61.04146-1.199653 3.0126-2.213268 5.48808-2.252657 5.50119-.03945.014-1.131548.30657-2.427151.65214-1.295543.34552-2.754329.74689-3.241789.89192-.487462.14505-.915809.16515-.951891.0447v-.00012c-.03597-.12036.05105-5.70374.193986-12.40759.684521-32.13945.31691-41.88633-2.142147-56.78768-.978518-5.92946-3.494077-16.83319-4.811259-20.85453l-.226356-.69073-.600464.99303c-1.144369 1.89259-3.787842 7.27297-5.082515 10.34468-2.149805 5.10085-3.69868 9.96495-5.068071 15.91629-1.932207 8.39775-2.639468 13.97045-3.899743 30.72812-.930078 12.36837-2.35574 24.2273-2.952259 24.55698-.11033.0614-.731337.0522-1.379196-.0197l-1.1779-.1317v-1.11107c0-.61108-.173276-3.56444-.381649-6.56304-.346496-4.98664-.809243-8.84316-3.18697-26.55736-1.494693-11.13641-1.844554-20.0026-1.125574-28.51891 1.24757-14.77621 5.517593-30.17435 13.727326-49.50275 1.968348-4.63439 1.793099-4.4545 5.117264-5.25422 2.997683-.72101 5.347448-.63284 9.148399.34342 3.587938.91778 6.073679 2.03379 9.976264 4.46372l2.141856 1.3336.681679 4.88505c2.42837 17.40269 3.942555 32.2648 4.907209 48.16341l.31018 5.11156 8.986203-34.71428 7.343011-42.34144m-24.681943 125.9195c.288543-1.84033.320738-2.66605.09879-2.53529-.165214.0972-.609862 4.14478-.4595 4.1837.05395.014.21638-.72785.36071-1.64841zm-30.711294-13.45562c.146066-1.71787.49448-6.19928.774032-9.95857 1.002186-13.47534 1.85662-19.90716 3.728031-28.06324 2.297382-10.01258 5.975526-19.3443 10.977813-27.85162l1.375424-2.33909-.837553-4.10139c-.46066-2.25568-1.132767-5.20405-1.493532-6.55191-.766376-2.86293-.507591-3.09207-2.895991 2.56439-3.282049 7.77286-4.312776 10.72478-6.002327 17.19066l-1.61959 6.1969-1.231732-.16731c-.677329-.0926-1.27669-.24422-1.332554-.33466-.05453-.0944.673325-3.12479 1.618719-6.7354 1.914166-7.30988 3.227286-10.94219 7.284122-20.14286l2.267274-5.14232-.647916-2.05067c-.356415-1.12784-1.025797-3.06492-1.487558-4.30448-.989134-2.65496-.678837-2.96507-3.156574 3.15588-5.375409 13.27943-8.975354 25.52737-10.607822 36.08948-1.773376 11.4749-1.730331 21.45756.153443 35.58103.475509 3.56456 1.275356 9.56509 1.777492 13.3346.502138 3.76939.95282 6.83193 1.001432 6.80531.04931-.0267.208084-1.45375.354153-3.17166zm28.887391 1.54446c1.549282-14.59406 1.922404-21.64325 1.659269-31.34402-.203674-7.50705-1.257895-18.07763-2.562141-25.69096-.286629-1.67324-.582134-3.43306-.65685-3.91076l-.135692-.86859 1.341952-.29452 1.34201-.29446.565252 3.29817c1.938995 11.31202 2.942051 22.33815 2.935264 32.26314-.0093 8.60403-.387103 14.57792-1.733464 27.17875-.456773 4.27524-.793464 7.83598-.748334 7.91267.224906.38158.895332-3.66307 3.237382-19.51421 2.537314-17.17633 2.550713-17.29217 2.400061-20.79507-.752395-17.49022-2.671143-38.53688-5.077295-55.68966l-.797873-5.68884-1.692277-1.05538c-3.212262-2.00339-5.390433-2.95225-8.723184-3.80003-2.739652-.69647-3.424406-.78267-5.287522-.66271-1.176971.0755-2.423961.26732-2.771154.42545l-.631034.28767.894054 2.2924c2.358582 6.04711 5.224756 15.9225 6.430326 22.15658.388321 2.00768 1.192576 5.29245 1.787356 7.29949 5.208861 17.57834 7.466042 33.96996 7.517902 54.59483.01165 4.66357-.134588 15.03471-.256579 18.19017-.117241 3.03533.176177 1.1174.962565-6.29011zm50.572886 1.48588c16.45085-25.81865 26.45496-45.56558 32.7087-64.56321 1.77146-5.38174 4.42897-16.47313 5.0064-20.89543.76952-5.89327 1.12239-13.77037.7419-16.55881l-.12486-.91488-4.0823 3.31047c-2.24535 1.82071-4.39626 3.57919-4.77965 3.90776l-.69734.59745-.1199 3.83558c-.31128 9.95526-1.51888 19.07628-4.02092 30.37077l-.79747 3.59953-1.40716-.36378-1.40703-.36379 1.30877-5.66053c1.88887-8.16929 2.90197-15.44877 3.38617-24.33218.1331-2.44148.22074-4.47508.1948-4.51918-.10701-.1815-5.87998 5.39299-8.83722 8.53362l-3.17874 3.37567.41268 2.93991c2.07039 14.74557.46118 29.75916-5.00455 46.69243-2.57338 7.97235-5.05599 14.44347-11.86652 30.93045-2.26519 5.48348-4.13376 10.0511-4.15227 10.15042-.068.36634 2.94322-4.15017 6.71655-10.07227zm-30.651334-21.14538c11.027254-21.48492 11.464944-22.23262 19.185534-32.77715 6.60018-9.01451 24.30035-30.88405 24.60078-30.39583.098.15918 1.06264-.68197 2.35887-2.05659 4.74773-5.03466 9.63117-9.44934 17.0501-15.41333l4.85714-3.90474-1.76252-1.43767c-3.07605-2.50894-4.14037-3.0174-8.90406-4.25429-3.70825-.95868-4.68183-1.12366-7.8698-1.29804-2.18425-.11974-3.83679-.0831-4.1348.0926-1.05021.61671-4.81213 4.23889-7.42068 7.14514-12.95863 14.43667-29.04459 41.80182-40.146219 68.29576-1.50438 3.59037-2.067661 5.36323-4.914749 15.46956-1.768675 6.27793-3.186738 11.46364-3.151352 11.52368.0348.0595.54315-1.18794 1.128649-2.77336 1.461221-3.95746 5.351798-13.28812 7.561352-18.1343 6.594789-14.46407 14.258659-27.60444 23.257979-39.8785 3.59008-4.89636 6.9273-9.05071 7.21155-8.97726.31203.0812 1.89427 1.5009 1.85244 1.66287-.0191.0727-1.07615 1.44631-2.34953 3.05191-13.07471 16.48671-24.15447 36.05735-32.968206 58.23376-3.221544 8.10554-6.123568 16.19103-5.508426 15.34716.08776-.11928 4.616692-8.9039 10.065948-19.52093zm-7.713688-9.0543c1.680674-6.50411 6.668284-24.38393 10.423175-39.73283 3.754907-15.349 5.161597-28.75059 5.443417-29.84855.30154-1.16665 1.17146-12.06551 1.02968-12.10096-.47139-.11757-3.79087 22.21516-9.223018 46.99015-9.09561 35.18261-9.610857 37.2925-10.228144 41.5414-.35775 2.46197-.688351 4.63097-.734643 4.81996-.04931.18848-.01211.30166.07459.25016.08783-.0517 1.534025-5.41521 3.214815-11.91933z" style="fill:#000;stroke-width:.0660941"/><path style="fill:#fcef3c;fill-opacity:1;stroke:#fcef3c;stroke-width:.939721;stroke-opacity:1" d="M92.272276 246.01337c0-.77525 3.350965-8.29256 7.455775-16.70516 7.385599-15.13646 13.799279-25.85131 22.693999-37.91368 4.88719-6.6275 5.35116-7.84897 3.2828-8.64261-2.75062-1.05545-19.94249 24.64005-29.436824 43.99716-5.136929 10.47324-5.884391 9.75698-1.470968-1.40959 9.473742-23.97004 29.242662-56.72438 42.147922-69.83357 5.21095-5.29319 5.49741-5.44426 9.2335-4.86989 7.00016 1.07603 13.36732 3.21376 15.02392 5.04427 1.57354 1.73875 1.43645 1.96164-3.82839 6.22712-13.08968 10.60505-25.22015 23.78574-39.94311 43.40105-8.93666 11.90633-9.24122 12.39216-17.857332 28.48845-4.011585 7.4943-7.297231 12.99171-7.301292 12.21645z"/><path style="fill:#fcef3c;fill-opacity:1;stroke:#fcef3c;stroke-width:.469859;stroke-opacity:1" d="M122.3232 268.55845c-.009-.2629 1.38296-3.8574 3.08649-7.98768 9.28954-22.52343 13.44494-35.19421 15.48325-47.21261 1.05985-6.24865 1.41539-19.4056.69983-25.88635l-.58086-5.25967 5.7324-5.68821 5.73247-5.6882-.31389 4.93355c-.45208 7.10394-1.50612 14.79065-2.92436 21.32499-1.64517 7.58073-1.64279 7.87246.0671 8.33788.76232.20738 1.44132.32172 1.50914.25402.068-.0679.75826-3.28511 1.53461-7.14983 1.80179-8.97013 2.79005-16.60364 3.16706-24.46444l.299-6.23437 4.36109-3.55191c2.39873-1.9535 4.48083-3.55181 4.62707-3.55181.4453 0 .29696 8.67957-.23099 13.52703-.5601 5.14127-2.6817 14.92043-4.76155 21.94744-3.09003 10.43941-10.25581 26.73307-17.7711 40.40789-6.48347 11.79739-19.68876 33.19054-19.71689 31.94228zM75.676919 247.89291c-.52099-22.31947-1.935107-32.4349-7.521093-53.79916-.912155-3.48863-2.23827-8.77453-2.946924-11.7464-.708596-2.97186-2.303068-8.46515-3.543154-12.20727-1.644011-4.961-2.103744-6.89963-1.697265-7.15801 1.913993-1.21711 8.719587.2365 14.036638 2.99792 4.144895 2.15275 3.691021 1.10595 5.059369 11.66882 1.836664 14.17778 3.322946 30.14396 4.243511 45.58397.440124 7.38357.392557 8.95418-.462342 15.27047-1.357499 10.02823-3.304324 21.6614-3.058767 18.27754 1.117569-15.40261 1.261956-19.27712 1.00497-26.97758-.312327-9.36048-.680867-13.2915-2.261357-24.12277l-1.017386-6.9729-1.411505.28228c-.776295.15531-1.493185.36401-1.592964.46391-.09989.0997.240453 3.00481.756338 6.45556.515886 3.45085 1.216419 8.70572 1.556881 11.67759.806982 7.0457.696414 29.68875-.183545 37.58888l-.654298 5.87314zM45.362996 249.73266c-.845268-6.43881-1.768849-14.45554-2.052287-17.81503-1.240145-14.69836 1.122672-30.81467 7.091875-48.37241 3.071762-9.0354 6.208147-16.82386 6.593045-16.37249.573896.67297 2.355567 5.83757 2.355567 6.82811 0 .53183-1.490807 4.44794-3.312795 8.70247-2.97297 6.94146-5.306318 13.98832-7.008805 21.16552-.32509 1.37066-.512753 2.57044-.417153 2.66603.09565.0957.7843.2429 1.530313.32702 1.311323.14785 1.385923.0435 2.243838-3.13599 1.867063-6.91853 3.857396-12.89592 6.163944-18.51155 2.741799-6.67483 2.621659-6.70524 4.246063 1.08021l1.068666 5.12191-2.493224 4.51019c-8.139194 14.72474-11.530651 28.38646-13.541694 54.55039-.407233 5.29767-.783082 9.93153-.835406 10.29729-.05221.36598-.786679-4.60289-1.631947-11.04167z"/><path style="fill:#fcef3c;fill-opacity:1;stroke:#fcef3c;stroke-width:.0830602;stroke-opacity:1" d="M85.223212 244.18785c-.01624-.2716.939013-6.37875 1.208702-7.7283.647685-3.24231 1.912716-8.3098 6.929157-27.75661 2.739826-10.6214 2.980221-11.62328 4.27153-17.80196 1.655093-7.92009 2.913799-14.48843 5.437319-28.37488 1.9716-10.84878 2.28758-12.40654 2.19686-10.82965-.17038 2.96426-.67762 8.86252-.89638 10.42416-1.89433 13.52516-3.35759 21.56308-5.655094 31.06453-1.541507 6.37486-3.770612 14.91694-7.976416 30.56609-.976024 3.63197-2.302661 8.62167-2.948084 11.08861-1.033164 3.94957-2.302024 8.66099-2.494095 9.26122-.03654.11431-.06984.15329-.07362.087zM86.129738 251.86934c0-.32741 5.276271-19.02448 5.602578-19.85351.164111-.41673.11794-.12005-.116309.74759-.322305 1.19403-.233782 1.80452.274273 1.88923.60087.10001 1.207484-.70924 2.910608-3.88271.392324-.73085.713585-1.28781.713992-1.23729 0 .0498-.209243.53613-.465882 1.07969-1.935455 4.09988-5.918907 13.58514-8.016559 19.08899-.766607 2.01138-.902699 2.33827-.902701 2.16801zM86.17603 260.63012c.178614-.90908 2.960847-8.4901 4.968642-13.5388.628889-1.58147.704651-1.73235.661374-1.3184-.04235.40938-.02552.49024.136266.65228.223457.2235.593215.18214.893359-.10002.425912-.40016 2.145918-3.17972 3.882863-6.2748.494015-.88025.915925-1.58281.937679-1.561.02146.0214-1.166587 2.38655-2.640688 5.25516-5.585406 10.86938-8.420196 16.35947-8.654442 16.76097-.234071.40114-.240278.40543-.185053.12456z"/><path style="fill:#fcef3c;fill-opacity:1;stroke:#fcef3c;stroke-width:.0415303;stroke-opacity:1" d="M78.239235 269.42419c0-.48351.315808-3.65802 1.198667-12.0749l.07837-.74758.0093.41645c.0093.47255.05853.60197.246138.59972.264005 0 .316271-.13093.568848-1.39.180065-.8973.729713-4.04563.877523-5.02507.04176-.2741.08116-.46693.08969-.42846.01398.0699-.121993 1.01041-.825312 5.70282-.917607 6.12315-1.598357 10.39364-1.884291 11.82122-.138643.69136-.29301 1.28144-.335474 1.28144-.0104 0-.01915-.0699-.01915-.15564zM75.270674 267.8564c.01103-.59385.03887-1.77129.06038-2.61644.05743-2.25167.129821-6.84109.160921-10.25796l.02727-2.99008.09572 4.40217c.05279 2.42117.104413 4.46035.114974 4.53142.01798.12129.03306.13092.231809.15453.116775.014.220556.0331.230475.0435.05221.0522-.76504 7.05555-.882046 7.55718-.05569.23773-.05853.17947-.03887-.82398zM77.680306 274.35582c.02668-.63997.116884-1.54105.247298-2.47101.124897-.89022.180876-1.1511.242598-1.12998.08876.0301.04814 1.09721-.07175 1.90773-.139916.94377-.296897 1.7877-.376778 2.02548-.06138.18146-.06231.17195-.04176-.33222z"/><path style="fill:#fcef3c;fill-opacity:1;stroke:#fcef3c;stroke-width:.0103825;stroke-opacity:1" d="M85.988019 261.18621c.0093-.0651.09803-.45584.120611-.512.01336-.0331.01336 0 0 .0699-.01336.0736-.0093.10669.02553.12145.04815.0214.08307-.018.219048-.2534.03886-.0671.07268-.12021.07552-.11757 0 0-.299565.58998-.352992.68111-.02959.0499-.06045.0831-.07837.0831-.01211 0-.01398-.0124-.0093-.0717z"/><path style="fill:#fcef3c;fill-opacity:1;stroke:#fcef3c;stroke-width:.00519125;stroke-opacity:1" d="M85.880526 252.66386c0-.0301.05947-.27822.14821-.62269.03307-.12704.06045-.23302.06138-.23535v.0558c-.000174.0558 0 .0604.01211.0727.02901.0314.06613.021.09745-.0272.04989-.0755.199788-.43677.448478-1.08277.01506-.0395.02842-.0699.02901-.0669 0 .009-.255535.67507-.404911 1.04489-.144265.35688-.254259.6138-.320623.7488-.0319.0651-.06515.12331-.07084.12331v-.0109z"/><path style="fill:#fcef3c;fill-opacity:1;stroke:#fcef3c;stroke-width:.00734155;stroke-opacity:1" d="M85.134978 244.54288c-.03771-.0377-.03771-.0812 0-.26941.01165-.0568.03016-.15964.04061-.22914.01165-.0699.02146-.12502.02378-.12363 0 0 0 .0545-.0093.11866-.01915.1782-.0093.22322.04699.22322.02842 0 .04698-.0163.06706-.0575.0093-.021.01915-.036.02089-.0342 0 0-.04815.17177-.08876.2857-.02553.0717-.03423.0888-.05105.0972-.02668.014-.02553.014-.04988-.0109z"/><path style="fill:#fcef3c;fill-opacity:1;stroke:#fcef3c;stroke-width:.0207651;stroke-opacity:1" d="M91.694725 245.59844c0-.0407 1.150751-2.8656 1.790025-4.39405.670192-1.60243 1.868278-4.37057 2.518922-5.81949l.202805-.45166h.142478c.07832 0 .142525 0 .142525.009 0 0-.173916.38037-.386523.83564-2.084775 4.46482-3.627906 7.99909-4.096456 9.3823-.0793.23349-.149079.41118-.155526.39453-.01682-.0435-.067-.0365-.115905.0155-.02378.0244-.04235.0388-.04235.029z"/><path style="fill:#fcef3c;fill-opacity:1;stroke:#fcef3c;stroke-width:.0415303;stroke-opacity:1" d="M96.263095 234.86809c0-.0191.203441-.48125.452247-1.02778 3.578888-7.86486 7.701408-15.80885 11.776578-22.69333 1.56077-2.63691 1.52045-2.57502 1.67661-2.57502h.13998l-.0802.13512c-4.5588 7.6722-8.28365 14.74256-13.073049 24.81425-.634574 1.33446-.66062 1.38092-.77438 1.38092-.06515 0-.117753-.0155-.117755-.0342z"/><path style="fill:#fcef3c;fill-opacity:1;stroke:#fcef3c;stroke-width:.0207651;stroke-opacity:1" d="M91.874905 231.84181c-.01506-.0755-.03945-.0812-.09705-.0238-.02263.0227-.04176.0318-.04176.0214 0-.0272.186735-.6221.450044-1.43378.652037-2.01023 1.203134-3.42167 2.695739-6.90438.581205-1.356 1.885857-4.33668 1.911729-4.36772h.03771c.02611.009.01856.0365-.04176.17317-1.806326 4.10881-3.929155 9.53852-4.800875 12.27973-.08685.27329-.103373.3099-.114399.2545zM95.55885 229.5396c0-.0545-.06515-.0641-.106043-.0155-.01398.0168-.02901.0284-.03307.0244-.01211-.0124 2.75491-5.5365 3.227752-6.4446.681679-1.30894 1.294906-2.46074 1.304826-2.45082.0093.009-.207329.428-.47145.94059-1.112116 2.15833-2.746324 5.48747-3.861804 7.8673-.03945.0849-.05854.10995-.06045.0784zM97.550808 238.86256c-.000174-.014.0319-.0915.07274-.17077.03945-.0794.07268-.16899.07268-.19894 0-.0481-.0093-.0528-.05221-.0418-.02842.009-.05221.009-.05221 0s.232273-.4345.516117-.95026c.804952-1.46268 1.882144-3.45399 2.639235-4.87907.0718-.13481.13493-.24034.14079-.23455.009.009-.29788.60661-.67478 1.33528-.612761 1.18474-1.677945 3.2513-2.400696 4.65748-.143814.27996-.261627.49692-.261801.48229z"/><path style="fill:#fcef3c;fill-opacity:1;stroke:#fcef3c;stroke-width:.0415303;stroke-opacity:1" d="M110.48266 207.83487c2.99066-4.88522 6.449-10.03352 9.79881-14.58744 1.36724-1.85865 3.10065-4.12552 3.13127-4.09494.0109.0109-.0441.11073-.12362.22026-.0794.10964-.73215 1.00289-1.45021 1.98505-4.48791 6.13859-8.13861 11.57689-11.28428 16.80937-.2053.34156-.22688.36337-.35815.36337h-.13975z"/><path style="fill:#fcef3c;fill-opacity:1;stroke:#fcef3c;stroke-width:.0110399;stroke-opacity:1" d="M96.851958 219.13152c-.0093-.009-.02263-.018-.03306-.0197-.02204 0 0-.0435.564382-1.30075 1.577475-3.48579 3.03249-6.55321 5.0103-10.56247l.24643-.49942h.0423c.0238 0 .0423 0 .0423.009 0 0-.23663.47888-.52581 1.05713-1.7311 3.46176-3.228804 6.61577-4.645938 9.78419-.211621.47319-.621754 1.39933-.673558 1.52137-.01165.0267-.01507.0284-.02668.014z"/><path style="fill:#fcef3c;fill-opacity:1;stroke:#fcef3c;stroke-width:.0156128;stroke-opacity:1" d="M103.10131 205.84129c2.52409-5.04887 5.83027-11.21077 8.53204-15.90166l.0831-.14443h.12994c.12995 0 .13001 0 .1115.0348-.0104.0191-.164.28456-.34168.58946-2.8671 4.91805-5.7374 10.16503-8.26334 15.10542-.21957.42939-.44709.87728-.50562.99528-.0984.19856-.10969.21469-.14967.21469-.0424 0-.036-.014.40364-.89382z"/><path style="fill:#fcef3c;fill-opacity:1;stroke:#fcef3c;stroke-width:.0624515;stroke-opacity:1" d="M111.88506 189.55317c.068-.11151.48189-.8212.92056-1.5769 6.82625-11.75806 14.15231-22.3559 20.44172-29.57069 2.20168-2.5256 5.2333-5.5937 7.1756-7.26173.96807-.83129 1.12307-.92527 1.58408-.95944l.39777-.029-.5334.28437c-.93291.49738-1.76866 1.2286-4.27802 3.74323-2.34049 2.34531-3.00772 3.05907-4.64825 4.97248-5.58965 6.51961-12.5887 16.59826-19.2911 27.77915-.71422 1.19154-1.38064 2.31381-1.48077 2.49404-.1166.20971-.22351.32793-.29666.32793-.10918 0-.10878-.009.009-.20291zM143.31034 179.46599c0-.0905 6.11289-6.22515 7.38628-7.41192 2.20544-2.05543.2332-.0435-5.99677 6.11632-.76421.75563-1.38951 1.33859-1.38951 1.2956z"/><path style="fill:#fcef3c;fill-opacity:1;stroke:#fcef3c;stroke-width:.124903;stroke-opacity:1" d="M161.95717 158.57241c.78969-.89938.81533-1.78132.0803-2.74464-.24197-.31674-.40445-.57604-.36106-.57604.10064 0 2.23218 1.74124 2.27667 1.85986.0342.0907-2.14731 1.88731-2.29118 1.88731-.0435 0 .0896-.19195.29568-.42649z"/><path style="fill:#fcef3c;fill-opacity:1;stroke:#fcef3c;stroke-width:.0624515;stroke-opacity:1" d="M161.45028 155.21693c-.23465-.26117-.87583-.7169-1.55021-1.10203-2.28955-1.30692-6.63783-2.67323-11.46875-3.60389-.89563-.17252-.71323-.20831.32572-.0641 1.07348.14925 2.0911.36646 4.07709.86987 4.72569 1.19802 6.0145 1.72209 8.15659 3.31667.5261.39164.65424.51647.62228.60644-.0377.10592-.0481.10437-.16272-.0238z"/><path style="fill:#fcef3c;fill-opacity:1;stroke:#fcef3c;stroke-width:.0312257;stroke-opacity:1" d="M154.78455 164.69934c.0273-.0441 1.56013-1.32199 2.71783-2.26558 2.36972-1.93123 3.14486-2.58692 3.71974-3.14626.29667-.2886.3498-.32856.36403-.27427.0109.0394.0424.0641.084.0641.0464 0-.13729.16533-.58254.52407-.35775.28825-1.19838.96557-1.86816 1.50519-1.4574 1.17401-2.67062 2.16547-3.6764 3.00436-.68888.57453-.80612.66543-.75883.58897zM151.60292 171.26553c-.0163-.0424.009-.0822.084-.15112.47946-.42305.74573-.64634.7571-.63491.009.009-.17369.20036-.40254.42853-.34731.34659-.4197.40559-.43838.35756z"/><path style="fill:#fcef3c;fill-opacity:1;stroke:#fcef3c;stroke-width:.02208;stroke-opacity:1" d="M165.11276 170.66495c.009-.15785.0244-.56026.0424-.89422.10002-1.89063.14832-3.68743.14909-5.531 0-2.57553-.084-3.53062-.32642-3.68992-.0935-.0614-.23204-.0641-.34324-.009-.45162.22785-2.46851 1.80319-6.14405 4.79878-.92091.75059-1.67916 1.35994-1.68497 1.35419-.0155-.0155 1.32983-1.11727 4.81672-3.94529 1.12934-.91592 2.37007-1.92251 2.75717-2.23658.38698-.31413.71086-.56293.71949-.55283.0163.0191.13807.91952.17735 1.30993.0879.87067.12316 2.4561.0905 4.05172-.0244 1.18487-.0651 2.37124-.11275 3.26778-.0418.78053-.11136 1.91973-.13155 2.14168l-.0197.22097z"/><path style="fill:#fcef3c;fill-opacity:1;stroke:#fcef3c;stroke-width:.0441598;stroke-opacity:1" d="M120.1452 272.76646c0-.018 1.39283-3.437 2.25567-5.5368.46142-1.12273.65274-1.4759.29023-.53561-.35717.92632-.6029 1.67946-.6029 1.84763 0 .19533.10528.31261.28048.31261.24103 0 .73128-.57993 1.74658-2.06655.25268-.36993.46889-.66318.48032-.65169.0227.0227-.19271.35892-1.71391 2.67415-1.02667 1.56245-1.97346 2.96509-2.43667 3.61005-.23564.32816-.2998.40218-.2998.34621zM46.93148 262.80446c0-.0365-.09346-.64258-.202108-1.34699-.206402-1.33221-.254259-1.82101-.103668-1.0598.04815.24288.116418.48629.151813.54095.07083.1098.273518.13542.362739.0464.06706-.0671.06891-.12082-.03771.84498-.0793.71794-.159761 1.17529-.171072.9744z"/><path style="fill:#fcef3c;fill-opacity:1;stroke:#fcef3c;stroke-width:.0883196;stroke-opacity:1" d="M77.519327 244.58848c.03133-1.23865.05569-6.20665.05569-11.04 0-4.83331.02553-8.37043.05569-7.86034.356532 5.92087.313951 14.91479-.09578 20.22506-.0435.5675-.04988.0528-.01624-1.32472zM60.308656 180.47815c0-.15558.599247-1.31231.717761-1.38564.143519-.0887.312212.16812.472262.71887.175945.60499.176062.60453-.115098.38924-.306121-.2263-.64461-.16717-.899683.15716-.09642.12238-.175248.17664-.175248.12036zM56.073497 167.87181c-.01211-.30165.71196-1.6229.889936-1.6229.09067 0 .519308.89586.518729 1.08445-.000174.0595-.0793-.0221-.175307-.17919-.09629-.1578-.226414-.28704-.28924-.28704-.217596 0-.510374.27891-.724722.69045-.118406.22744-.21725.36876-.219396.31423zM59.072108 175.99541c0-.0314.119275-.42939.26505-.88425.145724-.45493.267658-.99565.271024-1.20146l.0093-.37446.129355.42081c.129138.42016.128781.42186-.23964 1.25854-.33791.76742-.431945.93756-.431945.78082zM59.379969 164.26305c-.23268-.60922-.405086-1.12569-.383042-1.14779.02146-.0214.188128-.10204.369003-.17769l.32886-.13729-.06706.24509c-.0916.33304-.05686.82746.112659 1.59901.07837.35595.124541.66508.102736.68689-.02146.0214-.229954-.45898-.462749-1.06814zM77.899178 168.73698c-.05569-.18673-.218872-.51385-.362099-.72717-.143224-.21329-.246719-.40142-.230011-.41824.01682-.0168.169216.0604.33878.17165.277753.18209.31401.25338.367089.72205.06984.62025.02668.71806-.113762.25171z"/><path style="fill:#fcef3c;fill-opacity:1;stroke:#fcef3c;stroke-width:.0156128;stroke-opacity:1" d="M77.254568 250.24029c0-.0604.0093-.22513.01336-.36685.03423-.57645.122925-2.73037.151284-3.65337l.01211-.38252.01625.16394.01625.16388.05105-.00006c.04814-.00024.05105 0 .05105.0558 0 .16458-.211273 3.0257-.288137 3.90188-.01506.17671-.01972.2024-.02146.1171zM81.329154 250.78292c0-.0197-.01211-.0348-.02553-.0348-.01336 0-.02378-.009-.02378-.0163 0-.009.0319-.21457.07077-.45677.279086-1.73015.75251-4.83469 1.053873-6.91191.05279-.3649.09902-.66649.10244-.67009.03133-.0331.03481-.0595-.735396 5.15875-.442618 2.99872-.440529 2.98486-.443256 2.93137zM79.526658 256.59498c-.02727-.0208-.02552-.0498.04989-.82253.0435-.44081.084-.86117.09061-.93414.0093-.0727.01398-.12099.01682-.10654 0 .0197-.109413 1.6989-.125363 1.85018 0 .0301-.0093.0318-.0319.014z"/><path style="fill:#fcef3c;fill-opacity:1;stroke:#fcef3c;stroke-width:.00551998;stroke-opacity:1" d="M75.240914 268.98749c-.02378-.0944-.02263-.58887 0-1.19849l.0093-.18221v.16011c0 .0877-.0093.32405-.0093.52441-.0093.40282 0 .4983.01624.51745.01506.0155.03597.009.04524-.0109 0-.009.01398-.0424.02263-.0764.0093-.0331.01624-.0545.01624-.0481 0 .0191-.03597.20032-.05105.25531-.02263.0822-.03654.0997-.04698.0586z"/><path style="fill:#fcef3c;fill-opacity:1;stroke:#fcef3c;stroke-width:.353276;stroke-opacity:1" d="M103.22157 54.140813c-2.70394-4.46138-3.966652-9.872193-3.960619-16.971048v-3.948801l1.453219 2.296262c.79927 1.262989 2.38957 3.595693 3.53406 5.183935 3.59003 4.981791 5.2149 9.368867 5.24419 14.158052l.009 1.148182h-5.15002zM111.30443 46.636165c-.24341-.824337-1.3188-2.967551-2.38973-4.76275-1.68132-2.818186-1.91614-3.429615-1.7196-4.477433.12519-.667507 1.54812-4.662009 3.16208-8.876679 1.61391-4.214675 3.01613-7.901565 3.11602-8.193027.20867-.608506.0585-1.15658 2.07979 7.595475.83135 3.599847 1.53913 7.661943 1.63137 9.361884.16063 2.963298.14769 3.021455-.98252 4.415964-.62988.777222-1.88992 2.543155-2.8001 3.924251l-1.65469 2.511145zM115.04882 56.452276c-1.72395-.107628-2.0234-.223294-1.88556-.728037.0897-.329979.35937-1.47447.59831-2.543055.92301-4.127816 2.41416-6.495547 7.9317-12.594264 1.55578-1.719669 3.18024-3.603622 3.60991-4.18654.42969-.582916.78623-.841706.79243-.575171.0255 1.117777-1.13486 8.144211-1.64146 9.937147-1.41 4.989913-5.048 11.0148-6.57251 10.884788-.4309-.03684-1.70568-.124432-2.83282-.194868z"/><path style="fill:#fcef3c;fill-opacity:1;stroke-width:.0883196" d="M103.00083 142.12649c-1.55463-2.3413-1.99725-2.81147-4.447894-4.72535-3.65668-2.85595-4.196814-3.33577-4.826748-4.28757-.178382-.26955-.737078-.98742-1.241653-1.59533-2.501635-3.01408-3.636085-4.84742-4.584786-7.40898-1.612977-4.35549-1.970031-5.2991-2.19685-5.8045-.140848-.31405-.256231-.58625-.256231-.60494 0-.0186.339418.18727.754191.45768 1.14263.74477 3.484158 1.83516 6.620543 3.08295 3.755239 1.494 4.71734 1.96194 5.343329 2.59902 3.008309 3.06141 4.987739 7.4271 5.608339 12.36958.16115 1.28329.27381 6.19786.15587 6.80059l-.0774.39743zM107.26245 143.38224c0-.62012.28709-3.23083.52174-4.7609.74277-4.84223 2.20155-8.48335 4.57568-11.42089.60284-.74588 2.29344-2.41979 3.02344-2.99371.90734-.71324 2.22876-1.28567 5.96532-2.58415 1.83741-.63848 2.15786-.72251 3.35619-.87993.7286-.0957 1.73908-.23189 2.24546-.3026.50631-.0707.95195-.1286.99023-.1286.085 0-.25315.79576-1.52236 3.58832-2.04336 4.49546-3.43811 6.66367-5.81791 9.04381-1.66229 1.66245-2.89315 2.58252-6.03598 4.51151-1.05967.65051-2.26791 1.4382-2.68477 1.75047-1.13596.85084-2.29889 2.00733-3.38316 3.36471-.53416.66875-1.0305 1.23863-1.10295 1.26648-.10732.0418-.13163-.0435-.13093-.45457z"/></svg>