<?xml version="1.0" encoding="UTF-8" standalone="no"?>
<!-- Created with Inkscape (http://www.inkscape.org/) -->

<svg
   width="210mm"
   height="297mm"
   viewBox="0 0 210 297"
   version="1.1"
   id="svg2430"
   sodipodi:docname="logo.svg"
   inkscape:version="1.1.1 (1:1.1+202109281949+c3084ef5ed)"
   xmlns:inkscape="http://www.inkscape.org/namespaces/inkscape"
   xmlns:sodipodi="http://sodipodi.sourceforge.net/DTD/sodipodi-0.dtd"
   xmlns="http://www.w3.org/2000/svg"
   xmlns:svg="http://www.w3.org/2000/svg">
  <sodipodi:namedview
     id="namedview2432"
     pagecolor="#ffffff"
     bordercolor="#666666"
     borderopacity="1.0"
     inkscape:pageshadow="2"
     inkscape:pageopacity="0.0"
     inkscape:pagecheckerboard="0"
     inkscape:document-units="mm"
     showgrid="false"
     inkscape:zoom="0.38625095"
     inkscape:cx="54.368798"
     inkscape:cy="638.18613"
     inkscape:window-width="1838"
     inkscape:window-height="1016"
     inkscape:window-x="82"
     inkscape:window-y="27"
     inkscape:window-maximized="1"
     inkscape:current-layer="layer1" />
  <defs
     id="defs2427" />
  <g
     inkscape:label="Layer 1"
     inkscape:groupmode="layer"
     id="layer1">
    <path
       style="fill:#000000;stroke-width:0.368069"
       d="m 97.583442,118.21246 c -7.48805,-1.02421 -12.50551,-2.68164 -13.86697,-4.58083 -0.65547,-0.91434 0.41641,-8.39676 1.25985,-25.94669 11.94455,5.1443 29.510458,6.20322 46.175828,3.19285 -0.99261,20.65381 -0.59475,25.90547 -4.16875,26.42794 -5.45418,0.79729 -18.59531,2.38448 -29.399948,0.90673 z m 23.025798,-2.46604 c 2.149,-0.27802 4.54244,-0.73664 5.31874,-1.01906 l 1.41146,-0.51358 0.20542,-4.27432 c 0.20509,-4.26728 0.20404,-4.27396 -0.63752,-4.04803 -4.23317,1.13658 -13.0823,1.76364 -20.0581,1.42138 -6.8188,-0.33457 -16.968378,-2.04599 -19.789138,-3.33682 -0.58149,-0.26609 -0.65001,0.0592 -0.83849,3.98105 l -0.20525,4.27078 1.33118,0.6288 c 1.60938,0.76017 5.97853,1.82333 10.08456,2.45398 4.960648,0.76186 18.665628,1.0196 23.177138,0.43582 z m -29.048698,-4.05236 c -0.40143,-0.43883 -0.62209,-1.04126 -0.49037,-1.33876 0.13172,-0.2975 0.24696,-0.69638 0.25609,-0.88636 0.0295,-0.61339 1.88241,-1.00578 2.63533,-0.55807 1.01847,0.60563 1.21352,2.12845 0.37912,2.95998 -0.88901,0.88594 -1.86473,0.8239 -2.78017,-0.17679 z m 29.612088,-7.67049 c 2.14901,-0.27805 4.54244,-0.73664 5.31874,-1.0191 l 1.41147,-0.51357 0.20542,-4.274322 c 0.20508,-4.267318 0.20403,-4.273968 -0.63753,-4.048028 -4.23316,1.136578 -13.08229,1.763638 -20.0581,1.421378 -6.81879,-0.33458 -16.968378,-2.045988 -19.789138,-3.336818 -0.66319,1.61184 -0.87068,4.650878 -1.04374,8.25183 l 1.33119,0.62879 c 1.60937,0.76017 5.97852,1.82334 10.08455,2.45399 4.960648,0.76186 18.665638,1.01959 23.177138,0.43585 z M 92.123932,99.971138 c -0.40142,-0.43879 -0.62209,-1.04122 -0.49037,-1.33872 0.13172,-0.2975 0.24696,-0.69638 0.2561,-0.88637 0.0295,-0.61338 1.8824,-1.00577 2.63532,-0.55806 1.01848,0.60563 1.21352,2.12844 0.37912,2.959982 -0.88901,0.88594 -1.86473,0.8239 -2.78017,-0.176832 z"
       id="path1188-6-3-9-0-5-3-7"
       sodipodi:nodetypes="ssccsssscssssscssssssssssscsssccsssssssss" />
    <path
       style="fill:#000000;stroke-width:0.365841"
       d="m 98.552102,106.40473 c -7.39728,-1.01982 -12.35335,-2.67433 -13.69732,-4.57268 -0.64705,-0.91394 -0.63957,-1.61698 0.20387,-19.16694 0.84344,-17.54997 0.90341,-18.25049 1.63512,-19.09816 1.11812,-1.29536 3.92761,-2.20622 8.81241,-2.85704 3.72093,-0.49576 5.705598,-0.51186 13.995108,-0.11347 8.28951,0.39839 10.26349,0.60474 13.91972,1.45503 4.79988,1.11627 7.50907,2.29235 8.49782,3.68896 0.64701,0.9139 0.63957,1.61678 -0.20233,19.13483 -0.99261,20.65381 -0.71939,19.28669 -4.118,20.60578 -5.08217,1.97253 -18.37274,2.39518 -29.046398,0.92369 z m 22.749908,-2.47926 c 2.12329,-0.27929 4.48816,-0.73925 5.25528,-1.02216 l 1.39476,-0.51438 0.20542,-4.274312 c 0.20508,-4.267288 0.20394,-4.273968 -0.6275,-4.047548 -4.18285,1.138998 -12.92576,1.771158 -19.81736,1.432948 -6.73647,-0.33062 -16.762838,-2.036108 -19.548878,-3.325268 -0.57433,-0.26575 -0.64222,0.0596 -0.8307,3.981418 l -0.20525,4.270782 1.31479,0.62801 c 1.58956,0.75921 5.90547,1.81982 9.96169,2.44807 4.900458,0.75897 18.440238,1.00877 22.897748,0.42244 z M 92.605502,99.889988 c -0.39633,-0.43858 -0.61399,-1.04086 -0.48369,-1.33843 0.13031,-0.29757 0.2444,-0.6965 0.25353,-0.88649 0.0295,-0.61339 1.86032,-1.00684 2.60391,-0.55957 1.00586,0.60501 1.19768,2.12768 0.37284,2.959672 -0.87882,0.88643 -1.84275,0.82496 -2.74659,-0.175182 z M 121.8654,92.20258 c 2.12329,-0.27929 4.48816,-0.73925 5.25528,-1.02215 l 1.39476,-0.51438 0.20542,-4.27431 c 0.20509,-4.26733 0.20404,-4.27397 -0.6275,-4.04755 -4.18284,1.139 -12.92576,1.77116 -19.81736,1.43295 -6.73647,-0.33062 -16.762838,-2.03612 -19.548878,-3.32528 -0.57433,-0.26574 -0.64222,0.0596 -0.83069,3.98142 l -0.20525,4.27079 1.31479,0.628 c 1.58955,0.75922 5.90547,1.81983 9.96168,2.44808 4.900458,0.75897 18.440248,1.00877 22.897748,0.42243 z M 93.168902,88.16707 c -0.39634,-0.43854 -0.614,-1.04083 -0.4837,-1.33839 0.13031,-0.29757 0.2444,-0.69651 0.25353,-0.88649 0.0295,-0.61339 1.86032,-1.00684 2.60391,-0.55958 1.00586,0.60502 1.19768,2.12768 0.37285,2.95968 -0.87882,0.88643 -1.84276,0.82495 -2.74659,-0.17522 z M 122.4288,80.4797 c 2.12328,-0.27929 4.48816,-0.73928 5.25528,-1.02215 l 1.39476,-0.51438 0.20542,-4.27432 c 0.20508,-4.26732 0.20403,-4.27396 -0.62751,-4.04754 -4.18284,1.13899 -12.92576,1.77116 -19.81735,1.43291 -6.73648,-0.33062 -16.762848,-2.03608 -19.548878,-3.32524 -0.57434,-0.26574 -0.64222,0.0596 -0.8307,3.98142 l -0.20525,4.27078 1.31479,0.62798 c 1.58955,0.75925 5.90547,1.81986 9.96169,2.44807 4.900458,0.75901 18.440238,1.0088 22.897748,0.42247 z M 93.732292,76.44419 c -0.39634,-0.43855 -0.614,-1.04083 -0.48369,-1.33843 0.13031,-0.29757 0.24439,-0.69647 0.25352,-0.88646 0.0295,-0.61338 1.86032,-1.00684 2.60391,-0.55957 1.00586,0.60502 1.19768,2.12768 0.37285,2.95968 -0.87882,0.88643 -1.84275,0.82492 -2.74659,-0.17522 z m 28.341038,-7.57295 c 3.98274,-0.48592 7.18399,-1.24373 7.20619,-1.70587 0.009,-0.18587 -0.76137,-0.61133 -1.71179,-0.94548 -8.26433,-2.90546 -24.75377,-3.97396 -34.305018,-2.22291 -3.69471,0.67734 -4.52847,1.0386 -3.73113,1.61659 0.85701,0.62123 6.75473,2.16643 10.28283,2.69406 4.709048,0.70425 18.288248,1.04808 22.258918,0.56361 z"
       id="path1188-5-1-9-3-56-5" />
    <path
       style="fill:#4382ca;fill-opacity:1;stroke:#4382ca;stroke-width:0.104486;stroke-opacity:1"
       d="m 100.35174,115.59246 c -4.675478,-0.41976 -10.612208,-1.7364 -13.303558,-2.95028 l -0.98412,-0.44382 0.22476,-3.97533 c 0.25523,-4.51466 0.23111,-4.4098 0.94451,-4.11621 3.46442,1.42576 15.005928,3.22027 21.356348,3.32048 6.81664,0.10757 13.61859,-0.39935 17.58756,-1.31081 1.0421,-0.23932 1.15747,-0.24723 1.30055,-0.0899 0.13601,0.14964 0.13757,0.67597 0.0116,3.93238 l -0.14545,3.75952 -0.27242,0.32256 c -0.33108,0.39195 -1.22386,0.70849 -3.01218,1.06783 -3.516,0.70646 -5.92289,0.88969 -11.90731,0.90603 -2.13617,0.006 -10.27524,-0.28556 -11.80028,-0.4225 z m -6.416858,-3.3313 c 0.58931,-0.34524 0.91508,-0.88662 0.94787,-1.57542 0.0339,-0.70456 -0.22654,-1.32555 -0.7086,-1.69193 -0.3075,-0.23373 -0.43418,-0.26142 -1.18147,-0.25824 -0.92252,0.004 -1.48152,0.19331 -1.64087,0.55594 -0.0546,0.12409 -0.16721,0.46819 -0.25043,0.76486 -0.1978,0.70509 -0.087,1.10307 0.4768,1.71216 0.74864,0.80884 1.53592,0.97347 2.3567,0.49263 z"
       id="path20017-8-6-91-5" />
    <path
       style="fill:#4382ca;fill-opacity:1;stroke:#4382ca;stroke-width:0.104486;stroke-opacity:1"
       d="m 99.457712,103.72294 c -4.48701,-0.52606 -10.02113,-1.88338 -12.34506,-3.02782 l -0.50125,-0.24682 0.19519,-2.681002 c 0.24121,-3.313248 0.61832,-5.402238 0.96533,-5.347978 0.0802,0.0123 0.58619,0.16471 1.12441,0.33822 2.29059,0.73825 6.96002,1.64143 11.659868,2.255408 2.74537,0.35862 8.97164,0.74286 11.57702,0.71446 5.92203,-0.0646 10.53414,-0.46797 14.129,-1.235638 1.80678,-0.38586 1.77253,-0.38532 1.8534,-0.0298 0.0378,0.16619 -0.0144,2.031758 -0.116,4.145598 l -0.18471,3.843492 -0.74558,0.27736 c -0.99876,0.37156 -2.14997,0.63885 -4.20615,0.97674 -2.7651,0.45441 -5.51977,0.60175 -10.87983,0.5821 -2.09611,-0.008 -11.32422,-0.42341 -12.525698,-0.56414 z m -5.20939,-3.04912 c 0.44176,-0.20502 0.95958,-0.754822 1.12261,-1.191942 0.27834,-0.74628 0.008,-1.69331 -0.63303,-2.21742 -0.35309,-0.28871 -0.9626,-0.38401 -1.70505,-0.26675 -0.83865,0.13248 -1.1379,0.42104 -1.35605,1.30769 -0.15568,0.6327 -0.15414,0.71651 0.02,1.09929 0.4886,1.074052 1.68724,1.670272 2.55157,1.269132 z"
       id="path21801-9-2-27-6" />
    <path
       style="fill:#4382ca;fill-opacity:1;stroke:#4382ca;stroke-width:0.104486;stroke-opacity:1"
       d="m 102.83682,103.69409 c -5.159718,-0.55983 -10.275398,-1.59124 -14.141788,-2.85126 l -1.44192,-0.46985 0.1443,-3.576292 c 0.0794,-1.967008 0.19263,-3.794838 0.25137,-4.061828 0.13113,-0.59486 0.0974,-0.5948 2.01114,0.002 3.34139,1.04208 9.27877,2.05034 15.365088,2.609208 6.82948,0.62721 16.55865,0.1562 21.80913,-1.055708 0.9717,-0.22429 1.11932,-0.23527 1.25087,-0.0929 0.1263,0.13665 0.12475,0.773558 -0.0101,4.156828 l -0.15922,3.995382 -0.94197,0.33343 c -1.37464,0.48659 -2.77292,0.75016 -5.20158,0.98035 -4.84201,0.45885 -8.1999,0.54685 -13.35418,0.34993 -2.2397,-0.0858 -4.75126,-0.22834 -5.58111,-0.31951 z m -8.245368,-3.06655 c 0.82239,-0.29806 1.25088,-0.884192 1.29428,-1.770402 0.0335,-0.69709 -0.26217,-1.37612 -0.74517,-1.70765 -0.54597,-0.37484 -1.90174,-0.32918 -2.46387,0.083 -0.3441,0.25226 -0.6921,1.348 -0.58262,1.83445 0.16366,0.72716 1.18261,1.650392 1.86493,1.689832 0.131,0.006 0.41553,-0.0507 0.63245,-0.12927 z"
       id="path21840-7-9-0-2" />
    <path
       style="fill:#4382ca;fill-opacity:1;stroke:#4382ca;stroke-width:0.104486;stroke-opacity:1"
       d="M 101.72388,92.02575 C 96.964132,91.6159 90.865242,90.22387 88.444162,88.99472 l -0.69123,-0.35087 0.2218,-3.95025 c 0.16911,-3.01328 0.25525,-3.98681 0.36276,-4.10432 0.12591,-0.13756 0.22464,-0.12306 0.92252,0.13607 2.33572,0.8672 7.89454,1.94387 13.570478,2.62822 7.79658,0.94014 18.29744,0.60686 24.54246,-0.77889 0.99367,-0.22046 1.21458,-0.24078 1.28272,-0.11761 0.16149,0.2917 0.15261,1.24734 -0.0436,4.68938 l -0.19889,3.48942 -0.85221,0.31957 c -1.00035,0.3751 -3.39536,0.871 -5.54706,1.14848 -2.59243,0.3344 -6.25809,0.42888 -12.20181,0.31475 -3.89107,-0.0747 -5.04516,-0.13089 -8.08794,-0.39711 z m -6.092698,-3.35726 c 1.04131,-0.71785 1.11889,-2.36351 0.15025,-3.17881 -0.31008,-0.26083 -0.44505,-0.30154 -1.06249,-0.32053 -0.51962,-0.0157 -0.84109,0.0378 -1.21175,0.20333 -0.48831,0.21776 -0.51127,0.24793 -0.71747,0.94261 -0.31111,1.04815 -0.0935,1.65936 0.82372,2.31319 0.40225,0.2867 0.54344,0.32989 1.04651,0.32027 0.43347,-0.009 0.68084,-0.0796 0.97161,-0.28004 z"
       id="path21879-3-1-9-9" />
    <path
       style="fill:#4382ca;fill-opacity:1;stroke:#4382ca;stroke-width:0.104486;stroke-opacity:1"
       d="M 101.24505,80.22285 C 96.522582,79.66201 91.044422,78.32529 88.811912,77.18895 l -0.48503,-0.24688 0.17909,-3.67391 c 0.15837,-3.24291 0.26916,-4.34273 0.45596,-4.51234 0.0291,-0.0263 0.44582,0.0929 0.92602,0.26471 2.35011,0.84217 6.86699,1.74214 12.611578,2.51303 2.65137,0.35578 9.90221,0.73494 12.46917,0.65223 4.58755,-0.14822 9.38134,-0.60022 11.92694,-1.12462 2.29373,-0.47244 2.2123,-0.46147 2.3453,-0.31517 0.0918,0.10093 0.0742,1.12157 -0.0715,4.15279 l -0.19315,4.01897 -0.74554,0.27653 c -1.47311,0.54651 -4.78339,1.17054 -7.23108,1.36316 -1.61381,0.12701 -5.04119,0.20646 -8.11608,0.18825 -2.24841,-0.0134 -10.45234,-0.38176 -11.63855,-0.52235 z m -5.536218,-3.02741 c 1.15704,-0.3748 1.71031,-1.96043 1.03598,-2.96909 -0.49716,-0.74362 -1.25729,-0.9684 -2.35976,-0.69793 -0.67115,0.16474 -0.8185,0.32389 -1.06728,1.15273 -0.19976,0.66556 -0.19953,0.67414 0.0335,1.22034 0.44289,1.03789 1.44675,1.58893 2.35756,1.29395 z"
       id="path21918-6-2-36-1" />
    <path
       style="fill:#59b8ca;fill-opacity:1;stroke:#43a8ca;stroke-width:0.104486;stroke-opacity:1"
       d="m 101.99806,68.49966 c -1.01314,-0.0932 -2.556418,-0.30439 -3.429488,-0.4691 -3.9991,-0.75469 -8.41331,-1.98697 -9.067,-2.5311 -0.23953,-0.19943 -0.24014,-0.20619 -0.0366,-0.41047 0.54247,-0.54441 5.25337,-1.40121 9.34627,-1.69982 6.378038,-0.46524 15.269618,0.005 21.755208,1.15072 3.85043,0.6802 8.08079,1.9266 8.51958,2.51026 0.16822,0.22367 -0.0944,0.37138 -1.24684,0.70108 -1.63445,0.46763 -4.52049,0.95995 -6.72363,1.14692 -3.54734,0.30103 -13.85203,0.0863 -19.11751,-0.39849 z"
       id="path21957-1-7-0-2" />
    <path
       d="m 101.90644,144.6745 -0.97747,-1.7602 c -1.679058,-3.02333 -2.506458,-4.17321 -4.184758,-5.52607 -3.60024,-2.90166 -8.67596,-5.0143 -12.59485,-15.81546 -2.24279,-6.18124 -3.45538,-9.30892 -5.37083,-12.13418 -0.83482,-1.23146 -1.65149,-1.95657 -1.5998,-2.00302 0.051,-0.0462 0.9473,-1.70871 1.06367,-1.04687 l 0.99244,-0.71302 2.03274,1.92861 c 6.54049,6.28425 15.69144,11.12329 24.623538,10.07623 9.28194,2.82186 26.7558,-8.47845 26.79385,-8.50791 l 1.18928,-1.40082 1.06536,0.83028 0.85193,0.81508 -0.5808,1.00117 c -2.45239,4.2278 -4.5378,6.37055 -7.76189,13.53076 -3.87602,8.60832 -9.815,10.68752 -12.97476,13.33822 -3.61683,3.03364 -4.00225,3.42498 -5.325,5.40446 l -1.32698,1.98594 m 0.45886,-5.42119 c 0.64316,-0.81406 2.00095,-2.08054 3.01712,-2.81431 3.5888,-2.59142 9.47627,-4.44818 13.73979,-13.79462 1.44829,-3.17479 2.59962,-5.80953 2.55843,-5.85485 -0.13977,-0.1539 -11.11669,3.2305 -12.66527,4.42002 -5.10491,3.92105 -7.52429,8.98447 -8.3605,17.49689 -0.33084,3.36861 -0.48143,3.3207 1.71043,0.54687 z m -5.09586,-2.88108 c -0.0522,-6.10505 -2.1298,-11.48665 -5.935748,-15.37293 -1.28852,-1.31576 -8.54236,-3.31358 -11.85887,-5.53913 l -0.93048,-0.62436 0.46431,1.02949 c 0.25542,0.56621 1.17314,3.01721 2.03947,5.44689 1.81804,5.09877 4.90407,7.47537 6.09317,9.46851 0.8006,1.34192 4.51216,3.70465 6.79266,5.77346 0.590198,0.53543 1.532178,1.73072 2.093488,2.65616 0.56125,0.92555 1.10225,1.69031 1.20244,1.69948 0.1061,-1.44934 0.0296,-2.40946 0.0395,-4.53757 z"
       style="fill:#000000;stroke-width:0.0660941"
       id="path26194-0-6-7"
       sodipodi:nodetypes="cscsssccccccccsssscsssssssssscssssscss"
       inkscape:export-filename="/home/alex/Documents/ds/site_pro/flask/site_freelance/app/static/images/logo.png"
       inkscape:export-xdpi="96"
       inkscape:export-ydpi="96" />
    <path
       d="m 95.673982,65.667 c 1.26729,0.74776 -6.01828,-4.67891 -6.55749,-5.33198 -4.21421,-5.10538 -4.23516,-5.03929 -4.22924,-5.09291 0.0209,-0.14475 1.97055,-1.37288 2.1621,-1.35873 0.0585,2e-4 0.57007,0.70557 1.13602,1.55785 1.36515,2.05682 3.47859,3.99714 7.83261,7.19128 l 3.59902,2.6404 -0.71945,-1.3353 c -2.10177,-3.90065 -3.46234,-8.57663 -3.77357,-12.96852 -0.10263,-1.44974 -0.13877,-4.94299 -0.0802,-7.76306 0.11451,-5.52468 -0.0689,-9.78109 -0.50683,-11.73481 -0.15071,-0.67308 -0.26906,-1.30632 -0.26302,-1.40725 0.0121,-0.15181 0.46292,-0.26417 2.49102,-0.61521 0.0389,-0.0104 0.41315,1.2797 0.83366,2.85841 0.96257,3.61363 2.29838,7.09073 3.765758,9.80185 1.45768,2.69356 1.73526,2.97595 2.01737,2.05277 0.57633,-1.88594 0.98878,-2.98474 2.6383,-7.02738 2.20225,-5.39741 3.19527,-8.2256 4.11421,-11.71763 0.77038,-2.92704 1.55775,-7.29146 1.72836,-9.57809 l 0.10691,-1.43246 1.37003,0.10168 1.37026,0.10168 -0.1253,1.68303 c -0.18563,2.49406 0.0906,7.78251 0.57866,11.09722 0.23645,1.60411 1.11281,5.7273 1.94734,9.16257 0.8346,3.43557 1.59192,6.9917 1.68282,7.90318 0.0906,0.91148 0.23941,1.75668 0.32991,1.87838 0.56102,0.75381 5.44491,-7.01426 7.28778,-11.5912 l 1.16949,-2.90457 0.73522,0.21772 c 0.40439,0.12 0.96727,0.32535 1.25087,0.45706 l 0.51561,0.23906 -0.59282,1.86242 c -0.67118,2.10847 -1.32078,6.03744 -2.25144,13.61753 -1.03427,8.42387 -2.72155,13.07465 -6.58887,18.1619 -0.52528,0.69073 -0.85257,0.83736 3.60268,-1.61412 4.5074,-2.47999 7.04425,-4.26169 8.47588,-5.9536 0.66956,-0.79101 1.31365,-1.43444 1.43123,-1.42953 0.1171,0.0113 0.62188,0.38426 1.12076,0.84378 l 0.90705,0.8351 -1.76885,1.89264 c -3.40996,2.62596 -6.69393,4.71252 -9.91929,6.54803 m -7.54268,-0.98606 c 3.39882,-3.87015 5.65485,-8.29037 6.73592,-13.20163 0.81007,-3.6801 1.50816,-9.91062 1.04419,-9.31921 -0.1923,0.2452 -0.92347,1.20539 -1.62446,2.13359 -0.70106,0.92809 -2.63762,3.10785 -4.30344,4.84385 -4.53107,4.72168 -6.0231,7.48652 -7.01681,13.0044 -0.0969,0.53769 -0.19915,1.26874 -0.29876,2.09856 3.66689,0.28258 0.82334,0.034 5.46336,0.44015 z m -8.65995,-0.76476 c 0.0888,-7.42421 -1.00005,-10.58389 -5.41144,-16.46498 -1.14924,-1.53226 -2.7479,-3.90566 -3.552388,-5.27438 l -1.46279,-2.48868 -0.10216,3.49938 c -0.25762,8.86781 1.0584,14.10509 5.271758,20.37593 3.68145,0.30354 1.0537,0.1116 5.25666,0.35245 z m 2.47831,-8.38856 c 0.0511,-0.6862 2.37285,-4.34846 3.68905,-5.81878 1.18869,-1.32794 1.49411,-1.84769 1.66275,-2.82933 0.34574,-2.01282 -0.0557,-4.80882 -1.61176,-11.21287 -0.81812,-3.3674 -1.62423,-6.96111 -1.79142,-7.98598 l -0.3042,-1.86346 -0.89806,2.69922 c -0.49407,1.48467 -1.81984,4.96961 -2.94634,7.74446 -1.12645,2.77457 -2.25863,5.76836 -2.51602,6.65265 -0.8096,2.78193 -0.77044,3.02288 0.88048,5.42516 1.38035,2.0083 3.4016,6.28831 3.34278,7.07818 -0.014,0.19157 0.0859,0.3568 0.22317,0.36699 0.13702,0.0132 0.25832,-0.10508 0.26957,-0.25624 z"
       style="fill:#000000;stroke-width:0.0660941"
       id="path26567-9-2-0"
       inkscape:export-filename="/home/alex/Documents/ds/site_pro/flask/site_freelance/app/static/images/logo.png"
       inkscape:export-xdpi="96"
       inkscape:export-ydpi="96" />
    <path
       d="m 107.84137,144.68035 -4.5997,33.6008 c -1.90437,13.91122 -6.592828,26.6844 -7.194338,29.00039 -0.59896,2.31664 -1.01761,4.16612 -0.92451,4.11119 0.0934,-0.0545 1.26057,-2.35591 2.59405,-5.11338 13.123978,-27.13594 28.657738,-50.26019 40.400188,-60.14079 l 1.80773,-1.52132 2.84574,0.0766 c 10.60075,0.28397 17.32872,2.6976 22.61491,8.11315 l 1.49492,1.53148 0.18831,2.08037 c 0.45764,5.05652 0.18083,12.06805 -0.76016,19.25389 -0.59601,4.55174 -4.24241,18.97019 -6.09359,24.09488 -8.59334,23.7895 -21.13854,46.48888 -45.74489,82.77155 -0.38606,0.56937 -0.40741,0.56918 -1.45078,-0.0109 l -1.05898,-0.58823 0.51206,-1.724 c 0.6018,-2.0259 3.0775,-8.23904 9.28739,-23.30611 8.22215,-19.94946 10.27032,-25.67779 13.08927,-36.60884 2.20097,-8.55143 2.76756,-11.66305 3.29655,-18.23857 0.43253,-5.37593 0.31326,-12.12699 -0.29985,-16.98037 -0.139,-1.10023 -0.2868,-2.29314 -0.32846,-2.65095 -0.0671,-0.5772 -0.49976,-0.13915 -3.84022,3.90943 -10.82246,13.10917 -16.04768,19.91957 -22.1271,28.83999 -11.50456,16.88089 -21.311148,36.02167 -31.273958,61.04146 -1.19965,3.0126 -2.21326,5.48808 -2.25265,5.50119 -0.0394,0.014 -1.13155,0.30657 -2.42715,0.65214 -1.29555,0.34552 -2.75433,0.74689 -3.24179,0.89192 -0.48746,0.14505 -0.91581,0.16515 -0.95189,0.0447 v -1.2e-4 c -0.036,-0.12036 0.0511,-5.70374 0.19398,-12.40759 0.68452,-32.13945 0.31691,-41.88633 -2.14214,-56.78768 -0.97852,-5.92946 -3.49408,-16.83319 -4.81126,-20.85453 l -0.22636,-0.69073 -0.60046,0.99303 c -1.14437,1.89259 -3.78785,7.27297 -5.08252,10.34468 -2.1498,5.10085 -3.69868,9.96495 -5.06807,15.91629 -1.93221,8.39775 -2.63947,13.97045 -3.89974,30.72812 -0.93008,12.36837 -2.35574,24.2273 -2.95226,24.55698 -0.11033,0.0614 -0.73134,0.0522 -1.3792,-0.0197 l -1.1779,-0.1317 V 273.848 c 0,-0.61108 -0.17327,-3.56444 -0.38165,-6.56304 -0.34649,-4.98664 -0.80924,-8.84316 -3.18697,-26.55736 -1.49469,-11.13641 -1.84455,-20.0026 -1.12557,-28.51891 1.24757,-14.77621 5.51759,-30.17435 13.72733,-49.50275 1.96834,-4.63439 1.79309,-4.4545 5.11726,-5.25422 2.99768,-0.72101 5.34745,-0.63284 9.1484,0.34342 3.58794,0.91778 6.07368,2.03379 9.97626,4.46372 l 2.14186,1.3336 0.68168,4.88505 c 2.42837,17.40269 3.94255,32.2648 4.90721,48.16341 l 0.31018,5.11156 8.9862,-34.71428 7.343008,-42.34144 m -24.681938,125.9195 c 0.28854,-1.84033 0.32074,-2.66605 0.0988,-2.53529 -0.16522,0.0972 -0.60986,4.14478 -0.4595,4.1837 0.0539,0.014 0.21638,-0.72785 0.36071,-1.64841 z m -30.7113,-13.45562 c 0.14607,-1.71787 0.49448,-6.19928 0.77404,-9.95857 1.00218,-13.47534 1.85662,-19.90716 3.72803,-28.06324 2.29738,-10.01258 5.97552,-19.3443 10.97781,-27.85162 l 1.37542,-2.33909 -0.83755,-4.10139 c -0.46066,-2.25568 -1.13277,-5.20405 -1.49353,-6.55191 -0.76638,-2.86293 -0.50759,-3.09207 -2.89599,2.56439 -3.28205,7.77286 -4.31278,10.72478 -6.00233,17.19066 l -1.61959,6.1969 -1.23173,-0.16731 c -0.67733,-0.0926 -1.27669,-0.24422 -1.33256,-0.33466 -0.0545,-0.0944 0.67333,-3.12479 1.61872,-6.7354 1.91417,-7.30988 3.22729,-10.94219 7.28413,-20.14286 l 2.26727,-5.14232 -0.64792,-2.05067 c -0.35641,-1.12784 -1.02579,-3.06492 -1.48755,-4.30448 -0.98914,-2.65496 -0.67884,-2.96507 -3.15658,3.15588 -5.37541,13.27943 -8.97535,25.52737 -10.60782,36.08948 -1.77338,11.4749 -1.73033,21.45756 0.15344,35.58103 0.47551,3.56456 1.27536,9.56509 1.77749,13.3346 0.50214,3.76939 0.95282,6.83193 1.00144,6.80531 0.0493,-0.0267 0.20808,-1.45375 0.35415,-3.17166 z m 28.88739,1.54446 c 1.54929,-14.59406 1.92241,-21.64325 1.65927,-31.34402 -0.20367,-7.50705 -1.25789,-18.07763 -2.56214,-25.69096 -0.28663,-1.67324 -0.58213,-3.43306 -0.65685,-3.91076 l -0.13569,-0.86859 1.34195,-0.29452 1.34201,-0.29446 0.56525,3.29817 c 1.939,11.31202 2.94206,22.33815 2.93527,32.26314 -0.009,8.60403 -0.3871,14.57792 -1.73347,27.17875 -0.45677,4.27524 -0.79346,7.83598 -0.74833,7.91267 0.22491,0.38158 0.89533,-3.66307 3.23738,-19.51421 2.53732,-17.17633 2.55072,-17.29217 2.40006,-20.79507 -0.75239,-17.49022 -2.67114,-38.53688 -5.07729,-55.68966 l -0.79787,-5.68884 -1.69228,-1.05538 c -3.21226,-2.00339 -5.39043,-2.95225 -8.72319,-3.80003 -2.73965,-0.69647 -3.4244,-0.78267 -5.28752,-0.66271 -1.17697,0.0755 -2.42396,0.26732 -2.77115,0.42545 l -0.63104,0.28767 0.89406,2.2924 c 2.35858,6.04711 5.22475,15.9225 6.43032,22.15658 0.38833,2.00768 1.19258,5.29245 1.78736,7.29949 5.20886,17.57834 7.46604,33.96996 7.5179,54.59483 0.0116,4.66357 -0.13459,15.03471 -0.25658,18.19017 -0.11724,3.03533 0.17618,1.1174 0.96257,-6.29011 z m 50.572888,1.48588 c 16.45085,-25.81865 26.45496,-45.56558 32.7087,-64.56321 1.77146,-5.38174 4.42897,-16.47313 5.0064,-20.89543 0.76952,-5.89327 1.12239,-13.77037 0.7419,-16.55881 l -0.12486,-0.91488 -4.0823,3.31047 c -2.24535,1.82071 -4.39626,3.57919 -4.77965,3.90776 l -0.69734,0.59745 -0.1199,3.83558 c -0.31128,9.95526 -1.51888,19.07628 -4.02092,30.37077 l -0.79747,3.59953 -1.40716,-0.36378 -1.40703,-0.36379 1.30877,-5.66053 c 1.88887,-8.16929 2.90197,-15.44877 3.38617,-24.33218 0.1331,-2.44148 0.22074,-4.47508 0.1948,-4.51918 -0.10701,-0.1815 -5.87998,5.39299 -8.83722,8.53362 l -3.17874,3.37567 0.41268,2.93991 c 2.07039,14.74557 0.46118,29.75916 -5.00455,46.69243 -2.57338,7.97235 -5.05599,14.44347 -11.86652,30.93045 -2.26519,5.48348 -4.13376,10.0511 -4.15227,10.15042 -0.068,0.36634 2.94322,-4.15017 6.71655,-10.07227 z M 95.317452,239.0456 c 11.027248,-21.48492 11.464938,-22.23262 19.185528,-32.77715 6.60018,-9.01451 24.30035,-30.88405 24.60078,-30.39583 0.098,0.15918 1.06264,-0.68197 2.35887,-2.05659 4.74773,-5.03466 9.63117,-9.44934 17.0501,-15.41333 l 4.85714,-3.90474 -1.76252,-1.43767 c -3.07605,-2.50894 -4.14037,-3.0174 -8.90406,-4.25429 -3.70825,-0.95868 -4.68183,-1.12366 -7.8698,-1.29804 -2.18425,-0.11974 -3.83679,-0.0831 -4.1348,0.0926 -1.05021,0.61671 -4.81213,4.23889 -7.42068,7.14514 -12.95863,14.43667 -29.04459,41.80182 -40.146218,68.29576 -1.50438,3.59037 -2.06766,5.36323 -4.91475,15.46956 -1.76867,6.27793 -3.18674,11.46364 -3.15135,11.52368 0.0348,0.0595 0.54315,-1.18794 1.12865,-2.77336 1.46122,-3.95746 5.3518,-13.28812 7.56135,-18.1343 6.594788,-14.46407 14.258658,-27.60444 23.257978,-39.8785 3.59008,-4.89636 6.9273,-9.05071 7.21155,-8.97726 0.31203,0.0812 1.89427,1.5009 1.85244,1.66287 -0.0191,0.0727 -1.07615,1.44631 -2.34953,3.05191 -13.07471,16.48671 -24.154468,36.05735 -32.968208,58.23376 -3.22154,8.10554 -6.12356,16.19103 -5.50842,15.34716 0.0878,-0.11928 4.61669,-8.9039 10.06595,-19.52093 z m -7.71369,-9.0543 c 1.68067,-6.50411 6.66828,-24.38393 10.42317,-39.73283 3.754908,-15.349 5.161598,-28.75059 5.443418,-29.84855 0.30154,-1.16665 1.17146,-12.06551 1.02968,-12.10096 -0.47139,-0.11757 -3.79087,22.21516 -9.223018,46.99015 -9.09561,35.18261 -9.61085,37.2925 -10.22814,41.5414 -0.35775,2.46197 -0.68835,4.63097 -0.73464,4.81996 -0.0493,0.18848 -0.0121,0.30166 0.0746,0.25016 0.0878,-0.0517 1.53403,-5.41521 3.21482,-11.91933 z"
       style="fill:#000000;stroke-width:0.0660941"
       id="path26877-3-6-9"
       sodipodi:nodetypes="cscssscsscssssscsscssscsssssccssscssssscccssssscscsscccsssscssscsssscccsscsssssssccsssscccsssscsscsssscsscsssssssscsscsscccsssscsssssssssscscscssssssscsssssssscscscsss"
       inkscape:export-filename="/home/alex/Documents/ds/site_pro/flask/site_freelance/app/static/images/logo.png"
       inkscape:export-xdpi="96"
       inkscape:export-ydpi="96" />
    <path
       style="fill:#fcef3c;fill-opacity:1;stroke:#fcef3c;stroke-width:0.939721;stroke-opacity:1"
       d="m 91.457272,243.37166 c 0,-0.77525 3.35096,-8.29256 7.45577,-16.70516 7.385598,-15.13646 13.799278,-25.85131 22.693998,-37.91368 4.88719,-6.6275 5.35116,-7.84897 3.2828,-8.64261 -2.75062,-1.05545 -19.94249,24.64005 -29.436818,43.99716 -5.13693,10.47324 -5.88439,9.75698 -1.47097,-1.40959 9.473738,-23.97004 29.242658,-56.72438 42.147918,-69.83357 5.21095,-5.29319 5.49741,-5.44426 9.2335,-4.86989 7.00016,1.07603 13.36732,3.21376 15.02392,5.04427 1.57354,1.73875 1.43645,1.96164 -3.82839,6.22712 -13.08968,10.60505 -25.22015,23.78574 -39.94311,43.40105 -8.93666,11.90633 -9.24122,12.39216 -17.857328,28.48845 -4.01159,7.4943 -7.29723,12.99171 -7.30129,12.21645 z"
       id="path29058-6-1-3"
       inkscape:export-filename="/home/alex/Documents/ds/site_pro/flask/site_freelance/app/static/images/logo.png"
       inkscape:export-xdpi="96"
       inkscape:export-ydpi="96" />
    <path
       style="fill:#fcef3c;fill-opacity:1;stroke:#fcef3c;stroke-width:0.469859;stroke-opacity:1"
       d="m 121.50819,265.91674 c -0.009,-0.2629 1.38296,-3.8574 3.08649,-7.98768 9.28954,-22.52343 13.44494,-35.19421 15.48325,-47.21261 1.05985,-6.24865 1.41539,-19.4056 0.69983,-25.88635 l -0.58086,-5.25967 5.7324,-5.68821 5.73247,-5.6882 -0.31389,4.93355 c -0.45208,7.10394 -1.50612,14.79065 -2.92436,21.32499 -1.64517,7.58073 -1.64279,7.87246 0.0671,8.33788 0.76232,0.20738 1.44132,0.32172 1.50914,0.25402 0.068,-0.0679 0.75826,-3.28511 1.53461,-7.14983 1.80179,-8.97013 2.79005,-16.60364 3.16706,-24.46444 l 0.299,-6.23437 4.36109,-3.55191 c 2.39873,-1.9535 4.48083,-3.55181 4.62707,-3.55181 0.4453,0 0.29696,8.67957 -0.23099,13.52703 -0.5601,5.14127 -2.6817,14.92043 -4.76155,21.94744 -3.09003,10.43941 -10.25581,26.73307 -17.7711,40.40789 -6.48347,11.79739 -19.68876,33.19054 -19.71689,31.94228 z"
       id="path33262-0-8-6"
       inkscape:export-filename="/home/alex/Documents/ds/site_pro/flask/site_freelance/app/static/images/logo.png"
       inkscape:export-xdpi="96"
       inkscape:export-ydpi="96" />
    <path
       style="fill:#fcef3c;fill-opacity:1;stroke:#fcef3c;stroke-width:0.469859;stroke-opacity:1"
       d="m 74.861912,245.2512 c -0.52099,-22.31947 -1.93511,-32.4349 -7.52109,-53.79916 -0.91216,-3.48863 -2.23827,-8.77453 -2.94693,-11.7464 -0.70859,-2.97186 -2.30307,-8.46515 -3.54315,-12.20727 -1.64401,-4.961 -2.10375,-6.89963 -1.69727,-7.15801 1.914,-1.21711 8.71959,0.2365 14.03664,2.99792 4.1449,2.15275 3.69102,1.10595 5.05937,11.66882 1.83666,14.17778 3.32295,30.14396 4.24351,45.58397 0.44013,7.38357 0.39256,8.95418 -0.46234,15.27047 -1.3575,10.02823 -3.30432,21.6614 -3.05877,18.27754 1.11757,-15.40261 1.26196,-19.27712 1.00497,-26.97758 -0.31232,-9.36048 -0.68086,-13.2915 -2.26136,-24.12277 l -1.01738,-6.9729 -1.41151,0.28228 c -0.77629,0.15531 -1.49318,0.36401 -1.59296,0.46391 -0.0999,0.0997 0.24045,3.00481 0.75634,6.45556 0.51588,3.45085 1.21642,8.70572 1.55688,11.67759 0.80698,7.0457 0.69641,29.68875 -0.18355,37.58888 l -0.65429,5.87314 z"
       id="path33301-6-7-0"
       inkscape:export-filename="/home/alex/Documents/ds/site_pro/flask/site_freelance/app/static/images/logo.png"
       inkscape:export-xdpi="96"
       inkscape:export-ydpi="96" />
    <path
       style="fill:#fcef3c;fill-opacity:1;stroke:#fcef3c;stroke-width:0.469859;stroke-opacity:1"
       d="m 44.547992,247.09095 c -0.84527,-6.43881 -1.76885,-14.45554 -2.05229,-17.81503 -1.24015,-14.69836 1.12267,-30.81467 7.09187,-48.37241 3.07177,-9.0354 6.20815,-16.82386 6.59305,-16.37249 0.5739,0.67297 2.35557,5.83757 2.35557,6.82811 0,0.53183 -1.49081,4.44794 -3.3128,8.70247 -2.97297,6.94146 -5.30632,13.98832 -7.0088,21.16552 -0.32509,1.37066 -0.51276,2.57044 -0.41716,2.66603 0.0956,0.0957 0.7843,0.2429 1.53032,0.32702 1.31132,0.14785 1.38592,0.0435 2.24383,-3.13599 1.86707,-6.91853 3.8574,-12.89592 6.16395,-18.51155 2.7418,-6.67483 2.62166,-6.70524 4.24606,1.08021 l 1.06867,5.12191 -2.49323,4.51019 c -8.13919,14.72474 -11.53065,28.38646 -13.54169,54.55039 -0.40723,5.29767 -0.78308,9.93153 -0.83541,10.29729 -0.0522,0.36598 -0.78668,-4.60289 -1.63194,-11.04167 z"
       id="path33340-2-92-6"
       inkscape:export-filename="/home/alex/Documents/ds/site_pro/flask/site_freelance/app/static/images/logo.png"
       inkscape:export-xdpi="96"
       inkscape:export-ydpi="96" />
    <path
       style="fill:#fcef3c;fill-opacity:1;stroke:#fcef3c;stroke-width:0.0830602;stroke-opacity:1"
       d="m 84.408202,241.54614 c -0.0162,-0.2716 0.93902,-6.37875 1.2087,-7.7283 0.64769,-3.24231 1.91272,-8.3098 6.92916,-27.75661 2.73983,-10.6214 2.98022,-11.62328 4.27153,-17.80196 1.65509,-7.92009 2.9138,-14.48843 5.437318,-28.37488 1.9716,-10.84878 2.28758,-12.40654 2.19686,-10.82965 -0.17038,2.96426 -0.67762,8.86252 -0.89638,10.42416 -1.89433,13.52516 -3.35759,21.56308 -5.655088,31.06453 -1.54151,6.37486 -3.77062,14.91694 -7.97642,30.56609 -0.97602,3.63197 -2.30266,8.62167 -2.94808,11.08861 -1.03317,3.94957 -2.30203,8.66099 -2.4941,9.26122 -0.0365,0.11431 -0.0698,0.15329 -0.0736,0.087 z"
       id="path33531-8-0-2"
       inkscape:export-filename="/home/alex/Documents/ds/site_pro/flask/site_freelance/app/static/images/logo.png"
       inkscape:export-xdpi="96"
       inkscape:export-ydpi="96" />
    <path
       style="fill:#fcef3c;fill-opacity:1;stroke:#fcef3c;stroke-width:0.0830602;stroke-opacity:1"
       d="m 85.314732,249.22763 c 0,-0.32741 5.27627,-19.02448 5.60258,-19.85351 0.16411,-0.41673 0.11794,-0.12005 -0.11631,0.74759 -0.32231,1.19403 -0.23379,1.80452 0.27427,1.88923 0.60087,0.10001 1.20748,-0.70924 2.91061,-3.88271 0.39232,-0.73085 0.71358,-1.28781 0.71399,-1.23729 0,0.0498 -0.20924,0.53613 -0.46588,1.07969 -1.93546,4.09988 -5.91891,13.58514 -8.01656,19.08899 -0.76661,2.01138 -0.9027,2.33827 -0.9027,2.16801 z"
       id="path33570-7-2-6"
       inkscape:export-filename="/home/alex/Documents/ds/site_pro/flask/site_freelance/app/static/images/logo.png"
       inkscape:export-xdpi="96"
       inkscape:export-ydpi="96" />
    <path
       style="fill:#fcef3c;fill-opacity:1;stroke:#fcef3c;stroke-width:0.0830602;stroke-opacity:1"
       d="m 85.361022,257.98841 c 0.17861,-0.90908 2.96085,-8.4901 4.96864,-13.5388 0.62889,-1.58147 0.70465,-1.73235 0.66138,-1.3184 -0.0423,0.40938 -0.0255,0.49024 0.13626,0.65228 0.22346,0.2235 0.59322,0.18214 0.89336,-0.10002 0.42591,-0.40016 2.14592,-3.17972 3.88286,-6.2748 0.49402,-0.88025 0.91593,-1.58281 0.93768,-1.561 0.0215,0.0214 -1.16658,2.38655 -2.64068,5.25516 -5.58541,10.86938 -8.4202,16.35947 -8.65445,16.76097 -0.23407,0.40114 -0.24027,0.40543 -0.18505,0.12456 z"
       id="path33609-9-3-1"
       inkscape:export-filename="/home/alex/Documents/ds/site_pro/flask/site_freelance/app/static/images/logo.png"
       inkscape:export-xdpi="96"
       inkscape:export-ydpi="96" />
    <path
       style="fill:#fcef3c;fill-opacity:1;stroke:#fcef3c;stroke-width:0.0415303;stroke-opacity:1"
       d="m 77.424232,266.78248 c 0,-0.48351 0.3158,-3.65802 1.19866,-12.0749 l 0.0784,-0.74758 0.009,0.41645 c 0.009,0.47255 0.0585,0.60197 0.24614,0.59972 0.26401,0 0.31627,-0.13093 0.56885,-1.39 0.18006,-0.8973 0.72971,-4.04563 0.87752,-5.02507 0.0418,-0.2741 0.0812,-0.46693 0.0897,-0.42846 0.014,0.0699 -0.12199,1.01041 -0.82531,5.70282 -0.91761,6.12315 -1.59836,10.39364 -1.88429,11.82122 -0.13864,0.69136 -0.29301,1.28144 -0.33548,1.28144 -0.0104,0 -0.0192,-0.0699 -0.0192,-0.15564 z"
       id="path33648-2-75-8"
       inkscape:export-filename="/home/alex/Documents/ds/site_pro/flask/site_freelance/app/static/images/logo.png"
       inkscape:export-xdpi="96"
       inkscape:export-ydpi="96" />
    <path
       style="fill:#fcef3c;fill-opacity:1;stroke:#fcef3c;stroke-width:0.0415303;stroke-opacity:1"
       d="m 74.455662,265.21469 c 0.011,-0.59385 0.0389,-1.77129 0.0604,-2.61644 0.0574,-2.25167 0.12983,-6.84109 0.16093,-10.25796 l 0.0273,-2.99008 0.0957,4.40217 c 0.0528,2.42117 0.10441,4.46035 0.11497,4.53142 0.018,0.12129 0.0331,0.13092 0.23181,0.15453 0.11677,0.014 0.22055,0.0331 0.23047,0.0435 0.0522,0.0522 -0.76504,7.05555 -0.88204,7.55718 -0.0557,0.23773 -0.0585,0.17947 -0.0389,-0.82398 z"
       id="path33687-0-92-7"
       inkscape:export-filename="/home/alex/Documents/ds/site_pro/flask/site_freelance/app/static/images/logo.png"
       inkscape:export-xdpi="96"
       inkscape:export-ydpi="96" />
    <path
       style="fill:#fcef3c;fill-opacity:1;stroke:#fcef3c;stroke-width:0.0415303;stroke-opacity:1"
       d="m 76.865302,271.71411 c 0.0267,-0.63997 0.11688,-1.54105 0.24729,-2.47101 0.1249,-0.89022 0.18088,-1.1511 0.2426,-1.12998 0.0888,0.0301 0.0481,1.09721 -0.0718,1.90773 -0.13991,0.94377 -0.29689,1.7877 -0.37678,2.02548 -0.0614,0.18146 -0.0623,0.17195 -0.0418,-0.33222 z"
       id="path33726-2-28-9"
       inkscape:export-filename="/home/alex/Documents/ds/site_pro/flask/site_freelance/app/static/images/logo.png"
       inkscape:export-xdpi="96"
       inkscape:export-ydpi="96" />
    <path
       style="fill:#fcef3c;fill-opacity:1;stroke:#fcef3c;stroke-width:0.0103825;stroke-opacity:1"
       d="m 85.173012,258.5445 c 0.009,-0.0651 0.098,-0.45584 0.12061,-0.512 0.0134,-0.0331 0.0134,0 0,0.0699 -0.0134,0.0736 -0.009,0.10669 0.0255,0.12145 0.0481,0.0214 0.0831,-0.018 0.21905,-0.2534 0.0389,-0.0671 0.0727,-0.12021 0.0755,-0.11757 0,0 -0.29957,0.58998 -0.35299,0.68111 -0.0296,0.0499 -0.0605,0.0831 -0.0784,0.0831 -0.0121,0 -0.014,-0.0124 -0.009,-0.0717 z"
       id="path33765-3-97-2"
       inkscape:export-filename="/home/alex/Documents/ds/site_pro/flask/site_freelance/app/static/images/logo.png"
       inkscape:export-xdpi="96"
       inkscape:export-ydpi="96" />
    <path
       style="fill:#fcef3c;fill-opacity:1;stroke:#fcef3c;stroke-width:0.00519125;stroke-opacity:1"
       d="m 85.065522,250.02215 c 0,-0.0301 0.0595,-0.27822 0.14821,-0.62269 0.0331,-0.12704 0.0604,-0.23302 0.0614,-0.23535 0,0 0,0.0227 0,0.0558 -1.8e-4,0.0558 0,0.0604 0.0121,0.0727 0.029,0.0314 0.0661,0.021 0.0974,-0.0272 0.0499,-0.0755 0.19978,-0.43677 0.44847,-1.08277 0.0151,-0.0395 0.0284,-0.0699 0.029,-0.0669 0,0.009 -0.25553,0.67507 -0.40491,1.04489 -0.14426,0.35688 -0.25426,0.6138 -0.32062,0.7488 -0.0319,0.0651 -0.0652,0.12331 -0.0708,0.12331 0,0 0,0 0,-0.0109 z"
       id="path33804-7-3-0"
       inkscape:export-filename="/home/alex/Documents/ds/site_pro/flask/site_freelance/app/static/images/logo.png"
       inkscape:export-xdpi="96"
       inkscape:export-ydpi="96" />
    <path
       style="fill:#fcef3c;fill-opacity:1;stroke:#fcef3c;stroke-width:0.00734155;stroke-opacity:1"
       d="m 84.319972,241.90117 c -0.0377,-0.0377 -0.0377,-0.0812 0,-0.26941 0.0117,-0.0568 0.0302,-0.15964 0.0406,-0.22914 0.0117,-0.0699 0.0215,-0.12502 0.0238,-0.12363 0,0 0,0.0545 -0.009,0.11866 -0.0192,0.1782 -0.009,0.22322 0.047,0.22322 0.0284,0 0.047,-0.0163 0.0671,-0.0575 0.009,-0.021 0.0191,-0.036 0.0209,-0.0342 0,0 -0.0482,0.17177 -0.0888,0.2857 -0.0255,0.0717 -0.0342,0.0888 -0.051,0.0972 -0.0267,0.014 -0.0255,0.014 -0.0499,-0.0109 z"
       id="path33843-5-6-2"
       inkscape:export-filename="/home/alex/Documents/ds/site_pro/flask/site_freelance/app/static/images/logo.png"
       inkscape:export-xdpi="96"
       inkscape:export-ydpi="96" />
    <path
       style="fill:#fcef3c;fill-opacity:1;stroke:#fcef3c;stroke-width:0.0207651;stroke-opacity:1"
       d="m 90.879712,242.95673 c 0,-0.0407 1.15076,-2.8656 1.79003,-4.39405 0.67019,-1.60243 1.86828,-4.37057 2.51892,-5.81949 l 0.20281,-0.45166 h 0.14248 c 0.0783,0 0.14252,0 0.14252,0.009 0,0 -0.17392,0.38037 -0.38652,0.83564 -2.08478,4.46482 -3.62791,7.99909 -4.09646,9.3823 -0.0793,0.23349 -0.14908,0.41118 -0.15552,0.39453 -0.0168,-0.0435 -0.067,-0.0365 -0.11591,0.0155 -0.0238,0.0244 -0.0424,0.0388 -0.0424,0.029 z"
       id="path33882-9-1-3"
       inkscape:export-filename="/home/alex/Documents/ds/site_pro/flask/site_freelance/app/static/images/logo.png"
       inkscape:export-xdpi="96"
       inkscape:export-ydpi="96" />
    <path
       style="fill:#fcef3c;fill-opacity:1;stroke:#fcef3c;stroke-width:0.0415303;stroke-opacity:1"
       d="m 95.448092,232.22638 c 0,-0.0191 0.20344,-0.48125 0.45224,-1.02778 3.57889,-7.86486 7.701408,-15.80885 11.776578,-22.69333 1.56077,-2.63691 1.52045,-2.57502 1.67661,-2.57502 h 0.13998 l -0.0802,0.13512 c -4.5588,7.6722 -8.28365,14.74256 -13.073048,24.81425 -0.63457,1.33446 -0.66062,1.38092 -0.77438,1.38092 -0.0652,0 -0.11775,-0.0155 -0.11775,-0.0342 z"
       id="path33921-2-29-7"
       inkscape:export-filename="/home/alex/Documents/ds/site_pro/flask/site_freelance/app/static/images/logo.png"
       inkscape:export-xdpi="96"
       inkscape:export-ydpi="96" />
    <path
       style="fill:#fcef3c;fill-opacity:1;stroke:#fcef3c;stroke-width:0.0207651;stroke-opacity:1"
       d="m 91.059902,229.2001 c -0.0151,-0.0755 -0.0394,-0.0812 -0.0971,-0.0238 -0.0226,0.0227 -0.0418,0.0318 -0.0418,0.0214 0,-0.0272 0.18673,-0.6221 0.45004,-1.43378 0.65204,-2.01023 1.20313,-3.42167 2.69574,-6.90438 0.5812,-1.356 1.88586,-4.33668 1.91173,-4.36772 0,0 0.0209,0 0.0377,0 0.0261,0.009 0.0186,0.0365 -0.0418,0.17317 -1.80633,4.10881 -3.92916,9.53852 -4.80088,12.27973 -0.0868,0.27329 -0.10337,0.3099 -0.1144,0.2545 z"
       id="path33960-2-3-5"
       inkscape:export-filename="/home/alex/Documents/ds/site_pro/flask/site_freelance/app/static/images/logo.png"
       inkscape:export-xdpi="96"
       inkscape:export-ydpi="96" />
    <path
       style="fill:#fcef3c;fill-opacity:1;stroke:#fcef3c;stroke-width:0.0207651;stroke-opacity:1"
       d="m 94.743842,226.89789 c 0,-0.0545 -0.0652,-0.0641 -0.10604,-0.0155 -0.014,0.0168 -0.029,0.0284 -0.0331,0.0244 -0.0121,-0.0124 2.75491,-5.5365 3.22775,-6.4446 0.68168,-1.30894 1.29491,-2.46074 1.30483,-2.45082 0.009,0.009 -0.20733,0.428 -0.47145,0.94059 -1.11212,2.15833 -2.74633,5.48747 -3.86181,7.8673 -0.0394,0.0849 -0.0585,0.10995 -0.0605,0.0784 z"
       id="path33999-8-19-9"
       inkscape:export-filename="/home/alex/Documents/ds/site_pro/flask/site_freelance/app/static/images/logo.png"
       inkscape:export-xdpi="96"
       inkscape:export-ydpi="96" />
    <path
       style="fill:#fcef3c;fill-opacity:1;stroke:#fcef3c;stroke-width:0.0207651;stroke-opacity:1"
       d="m 96.735802,236.22085 c -1.8e-4,-0.014 0.0319,-0.0915 0.0727,-0.17077 0.0394,-0.0794 0.0727,-0.16899 0.0727,-0.19894 0,-0.0481 -0.009,-0.0528 -0.0522,-0.0418 -0.0284,0.009 -0.0522,0.009 -0.0522,0 0,-0.009 0.23227,-0.4345 0.51612,-0.95026 0.80495,-1.46268 1.88214,-3.45399 2.63923,-4.87907 0.0718,-0.13481 0.134928,-0.24034 0.140788,-0.23455 0.009,0.009 -0.297878,0.60661 -0.674778,1.33528 -0.61276,1.18474 -1.67794,3.2513 -2.4007,4.65748 -0.14381,0.27996 -0.26162,0.49692 -0.2618,0.48229 z"
       id="path34038-9-4-2"
       inkscape:export-filename="/home/alex/Documents/ds/site_pro/flask/site_freelance/app/static/images/logo.png"
       inkscape:export-xdpi="96"
       inkscape:export-ydpi="96" />
    <path
       style="fill:#fcef3c;fill-opacity:1;stroke:#fcef3c;stroke-width:0.0415303;stroke-opacity:1"
       d="m 109.66765,205.19316 c 2.99066,-4.88522 6.449,-10.03352 9.79881,-14.58744 1.36724,-1.85865 3.10065,-4.12552 3.13127,-4.09494 0.0109,0.0109 -0.0441,0.11073 -0.12362,0.22026 -0.0794,0.10964 -0.73215,1.00289 -1.45021,1.98505 -4.48791,6.13859 -8.13861,11.57689 -11.28428,16.80937 -0.2053,0.34156 -0.22688,0.36337 -0.35815,0.36337 h -0.13975 z"
       id="path34114-7-7-2"
       inkscape:export-filename="/home/alex/Documents/ds/site_pro/flask/site_freelance/app/static/images/logo.png"
       inkscape:export-xdpi="96"
       inkscape:export-ydpi="96" />
    <path
       style="fill:#fcef3c;fill-opacity:1;stroke:#fcef3c;stroke-width:0.0110399;stroke-opacity:1"
       d="m 96.036952,216.48981 c -0.009,-0.009 -0.0226,-0.018 -0.0331,-0.0197 -0.022,0 0,-0.0435 0.56438,-1.30075 1.57748,-3.48579 3.03249,-6.55321 5.010298,-10.56247 l 0.24643,-0.49942 h 0.0423 c 0.0238,0 0.0423,0 0.0423,0.009 0,0 -0.23663,0.47888 -0.52581,1.05713 -1.731098,3.46176 -3.228798,6.61577 -4.645938,9.78419 -0.21162,0.47319 -0.62175,1.39933 -0.67356,1.52137 -0.0116,0.0267 -0.0151,0.0284 -0.0267,0.014 z"
       id="path34449-3-8-8"
       inkscape:export-filename="/home/alex/Documents/ds/site_pro/flask/site_freelance/app/static/images/logo.png"
       inkscape:export-xdpi="96"
       inkscape:export-ydpi="96" />
    <path
       style="fill:#fcef3c;fill-opacity:1;stroke:#fcef3c;stroke-width:0.0156128;stroke-opacity:1"
       d="m 102.2863,203.19958 c 2.52409,-5.04887 5.83027,-11.21077 8.53204,-15.90166 l 0.0831,-0.14443 h 0.12994 c 0.12995,0 0.13001,0 0.1115,0.0348 -0.0104,0.0191 -0.164,0.28456 -0.34168,0.58946 -2.8671,4.91805 -5.7374,10.16503 -8.26334,15.10542 -0.21957,0.42939 -0.44709,0.87728 -0.50562,0.99528 -0.0984,0.19856 -0.10969,0.21469 -0.14967,0.21469 -0.0424,0 -0.036,-0.014 0.40364,-0.89382 z"
       id="path34599-6-4-9"
       inkscape:export-filename="/home/alex/Documents/ds/site_pro/flask/site_freelance/app/static/images/logo.png"
       inkscape:export-xdpi="96"
       inkscape:export-ydpi="96" />
    <path
       style="fill:#fcef3c;fill-opacity:1;stroke:#fcef3c;stroke-width:0.0624515;stroke-opacity:1"
       d="m 111.07005,186.91146 c 0.068,-0.11151 0.48189,-0.8212 0.92056,-1.5769 6.82625,-11.75806 14.15231,-22.3559 20.44172,-29.57069 2.20168,-2.5256 5.2333,-5.5937 7.1756,-7.26173 0.96807,-0.83129 1.12307,-0.92527 1.58408,-0.95944 l 0.39777,-0.029 -0.5334,0.28437 c -0.93291,0.49738 -1.76866,1.2286 -4.27802,3.74323 -2.34049,2.34531 -3.00772,3.05907 -4.64825,4.97248 -5.58965,6.51961 -12.5887,16.59826 -19.2911,27.77915 -0.71422,1.19154 -1.38064,2.31381 -1.48077,2.49404 -0.1166,0.20971 -0.22351,0.32793 -0.29666,0.32793 -0.10918,0 -0.10878,-0.009 0.009,-0.20291 z"
       id="path34638-1-5-7"
       inkscape:export-filename="/home/alex/Documents/ds/site_pro/flask/site_freelance/app/static/images/logo.png"
       inkscape:export-xdpi="96"
       inkscape:export-ydpi="96" />
    <path
       style="fill:#fcef3c;fill-opacity:1;stroke:#fcef3c;stroke-width:0.0624515;stroke-opacity:1"
       d="m 142.49533,176.82428 c 0,-0.0905 6.11289,-6.22515 7.38628,-7.41192 2.20544,-2.05543 0.2332,-0.0435 -5.99677,6.11632 -0.76421,0.75563 -1.38951,1.33859 -1.38951,1.2956 z"
       id="path34677-2-03-3"
       inkscape:export-filename="/home/alex/Documents/ds/site_pro/flask/site_freelance/app/static/images/logo.png"
       inkscape:export-xdpi="96"
       inkscape:export-ydpi="96" />
    <path
       style="fill:#fcef3c;fill-opacity:1;stroke:#fcef3c;stroke-width:0.124903;stroke-opacity:1"
       d="m 161.14216,155.9307 c 0.78969,-0.89938 0.81533,-1.78132 0.0803,-2.74464 -0.24197,-0.31674 -0.40445,-0.57604 -0.36106,-0.57604 0.10064,0 2.23218,1.74124 2.27667,1.85986 0.0342,0.0907 -2.14731,1.88731 -2.29118,1.88731 -0.0435,0 0.0896,-0.19195 0.29568,-0.42649 z"
       id="path34716-9-6-6"
       inkscape:export-filename="/home/alex/Documents/ds/site_pro/flask/site_freelance/app/static/images/logo.png"
       inkscape:export-xdpi="96"
       inkscape:export-ydpi="96" />
    <path
       style="fill:#fcef3c;fill-opacity:1;stroke:#fcef3c;stroke-width:0.0624515;stroke-opacity:1"
       d="m 160.63527,152.57522 c -0.23465,-0.26117 -0.87583,-0.7169 -1.55021,-1.10203 -2.28955,-1.30692 -6.63783,-2.67323 -11.46875,-3.60389 -0.89563,-0.17252 -0.71323,-0.20831 0.32572,-0.0641 1.07348,0.14925 2.0911,0.36646 4.07709,0.86987 4.72569,1.19802 6.0145,1.72209 8.15659,3.31667 0.5261,0.39164 0.65424,0.51647 0.62228,0.60644 -0.0377,0.10592 -0.0481,0.10437 -0.16272,-0.0238 z"
       id="path34755-3-1-1"
       inkscape:export-filename="/home/alex/Documents/ds/site_pro/flask/site_freelance/app/static/images/logo.png"
       inkscape:export-xdpi="96"
       inkscape:export-ydpi="96" />
    <path
       style="fill:#fcef3c;fill-opacity:1;stroke:#fcef3c;stroke-width:0.0312257;stroke-opacity:1"
       d="m 153.96954,162.05763 c 0.0273,-0.0441 1.56013,-1.32199 2.71783,-2.26558 2.36972,-1.93123 3.14486,-2.58692 3.71974,-3.14626 0.29667,-0.2886 0.3498,-0.32856 0.36403,-0.27427 0.0109,0.0394 0.0424,0.0641 0.084,0.0641 0.0464,0 -0.13729,0.16533 -0.58254,0.52407 -0.35775,0.28825 -1.19838,0.96557 -1.86816,1.50519 -1.4574,1.17401 -2.67062,2.16547 -3.6764,3.00436 -0.68888,0.57453 -0.80612,0.66543 -0.75883,0.58897 z"
       id="path34794-1-06-2"
       inkscape:export-filename="/home/alex/Documents/ds/site_pro/flask/site_freelance/app/static/images/logo.png"
       inkscape:export-xdpi="96"
       inkscape:export-ydpi="96" />
    <path
       style="fill:#fcef3c;fill-opacity:1;stroke:#fcef3c;stroke-width:0.0312257;stroke-opacity:1"
       d="m 150.78791,168.62382 c -0.0163,-0.0424 0.009,-0.0822 0.084,-0.15112 0.47946,-0.42305 0.74573,-0.64634 0.7571,-0.63491 0.009,0.009 -0.17369,0.20036 -0.40254,0.42853 -0.34731,0.34659 -0.4197,0.40559 -0.43838,0.35756 z"
       id="path34870-9-32-9"
       inkscape:export-filename="/home/alex/Documents/ds/site_pro/flask/site_freelance/app/static/images/logo.png"
       inkscape:export-xdpi="96"
       inkscape:export-ydpi="96" />
    <path
       style="fill:#fcef3c;fill-opacity:1;stroke:#fcef3c;stroke-width:0.02208;stroke-opacity:1"
       d="m 164.29775,168.02324 c 0.009,-0.15785 0.0244,-0.56026 0.0424,-0.89422 0.10002,-1.89063 0.14832,-3.68743 0.14909,-5.531 0,-2.57553 -0.084,-3.53062 -0.32642,-3.68992 -0.0935,-0.0614 -0.23204,-0.0641 -0.34324,-0.009 -0.45162,0.22785 -2.46851,1.80319 -6.14405,4.79878 -0.92091,0.75059 -1.67916,1.35994 -1.68497,1.35419 -0.0155,-0.0155 1.32983,-1.11727 4.81672,-3.94529 1.12934,-0.91592 2.37007,-1.92251 2.75717,-2.23658 0.38698,-0.31413 0.71086,-0.56293 0.71949,-0.55283 0.0163,0.0191 0.13807,0.91952 0.17735,1.30993 0.0879,0.87067 0.12316,2.4561 0.0905,4.05172 -0.0244,1.18487 -0.0651,2.37124 -0.11275,3.26778 -0.0418,0.78053 -0.11136,1.91973 -0.13155,2.14168 l -0.0197,0.22097 z"
       id="path34909-4-0-3"
       inkscape:export-filename="/home/alex/Documents/ds/site_pro/flask/site_freelance/app/static/images/logo.png"
       inkscape:export-xdpi="96"
       inkscape:export-ydpi="96" />
    <path
       style="fill:#fcef3c;fill-opacity:1;stroke:#fcef3c;stroke-width:0.0441598;stroke-opacity:1"
       d="m 119.33019,270.12475 c 0,-0.018 1.39283,-3.437 2.25567,-5.5368 0.46142,-1.12273 0.65274,-1.4759 0.29023,-0.53561 -0.35717,0.92632 -0.6029,1.67946 -0.6029,1.84763 0,0.19533 0.10528,0.31261 0.28048,0.31261 0.24103,0 0.73128,-0.57993 1.74658,-2.06655 0.25268,-0.36993 0.46889,-0.66318 0.48032,-0.65169 0.0227,0.0227 -0.19271,0.35892 -1.71391,2.67415 -1.02667,1.56245 -1.97346,2.96509 -2.43667,3.61005 -0.23564,0.32816 -0.2998,0.40218 -0.2998,0.34621 z"
       id="path34948-7-6-1"
       inkscape:export-filename="/home/alex/Documents/ds/site_pro/flask/site_freelance/app/static/images/logo.png"
       inkscape:export-xdpi="96"
       inkscape:export-ydpi="96" />
    <path
       style="fill:#fcef3c;fill-opacity:1;stroke:#fcef3c;stroke-width:0.0441598;stroke-opacity:1"
       d="m 46.116472,260.16275 c 0,-0.0365 -0.0935,-0.64258 -0.20211,-1.34699 -0.2064,-1.33221 -0.25426,-1.82101 -0.10367,-1.0598 0.0482,0.24288 0.11642,0.48629 0.15182,0.54095 0.0708,0.1098 0.27352,0.13542 0.36274,0.0464 0.0671,-0.0671 0.0689,-0.12082 -0.0377,0.84498 -0.0793,0.71794 -0.15976,1.17529 -0.17108,0.9744 z"
       id="path34987-8-15-9"
       inkscape:export-filename="/home/alex/Documents/ds/site_pro/flask/site_freelance/app/static/images/logo.png"
       inkscape:export-xdpi="96"
       inkscape:export-ydpi="96" />
    <path
       style="fill:#fcef3c;fill-opacity:1;stroke:#fcef3c;stroke-width:0.0883196;stroke-opacity:1"
       d="m 76.704322,241.94677 c 0.0313,-1.23865 0.0557,-6.20665 0.0557,-11.04 0,-4.83331 0.0255,-8.37043 0.0557,-7.86034 0.35653,5.92087 0.31395,14.91479 -0.0958,20.22506 -0.0435,0.5675 -0.0499,0.0528 -0.0162,-1.32472 z"
       id="path35026-4-5-4"
       inkscape:export-filename="/home/alex/Documents/ds/site_pro/flask/site_freelance/app/static/images/logo.png"
       inkscape:export-xdpi="96"
       inkscape:export-ydpi="96" />
    <path
       style="fill:#fcef3c;fill-opacity:1;stroke:#fcef3c;stroke-width:0.0883196;stroke-opacity:1"
       d="m 59.493652,177.83644 c 0,-0.15558 0.59924,-1.31231 0.71776,-1.38564 0.14352,-0.0887 0.31221,0.16812 0.47226,0.71887 0.17594,0.60499 0.17606,0.60453 -0.1151,0.38924 -0.30612,-0.2263 -0.64461,-0.16717 -0.89968,0.15716 -0.0964,0.12238 -0.17525,0.17664 -0.17525,0.12036 z"
       id="path35065-5-4-7"
       inkscape:export-filename="/home/alex/Documents/ds/site_pro/flask/site_freelance/app/static/images/logo.png"
       inkscape:export-xdpi="96"
       inkscape:export-ydpi="96" />
    <path
       style="fill:#fcef3c;fill-opacity:1;stroke:#fcef3c;stroke-width:0.0883196;stroke-opacity:1"
       d="m 55.258492,165.2301 c -0.0121,-0.30165 0.71196,-1.6229 0.88993,-1.6229 0.0907,0 0.51931,0.89586 0.51873,1.08445 -1.7e-4,0.0595 -0.0793,-0.0221 -0.1753,-0.17919 -0.0963,-0.1578 -0.22642,-0.28704 -0.28924,-0.28704 -0.2176,0 -0.51038,0.27891 -0.72473,0.69045 -0.1184,0.22744 -0.21725,0.36876 -0.21939,0.31423 z"
       id="path35104-0-7-8"
       inkscape:export-filename="/home/alex/Documents/ds/site_pro/flask/site_freelance/app/static/images/logo.png"
       inkscape:export-xdpi="96"
       inkscape:export-ydpi="96" />
    <path
       style="fill:#fcef3c;fill-opacity:1;stroke:#fcef3c;stroke-width:0.0883196;stroke-opacity:1"
       d="m 58.257102,173.3537 c 0,-0.0314 0.11927,-0.42939 0.26505,-0.88425 0.14572,-0.45493 0.26766,-0.99565 0.27102,-1.20146 l 0.009,-0.37446 0.12936,0.42081 c 0.12914,0.42016 0.12878,0.42186 -0.23964,1.25854 -0.33791,0.76742 -0.43195,0.93756 -0.43195,0.78082 z"
       id="path35182-3-65-4"
       inkscape:export-filename="/home/alex/Documents/ds/site_pro/flask/site_freelance/app/static/images/logo.png"
       inkscape:export-xdpi="96"
       inkscape:export-ydpi="96" />
    <path
       style="fill:#fcef3c;fill-opacity:1;stroke:#fcef3c;stroke-width:0.0883196;stroke-opacity:1"
       d="m 58.564962,161.62134 c -0.23268,-0.60922 -0.40509,-1.12569 -0.38304,-1.14779 0.0215,-0.0214 0.18813,-0.10204 0.369,-0.17769 l 0.32886,-0.13729 -0.0671,0.24509 c -0.0916,0.33304 -0.0569,0.82746 0.11266,1.59901 0.0784,0.35595 0.12454,0.66508 0.10274,0.68689 -0.0215,0.0214 -0.22996,-0.45898 -0.46275,-1.06814 z"
       id="path35221-6-69-5"
       inkscape:export-filename="/home/alex/Documents/ds/site_pro/flask/site_freelance/app/static/images/logo.png"
       inkscape:export-xdpi="96"
       inkscape:export-ydpi="96" />
    <path
       style="fill:#fcef3c;fill-opacity:1;stroke:#fcef3c;stroke-width:0.0883196;stroke-opacity:1"
       d="m 77.084172,166.09527 c -0.0557,-0.18673 -0.21887,-0.51385 -0.3621,-0.72717 -0.14322,-0.21329 -0.24672,-0.40142 -0.23001,-0.41824 0.0168,-0.0168 0.16921,0.0604 0.33878,0.17165 0.27775,0.18209 0.31401,0.25338 0.36709,0.72205 0.0698,0.62025 0.0267,0.71806 -0.11376,0.25171 z"
       id="path35260-1-37-0"
       inkscape:export-filename="/home/alex/Documents/ds/site_pro/flask/site_freelance/app/static/images/logo.png"
       inkscape:export-xdpi="96"
       inkscape:export-ydpi="96" />
    <path
       style="fill:#fcef3c;fill-opacity:1;stroke:#fcef3c;stroke-width:0.0156128;stroke-opacity:1"
       d="m 76.439562,247.59858 c 0,-0.0604 0.009,-0.22513 0.0134,-0.36685 0.0342,-0.57645 0.12292,-2.73037 0.15128,-3.65337 l 0.0121,-0.38252 0.0163,0.16394 0.0163,0.16388 0.0511,-6e-5 c 0.0481,-2.4e-4 0.0511,0 0.0511,0.0558 0,0.16458 -0.21127,3.0257 -0.28813,3.90188 -0.0151,0.17671 -0.0197,0.2024 -0.0215,0.1171 z"
       id="path35373-0-4-3"
       inkscape:export-filename="/home/alex/Documents/ds/site_pro/flask/site_freelance/app/static/images/logo.png"
       inkscape:export-xdpi="96"
       inkscape:export-ydpi="96" />
    <path
       style="fill:#fcef3c;fill-opacity:1;stroke:#fcef3c;stroke-width:0.0156128;stroke-opacity:1"
       d="m 80.514142,248.14121 c 0,-0.0197 -0.0121,-0.0348 -0.0255,-0.0348 -0.0134,0 -0.0238,-0.009 -0.0238,-0.0163 0,-0.009 0.0319,-0.21457 0.0708,-0.45677 0.27909,-1.73015 0.75251,-4.83469 1.05388,-6.91191 0.0528,-0.3649 0.099,-0.66649 0.10244,-0.67009 0.0313,-0.0331 0.0348,-0.0595 -0.7354,5.15875 -0.44262,2.99872 -0.44053,2.98486 -0.44325,2.93137 z"
       id="path35412-6-52-6"
       inkscape:export-filename="/home/alex/Documents/ds/site_pro/flask/site_freelance/app/static/images/logo.png"
       inkscape:export-xdpi="96"
       inkscape:export-ydpi="96" />
    <path
       style="fill:#fcef3c;fill-opacity:1;stroke:#fcef3c;stroke-width:0.0156128;stroke-opacity:1"
       d="m 78.711652,253.95327 c -0.0273,-0.0208 -0.0255,-0.0498 0.0499,-0.82253 0.0435,-0.44081 0.084,-0.86117 0.0906,-0.93414 0.009,-0.0727 0.014,-0.12099 0.0168,-0.10654 0,0.0197 -0.10941,1.6989 -0.12536,1.85018 0,0.0301 -0.009,0.0318 -0.0319,0.014 z"
       id="path35488-3-5-1"
       inkscape:export-filename="/home/alex/Documents/ds/site_pro/flask/site_freelance/app/static/images/logo.png"
       inkscape:export-xdpi="96"
       inkscape:export-ydpi="96" />
    <path
       style="fill:#fcef3c;fill-opacity:1;stroke:#fcef3c;stroke-width:0.00551998;stroke-opacity:1"
       d="m 74.425902,266.34578 c -0.0238,-0.0944 -0.0226,-0.58887 0,-1.19849 l 0.009,-0.18221 v 0.16011 c 0,0.0877 -0.009,0.32405 -0.009,0.52441 -0.009,0.40282 0,0.4983 0.0162,0.51745 0.0151,0.0155 0.036,0.009 0.0452,-0.0109 0,-0.009 0.014,-0.0424 0.0226,-0.0764 0.009,-0.0331 0.0162,-0.0545 0.0162,-0.0481 0,0.0191 -0.036,0.20032 -0.051,0.25531 -0.0226,0.0822 -0.0365,0.0997 -0.047,0.0586 z"
       id="path35527-2-47-0"
       inkscape:export-filename="/home/alex/Documents/ds/site_pro/flask/site_freelance/app/static/images/logo.png"
       inkscape:export-xdpi="96"
       inkscape:export-ydpi="96" />
    <path
       style="fill:#fcef3c;fill-opacity:1;stroke:#fcef3c;stroke-width:0.353276;stroke-opacity:1"
       d="M 101.87739,63.14084 C 99.173452,58.67946 97.910742,53.26865 97.916772,46.16979 v -3.9488 l 1.45322,2.29627 c 0.799268,1.26298 2.389568,3.59569 3.534058,5.18393 3.59003,4.98179 5.2149,9.36887 5.24419,14.15805 l 0.009,1.14818 h -2.57505 -2.57497 z"
       id="path35603-0-4-6"
       inkscape:export-filename="/home/alex/Documents/ds/site_pro/flask/site_freelance/app/static/images/logo.png"
       inkscape:export-xdpi="96"
       inkscape:export-ydpi="96" />
    <path
       style="fill:#fcef3c;fill-opacity:1;stroke:#fcef3c;stroke-width:0.353276;stroke-opacity:1"
       d="m 109.96025,55.63619 c -0.24341,-0.82433 -1.3188,-2.96755 -2.38973,-4.76275 -1.68132,-2.81818 -1.91614,-3.42961 -1.7196,-4.47743 0.12519,-0.66751 1.54812,-4.66201 3.16208,-8.87668 1.61391,-4.21467 3.01613,-7.90156 3.11602,-8.19302 0.20867,-0.60851 0.0585,-1.15658 2.07979,7.59547 0.83135,3.59985 1.53913,7.66194 1.63137,9.36188 0.16063,2.9633 0.14769,3.02146 -0.98252,4.41597 -0.62988,0.77722 -1.88992,2.54315 -2.8001,3.92425 l -1.65469,2.51114 z"
       id="path35642-6-43-3"
       inkscape:export-filename="/home/alex/Documents/ds/site_pro/flask/site_freelance/app/static/images/logo.png"
       inkscape:export-xdpi="96"
       inkscape:export-ydpi="96" />
    <path
       style="fill:#fcef3c;fill-opacity:1;stroke:#fcef3c;stroke-width:0.353276;stroke-opacity:1"
       d="m 113.70464,65.45231 c -1.72395,-0.10763 -2.0234,-0.2233 -1.88556,-0.72804 0.0897,-0.32998 0.35937,-1.47447 0.59831,-2.54306 0.92301,-4.12781 2.41416,-6.49554 7.9317,-12.59426 1.55578,-1.71967 3.18024,-3.60362 3.60991,-4.18654 0.42969,-0.58292 0.78623,-0.84171 0.79243,-0.57517 0.0255,1.11778 -1.13486,8.14421 -1.64146,9.93715 -1.41,4.98991 -5.048,11.0148 -6.57251,10.88478 -0.4309,-0.0368 -1.70568,-0.12443 -2.83282,-0.19486 z"
       id="path35681-1-07-2"
       inkscape:export-filename="/home/alex/Documents/ds/site_pro/flask/site_freelance/app/static/images/logo.png"
       inkscape:export-xdpi="96"
       inkscape:export-ydpi="96" />
    <path
       style="fill:#fcef3c;fill-opacity:1;stroke-width:0.0883196"
       d="m 102.18582,139.48478 c -1.55463,-2.3413 -1.99725,-2.81147 -4.447888,-4.72535 -3.65668,-2.85595 -4.19682,-3.33577 -4.82675,-4.28757 -0.17838,-0.26955 -0.73708,-0.98742 -1.24166,-1.59533 -2.50163,-3.01408 -3.63608,-4.84742 -4.58478,-7.40898 -1.61298,-4.35549 -1.97003,-5.2991 -2.19685,-5.8045 -0.14085,-0.31405 -0.25623,-0.58625 -0.25623,-0.60494 0,-0.0186 0.33942,0.18727 0.75419,0.45768 1.14263,0.74477 3.48416,1.83516 6.62054,3.08295 3.75524,1.494 4.71734,1.96194 5.34333,2.59902 3.008308,3.06141 4.987738,7.4271 5.608338,12.36958 0.16115,1.28329 0.27381,6.19786 0.15587,6.80059 l -0.0774,0.39743 z"
       id="path2265-8-0"
       inkscape:export-filename="/home/alex/Documents/ds/site_pro/flask/site_freelance/app/static/images/logo.png"
       inkscape:export-xdpi="96"
       inkscape:export-ydpi="96" />
    <path
       style="fill:#fcef3c;fill-opacity:1;stroke-width:0.0883196"
       d="m 106.44744,140.74053 c 0,-0.62012 0.28709,-3.23083 0.52174,-4.7609 0.74277,-4.84223 2.20155,-8.48335 4.57568,-11.42089 0.60284,-0.74588 2.29344,-2.41979 3.02344,-2.99371 0.90734,-0.71324 2.22876,-1.28567 5.96532,-2.58415 1.83741,-0.63848 2.15786,-0.72251 3.35619,-0.87993 0.7286,-0.0957 1.73908,-0.23189 2.24546,-0.3026 0.50631,-0.0707 0.95195,-0.1286 0.99023,-0.1286 0.085,0 -0.25315,0.79576 -1.52236,3.58832 -2.04336,4.49546 -3.43811,6.66367 -5.81791,9.04381 -1.66229,1.66245 -2.89315,2.58252 -6.03598,4.51151 -1.05967,0.65051 -2.26791,1.4382 -2.68477,1.75047 -1.13596,0.85084 -2.29889,2.00733 -3.38316,3.36471 -0.53416,0.66875 -1.0305,1.23863 -1.10295,1.26648 -0.10732,0.0418 -0.13163,-0.0435 -0.13093,-0.45457 z"
       id="path2304-6-6"
       inkscape:export-filename="/home/alex/Documents/ds/site_pro/flask/site_freelance/app/static/images/logo.png"
       inkscape:export-xdpi="96"
       inkscape:export-ydpi="96" />
  </g>
</svg>
