<svg width="210mm" height="297mm" viewBox="0 0 210 297" xmlns="http://www.w3.org/2000/svg"><path style="fill:#000;stroke-width:.368069" d="M97.583442 118.21246c-7.48805-1.02421-12.50551-2.68164-13.86697-4.58083-.65547-.91434.41641-8.39676 1.25985-25.94669 11.94455 5.1443 29.510458 6.20322 46.175828 3.19285-.99261 20.65381-.59475 25.90547-4.16875 26.42794-5.45418.79729-18.59531 2.38448-29.399948.90673zm23.025798-2.46604c2.149-.27802 4.54244-.73664 5.31874-1.01906l1.41146-.51358.20542-4.27432c.20509-4.26728.20404-4.27396-.63752-4.04803-4.23317 1.13658-13.0823 1.76364-20.0581 1.42138-6.8188-.33457-16.968378-2.04599-19.789138-3.33682-.58149-.26609-.65001.0592-.83849 3.98105l-.20525 4.27078 1.33118.6288c1.60938.76017 5.97853 1.82333 10.08456 2.45398 4.960648.76186 18.665628 1.0196 23.177138.43582zm-29.048698-4.05236c-.40143-.43883-.62209-1.04126-.49037-1.33876.13172-.2975.24696-.69638.25609-.88636.0295-.61339 1.88241-1.00578 2.63533-.55807 1.01847.60563 1.21352 2.12845.37912 2.95998-.88901.88594-1.86473.8239-2.78017-.17679zm29.612088-7.67049c2.14901-.27805 4.54244-.73664 5.31874-1.0191l1.41147-.51357.20542-4.274322c.20508-4.267318.20403-4.273968-.63753-4.048028-4.23316 1.136578-13.08229 1.763638-20.0581 1.421378-6.81879-.33458-16.968378-2.045988-19.789138-3.336818-.66319 1.61184-.87068 4.650878-1.04374 8.25183l1.33119.62879c1.60937.76017 5.97852 1.82334 10.08455 2.45399 4.960648.76186 18.665638 1.01959 23.177138.43585zm-29.048698-4.052432c-.40142-.43879-.62209-1.04122-.49037-1.33872.13172-.2975.24696-.69638.2561-.88637.0295-.61338 1.8824-1.00577 2.63532-.55806 1.01848.60563 1.21352 2.12844.37912 2.959982-.88901.88594-1.86473.8239-2.78017-.176832z"/><path style="fill:#000;stroke-width:.365841" d="M98.552102 106.40473c-7.39728-1.01982-12.35335-2.67433-13.69732-4.57268-.64705-.91394-.63957-1.61698.20387-19.16694.84344-17.54997.90341-18.25049 1.63512-19.09816 1.11812-1.29536 3.92761-2.20622 8.81241-2.85704 3.72093-.49576 5.705598-.51186 13.995108-.11347 8.28951.39839 10.26349.60474 13.91972 1.45503 4.79988 1.11627 7.50907 2.29235 8.49782 3.68896.64701.9139.63957 1.61678-.20233 19.13483-.99261 20.65381-.71939 19.28669-4.118 20.60578-5.08217 1.97253-18.37274 2.39518-29.046398.92369zm22.749908-2.47926c2.12329-.27929 4.48816-.73925 5.25528-1.02216l1.39476-.51438.20542-4.274312c.20508-4.267288.20394-4.273968-.6275-4.047548-4.18285 1.138998-12.92576 1.771158-19.81736 1.432948-6.73647-.33062-16.762838-2.036108-19.548878-3.325268-.57433-.26575-.64222.0596-.8307 3.981418l-.20525 4.270782 1.31479.62801c1.58956.75921 5.90547 1.81982 9.96169 2.44807 4.900458.75897 18.440238 1.00877 22.897748.42244zm-28.696508-4.035482c-.39633-.43858-.61399-1.04086-.48369-1.33843.13031-.29757.2444-.6965.25353-.88649.0295-.61339 1.86032-1.00684 2.60391-.55957 1.00586.60501 1.19768 2.12768.37284 2.959672-.87882.88643-1.84275.82496-2.74659-.175182zM121.8654 92.20258c2.12329-.27929 4.48816-.73925 5.25528-1.02215l1.39476-.51438.20542-4.27431c.20509-4.26733.20404-4.27397-.6275-4.04755-4.18284 1.139-12.92576 1.77116-19.81736 1.43295-6.73647-.33062-16.762838-2.03612-19.548878-3.32528-.57433-.26574-.64222.0596-.83069 3.98142l-.20525 4.27079 1.31479.628c1.58955.75922 5.90547 1.81983 9.96168 2.44808 4.900458.75897 18.440248 1.00877 22.897748.42243zm-28.696498-4.03551c-.39634-.43854-.614-1.04083-.4837-1.33839.13031-.29757.2444-.69651.25353-.88649.0295-.61339 1.86032-1.00684 2.60391-.55958 1.00586.60502 1.19768 2.12768.37285 2.95968-.87882.88643-1.84276.82495-2.74659-.17522zM122.4288 80.4797c2.12328-.27929 4.48816-.73928 5.25528-1.02215l1.39476-.51438.20542-4.27432c.20508-4.26732.20403-4.27396-.62751-4.04754-4.18284 1.13899-12.92576 1.77116-19.81735 1.43291-6.73648-.33062-16.762848-2.03608-19.548878-3.32524-.57434-.26574-.64222.0596-.8307 3.98142l-.20525 4.27078 1.31479.62798c1.58955.75925 5.90547 1.81986 9.96169 2.44807 4.900458.75901 18.440238 1.0088 22.897748.42247zm-28.696508-4.03551c-.39634-.43855-.614-1.04083-.48369-1.33843.13031-.29757.24439-.69647.25352-.88646.0295-.61338 1.86032-1.00684 2.60391-.55957 1.00586.60502 1.19768 2.12768.37285 2.95968-.87882.88643-1.84275.82492-2.74659-.17522zm28.341038-7.57295c3.98274-.48592 7.18399-1.24373 7.20619-1.70587.009-.18587-.76137-.61133-1.71179-.94548-8.26433-2.90546-24.75377-3.97396-34.305018-2.22291-3.69471.67734-4.52847 1.0386-3.73113 1.61659.85701.62123 6.75473 2.16643 10.28283 2.69406 4.709048.70425 18.288248 1.04808 22.258918.56361z"/><path style="fill:#4382ca;fill-opacity:1;stroke:#4382ca;stroke-width:.104486;stroke-opacity:1" d="M100.35174 115.59246c-4.675478-.41976-10.612208-1.7364-13.303558-2.95028l-.98412-.44382.22476-3.97533c.25523-4.51466.23111-4.4098.94451-4.11621 3.46442 1.42576 15.005928 3.22027 21.356348 3.32048 6.81664.10757 13.61859-.39935 17.58756-1.31081 1.0421-.23932 1.15747-.24723 1.30055-.0899.13601.14964.13757.67597.0116 3.93238l-.14545 3.75952-.27242.32256c-.33108.39195-1.22386.70849-3.01218 1.06783-3.516.70646-5.92289.88969-11.90731.90603-2.13617.006-10.27524-.28556-11.80028-.4225zm-6.416858-3.3313c.58931-.34524.91508-.88662.94787-1.57542.0339-.70456-.22654-1.32555-.7086-1.69193-.3075-.23373-.43418-.26142-1.18147-.25824-.92252.004-1.48152.19331-1.64087.55594-.0546.12409-.16721.46819-.25043.76486-.1978.70509-.087 1.10307.4768 1.71216.74864.80884 1.53592.97347 2.3567.49263zM99.457712 103.72294c-4.48701-.52606-10.02113-1.88338-12.34506-3.02782l-.50125-.24682.19519-2.681002c.24121-3.313248.61832-5.402238.96533-5.347978.0802.0123.58619.16471 1.12441.33822 2.29059.73825 6.96002 1.64143 11.659868 2.255408 2.74537.35862 8.97164.74286 11.57702.71446 5.92203-.0646 10.53414-.46797 14.129-1.235638 1.80678-.38586 1.77253-.38532 1.8534-.0298.0378.16619-.0144 2.031758-.116 4.145598l-.18471 3.843492-.74558.27736c-.99876.37156-2.14997.63885-4.20615.97674-2.7651.45441-5.51977.60175-10.87983.5821-2.09611-.008-11.32422-.42341-12.525698-.56414zm-5.20939-3.04912c.44176-.20502.95958-.754822 1.12261-1.191942.27834-.74628.008-1.69331-.63303-2.21742-.35309-.28871-.9626-.38401-1.70505-.26675-.83865.13248-1.1379.42104-1.35605 1.30769-.15568.6327-.15414.71651.02 1.09929.4886 1.074052 1.68724 1.670272 2.55157 1.269132z"/><path style="fill:#4382ca;fill-opacity:1;stroke:#4382ca;stroke-width:.104486;stroke-opacity:1" d="M102.83682 103.69409c-5.159718-.55983-10.275398-1.59124-14.141788-2.85126l-1.44192-.46985.1443-3.576292c.0794-1.967008.19263-3.794838.25137-4.061828.13113-.59486.0974-.5948 2.01114.002 3.34139 1.04208 9.27877 2.05034 15.365088 2.609208 6.82948.62721 16.55865.1562 21.80913-1.055708.9717-.22429 1.11932-.23527 1.25087-.0929.1263.13665.12475.773558-.0101 4.156828l-.15922 3.995382-.94197.33343c-1.37464.48659-2.77292.75016-5.20158.98035-4.84201.45885-8.1999.54685-13.35418.34993-2.2397-.0858-4.75126-.22834-5.58111-.31951zm-8.245368-3.06655c.82239-.29806 1.25088-.884192 1.29428-1.770402.0335-.69709-.26217-1.37612-.74517-1.70765-.54597-.37484-1.90174-.32918-2.46387.083-.3441.25226-.6921 1.348-.58262 1.83445.16366.72716 1.18261 1.650392 1.86493 1.689832.131.006.41553-.0507.63245-.12927zM101.72388 92.02575c-4.759748-.40985-10.858638-1.80188-13.279718-3.03103l-.69123-.35087.2218-3.95025c.16911-3.01328.25525-3.98681.36276-4.10432.12591-.13756.22464-.12306.92252.13607 2.33572.8672 7.89454 1.94387 13.570478 2.62822 7.79658.94014 18.29744.60686 24.54246-.77889.99367-.22046 1.21458-.24078 1.28272-.11761.16149.2917.15261 1.24734-.0436 4.68938l-.19889 3.48942-.85221.31957c-1.00035.3751-3.39536.871-5.54706 1.14848-2.59243.3344-6.25809.42888-12.20181.31475-3.89107-.0747-5.04516-.13089-8.08794-.39711zm-6.092698-3.35726c1.04131-.71785 1.11889-2.36351.15025-3.17881-.31008-.26083-.44505-.30154-1.06249-.32053-.51962-.0157-.84109.0378-1.21175.20333-.48831.21776-.51127.24793-.71747.94261-.31111 1.04815-.0935 1.65936.82372 2.31319.40225.2867.54344.32989 1.04651.32027.43347-.009.68084-.0796.97161-.28004zM101.24505 80.22285c-4.722468-.56084-10.200628-1.89756-12.433138-3.0339l-.48503-.24688.17909-3.67391c.15837-3.24291.26916-4.34273.45596-4.51234.0291-.0263.44582.0929.92602.26471 2.35011.84217 6.86699 1.74214 12.611578 2.51303 2.65137.35578 9.90221.73494 12.46917.65223 4.58755-.14822 9.38134-.60022 11.92694-1.12462 2.29373-.47244 2.2123-.46147 2.3453-.31517.0918.10093.0742 1.12157-.0715 4.15279l-.19315 4.01897-.74554.27653c-1.47311.54651-4.78339 1.17054-7.23108 1.36316-1.61381.12701-5.04119.20646-8.11608.18825-2.24841-.0134-10.45234-.38176-11.63855-.52235zm-5.536218-3.02741c1.15704-.3748 1.71031-1.96043 1.03598-2.96909-.49716-.74362-1.25729-.9684-2.35976-.69793-.67115.16474-.8185.32389-1.06728 1.15273-.19976.66556-.19953.67414.0335 1.22034.44289 1.03789 1.44675 1.58893 2.35756 1.29395z"/><path style="fill:#59b8ca;fill-opacity:1;stroke:#43a8ca;stroke-width:.104486;stroke-opacity:1" d="M101.99806 68.49966c-1.01314-.0932-2.556418-.30439-3.429488-.4691-3.9991-.75469-8.41331-1.98697-9.067-2.5311-.23953-.19943-.24014-.20619-.0366-.41047.54247-.54441 5.25337-1.40121 9.34627-1.69982 6.378038-.46524 15.269618.005 21.755208 1.15072 3.85043.6802 8.08079 1.9266 8.51958 2.51026.16822.22367-.0944.37138-1.24684.70108-1.63445.46763-4.52049.95995-6.72363 1.14692-3.54734.30103-13.85203.0863-19.11751-.39849z"/><path d="m101.90644 144.6745-.97747-1.7602c-1.679058-3.02333-2.506458-4.17321-4.184758-5.52607-3.60024-2.90166-8.67596-5.0143-12.59485-15.81546-2.24279-6.18124-3.45538-9.30892-5.37083-12.13418-.83482-1.23146-1.65149-1.95657-1.5998-2.00302.051-.0462.9473-1.70871 1.06367-1.04687l.99244-.71302 2.03274 1.92861c6.54049 6.28425 15.69144 11.12329 24.623538 10.07623 9.28194 2.82186 26.7558-8.47845 26.79385-8.50791l1.18928-1.40082 1.06536.83028.85193.81508-.5808 1.00117c-2.45239 4.2278-4.5378 6.37055-7.76189 13.53076-3.87602 8.60832-9.815 10.68752-12.97476 13.33822-3.61683 3.03364-4.00225 3.42498-5.325 5.40446l-1.32698 1.98594m.45886-5.42119c.64316-.81406 2.00095-2.08054 3.01712-2.81431 3.5888-2.59142 9.47627-4.44818 13.73979-13.79462 1.44829-3.17479 2.59962-5.80953 2.55843-5.85485-.13977-.1539-11.11669 3.2305-12.66527 4.42002-5.10491 3.92105-7.52429 8.98447-8.3605 17.49689-.33084 3.36861-.48143 3.3207 1.71043.54687zm-5.09586-2.88108c-.0522-6.10505-2.1298-11.48665-5.935748-15.37293-1.28852-1.31576-8.54236-3.31358-11.85887-5.53913l-.93048-.62436.46431 1.02949c.25542.56621 1.17314 3.01721 2.03947 5.44689 1.81804 5.09877 4.90407 7.47537 6.09317 9.46851.8006 1.34192 4.51216 3.70465 6.79266 5.77346.590198.53543 1.532178 1.73072 2.093488 2.65616.56125.92555 1.10225 1.69031 1.20244 1.69948.1061-1.44934.0296-2.40946.0395-4.53757zM95.673982 65.667c1.26729.74776-6.01828-4.67891-6.55749-5.33198-4.21421-5.10538-4.23516-5.03929-4.22924-5.09291.0209-.14475 1.97055-1.37288 2.1621-1.35873.0585.0002.57007.70557 1.13602 1.55785 1.36515 2.05682 3.47859 3.99714 7.83261 7.19128l3.59902 2.6404-.71945-1.3353c-2.10177-3.90065-3.46234-8.57663-3.77357-12.96852-.10263-1.44974-.13877-4.94299-.0802-7.76306.11451-5.52468-.0689-9.78109-.50683-11.73481-.15071-.67308-.26906-1.30632-.26302-1.40725.0121-.15181.46292-.26417 2.49102-.61521.0389-.0104.41315 1.2797.83366 2.85841.96257 3.61363 2.29838 7.09073 3.765758 9.80185 1.45768 2.69356 1.73526 2.97595 2.01737 2.05277.57633-1.88594.98878-2.98474 2.6383-7.02738 2.20225-5.39741 3.19527-8.2256 4.11421-11.71763.77038-2.92704 1.55775-7.29146 1.72836-9.57809l.10691-1.43246 1.37003.10168 1.37026.10168-.1253 1.68303c-.18563 2.49406.0906 7.78251.57866 11.09722.23645 1.60411 1.11281 5.7273 1.94734 9.16257.8346 3.43557 1.59192 6.9917 1.68282 7.90318.0906.91148.23941 1.75668.32991 1.87838.56102.75381 5.44491-7.01426 7.28778-11.5912l1.16949-2.90457.73522.21772c.40439.12.96727.32535 1.25087.45706l.51561.23906-.59282 1.86242c-.67118 2.10847-1.32078 6.03744-2.25144 13.61753-1.03427 8.42387-2.72155 13.07465-6.58887 18.1619-.52528.69073-.85257.83736 3.60268-1.61412 4.5074-2.47999 7.04425-4.26169 8.47588-5.9536.66956-.79101 1.31365-1.43444 1.43123-1.42953.1171.0113.62188.38426 1.12076.84378l.90705.8351-1.76885 1.89264c-3.40996 2.62596-6.69393 4.71252-9.91929 6.54803m-7.54268-.98606c3.39882-3.87015 5.65485-8.29037 6.73592-13.20163.81007-3.6801 1.50816-9.91062 1.04419-9.31921-.1923.2452-.92347 1.20539-1.62446 2.13359-.70106.92809-2.63762 3.10785-4.30344 4.84385-4.53107 4.72168-6.0231 7.48652-7.01681 13.0044-.0969.53769-.19915 1.26874-.29876 2.09856 3.66689.28258.82334.034 5.46336.44015zm-8.65995-.76476c.0888-7.42421-1.00005-10.58389-5.41144-16.46498-1.14924-1.53226-2.7479-3.90566-3.552388-5.27438l-1.46279-2.48868-.10216 3.49938c-.25762 8.86781 1.0584 14.10509 5.271758 20.37593 3.68145.30354 1.0537.1116 5.25666.35245zm2.47831-8.38856c.0511-.6862 2.37285-4.34846 3.68905-5.81878 1.18869-1.32794 1.49411-1.84769 1.66275-2.82933.34574-2.01282-.0557-4.80882-1.61176-11.21287-.81812-3.3674-1.62423-6.96111-1.79142-7.98598l-.3042-1.86346-.89806 2.69922c-.49407 1.48467-1.81984 4.96961-2.94634 7.74446-1.12645 2.77457-2.25863 5.76836-2.51602 6.65265-.8096 2.78193-.77044 3.02288.88048 5.42516 1.38035 2.0083 3.4016 6.28831 3.34278 7.07818-.014.19157.0859.3568.22317.36699.13702.0132.25832-.10508.26957-.25624zM107.84137 144.68035l-4.5997 33.6008c-1.90437 13.91122-6.592828 26.6844-7.194338 29.00039-.59896 2.31664-1.01761 4.16612-.92451 4.11119.0934-.0545 1.26057-2.35591 2.59405-5.11338 13.123978-27.13594 28.657738-50.26019 40.400188-60.14079l1.80773-1.52132 2.84574.0766c10.60075.28397 17.32872 2.6976 22.61491 8.11315l1.49492 1.53148.18831 2.08037c.45764 5.05652.18083 12.06805-.76016 19.25389-.59601 4.55174-4.24241 18.97019-6.09359 24.09488-8.59334 23.7895-21.13854 46.48888-45.74489 82.77155-.38606.56937-.40741.56918-1.45078-.0109l-1.05898-.58823.51206-1.724c.6018-2.0259 3.0775-8.23904 9.28739-23.30611 8.22215-19.94946 10.27032-25.67779 13.08927-36.60884 2.20097-8.55143 2.76756-11.66305 3.29655-18.23857.43253-5.37593.31326-12.12699-.29985-16.98037-.139-1.10023-.2868-2.29314-.32846-2.65095-.0671-.5772-.49976-.13915-3.84022 3.90943-10.82246 13.10917-16.04768 19.91957-22.1271 28.83999-11.50456 16.88089-21.311148 36.02167-31.273958 61.04146-1.19965 3.0126-2.21326 5.48808-2.25265 5.50119-.0394.014-1.13155.30657-2.42715.65214-1.29555.34552-2.75433.74689-3.24179.89192-.48746.14505-.91581.16515-.95189.0447v-.00012c-.036-.12036.0511-5.70374.19398-12.40759.68452-32.13945.31691-41.88633-2.14214-56.78768-.97852-5.92946-3.49408-16.83319-4.81126-20.85453l-.22636-.69073-.60046.99303c-1.14437 1.89259-3.78785 7.27297-5.08252 10.34468-2.1498 5.10085-3.69868 9.96495-5.06807 15.91629-1.93221 8.39775-2.63947 13.97045-3.89974 30.72812-.93008 12.36837-2.35574 24.2273-2.95226 24.55698-.11033.0614-.73134.0522-1.3792-.0197l-1.1779-.1317V273.848c0-.61108-.17327-3.56444-.38165-6.56304-.34649-4.98664-.80924-8.84316-3.18697-26.55736-1.49469-11.13641-1.84455-20.0026-1.12557-28.51891 1.24757-14.77621 5.51759-30.17435 13.72733-49.50275 1.96834-4.63439 1.79309-4.4545 5.11726-5.25422 2.99768-.72101 5.34745-.63284 9.1484.34342 3.58794.91778 6.07368 2.03379 9.97626 4.46372l2.14186 1.3336.68168 4.88505c2.42837 17.40269 3.94255 32.2648 4.90721 48.16341l.31018 5.11156 8.9862-34.71428 7.343008-42.34144m-24.681938 125.9195c.28854-1.84033.32074-2.66605.0988-2.53529-.16522.0972-.60986 4.14478-.4595 4.1837.0539.014.21638-.72785.36071-1.64841zm-30.7113-13.45562c.14607-1.71787.49448-6.19928.77404-9.95857 1.00218-13.47534 1.85662-19.90716 3.72803-28.06324 2.29738-10.01258 5.97552-19.3443 10.97781-27.85162l1.37542-2.33909-.83755-4.10139c-.46066-2.25568-1.13277-5.20405-1.49353-6.55191-.76638-2.86293-.50759-3.09207-2.89599 2.56439-3.28205 7.77286-4.31278 10.72478-6.00233 17.19066l-1.61959 6.1969-1.23173-.16731c-.67733-.0926-1.27669-.24422-1.33256-.33466-.0545-.0944.67333-3.12479 1.61872-6.7354 1.91417-7.30988 3.22729-10.94219 7.28413-20.14286l2.26727-5.14232-.64792-2.05067c-.35641-1.12784-1.02579-3.06492-1.48755-4.30448-.98914-2.65496-.67884-2.96507-3.15658 3.15588-5.37541 13.27943-8.97535 25.52737-10.60782 36.08948-1.77338 11.4749-1.73033 21.45756.15344 35.58103.47551 3.56456 1.27536 9.56509 1.77749 13.3346.50214 3.76939.95282 6.83193 1.00144 6.80531.0493-.0267.20808-1.45375.35415-3.17166zm28.88739 1.54446c1.54929-14.59406 1.92241-21.64325 1.65927-31.34402-.20367-7.50705-1.25789-18.07763-2.56214-25.69096-.28663-1.67324-.58213-3.43306-.65685-3.91076l-.13569-.86859 1.34195-.29452 1.34201-.29446.56525 3.29817c1.939 11.31202 2.94206 22.33815 2.93527 32.26314-.009 8.60403-.3871 14.57792-1.73347 27.17875-.45677 4.27524-.79346 7.83598-.74833 7.91267.22491.38158.89533-3.66307 3.23738-19.51421 2.53732-17.17633 2.55072-17.29217 2.40006-20.79507-.75239-17.49022-2.67114-38.53688-5.07729-55.68966l-.79787-5.68884-1.69228-1.05538c-3.21226-2.00339-5.39043-2.95225-8.72319-3.80003-2.73965-.69647-3.4244-.78267-5.28752-.66271-1.17697.0755-2.42396.26732-2.77115.42545l-.63104.28767.89406 2.2924c2.35858 6.04711 5.22475 15.9225 6.43032 22.15658.38833 2.00768 1.19258 5.29245 1.78736 7.29949 5.20886 17.57834 7.46604 33.96996 7.5179 54.59483.0116 4.66357-.13459 15.03471-.25658 18.19017-.11724 3.03533.17618 1.1174.96257-6.29011zm50.572888 1.48588c16.45085-25.81865 26.45496-45.56558 32.7087-64.56321 1.77146-5.38174 4.42897-16.47313 5.0064-20.89543.76952-5.89327 1.12239-13.77037.7419-16.55881l-.12486-.91488-4.0823 3.31047c-2.24535 1.82071-4.39626 3.57919-4.77965 3.90776l-.69734.59745-.1199 3.83558c-.31128 9.95526-1.51888 19.07628-4.02092 30.37077l-.79747 3.59953-1.40716-.36378-1.40703-.36379 1.30877-5.66053c1.88887-8.16929 2.90197-15.44877 3.38617-24.33218.1331-2.44148.22074-4.47508.1948-4.51918-.10701-.1815-5.87998 5.39299-8.83722 8.53362l-3.17874 3.37567.41268 2.93991c2.07039 14.74557.46118 29.75916-5.00455 46.69243-2.57338 7.97235-5.05599 14.44347-11.86652 30.93045-2.26519 5.48348-4.13376 10.0511-4.15227 10.15042-.068.36634 2.94322-4.15017 6.71655-10.07227zM95.317452 239.0456c11.027248-21.48492 11.464938-22.23262 19.185528-32.77715 6.60018-9.01451 24.30035-30.88405 24.60078-30.39583.098.15918 1.06264-.68197 2.35887-2.05659 4.74773-5.03466 9.63117-9.44934 17.0501-15.41333l4.85714-3.90474-1.76252-1.43767c-3.07605-2.50894-4.14037-3.0174-8.90406-4.25429-3.70825-.95868-4.68183-1.12366-7.8698-1.29804-2.18425-.11974-3.83679-.0831-4.1348.0926-1.05021.61671-4.81213 4.23889-7.42068 7.14514-12.95863 14.43667-29.04459 41.80182-40.146218 68.29576-1.50438 3.59037-2.06766 5.36323-4.91475 15.46956-1.76867 6.27793-3.18674 11.46364-3.15135 11.52368.0348.0595.54315-1.18794 1.12865-2.77336 1.46122-3.95746 5.3518-13.28812 7.56135-18.1343 6.594788-14.46407 14.258658-27.60444 23.257978-39.8785 3.59008-4.89636 6.9273-9.05071 7.21155-8.97726.31203.0812 1.89427 1.5009 1.85244 1.66287-.0191.0727-1.07615 1.44631-2.34953 3.05191-13.07471 16.48671-24.154468 36.05735-32.968208 58.23376-3.22154 8.10554-6.12356 16.19103-5.50842 15.34716.0878-.11928 4.61669-8.9039 10.06595-19.52093zm-7.71369-9.0543c1.68067-6.50411 6.66828-24.38393 10.42317-39.73283 3.754908-15.349 5.161598-28.75059 5.443418-29.84855.30154-1.16665 1.17146-12.06551 1.02968-12.10096-.47139-.11757-3.79087 22.21516-9.223018 46.99015-9.09561 35.18261-9.61085 37.2925-10.22814 41.5414-.35775 2.46197-.68835 4.63097-.73464 4.81996-.0493.18848-.0121.30166.0746.25016.0878-.0517 1.53403-5.41521 3.21482-11.91933z" style="fill:#000;stroke-width:.0660941"/><path style="fill:#fcef3c;fill-opacity:1;stroke:#fcef3c;stroke-width:.939721;stroke-opacity:1" d="M91.457272 243.37166c0-.77525 3.35096-8.29256 7.45577-16.70516 7.385598-15.13646 13.799278-25.85131 22.693998-37.91368 4.88719-6.6275 5.35116-7.84897 3.2828-8.64261-2.75062-1.05545-19.94249 24.64005-29.436818 43.99716-5.13693 10.47324-5.88439 9.75698-1.47097-1.40959 9.473738-23.97004 29.242658-56.72438 42.147918-69.83357 5.21095-5.29319 5.49741-5.44426 9.2335-4.86989 7.00016 1.07603 13.36732 3.21376 15.02392 5.04427 1.57354 1.73875 1.43645 1.96164-3.82839 6.22712-13.08968 10.60505-25.22015 23.78574-39.94311 43.40105-8.93666 11.90633-9.24122 12.39216-17.857328 28.48845-4.01159 7.4943-7.29723 12.99171-7.30129 12.21645z"/><path style="fill:#fcef3c;fill-opacity:1;stroke:#fcef3c;stroke-width:.469859;stroke-opacity:1" d="M121.50819 265.91674c-.009-.2629 1.38296-3.8574 3.08649-7.98768 9.28954-22.52343 13.44494-35.19421 15.48325-47.21261 1.05985-6.24865 1.41539-19.4056.69983-25.88635l-.58086-5.25967 5.7324-5.68821 5.73247-5.6882-.31389 4.93355c-.45208 7.10394-1.50612 14.79065-2.92436 21.32499-1.64517 7.58073-1.64279 7.87246.0671 8.33788.76232.20738 1.44132.32172 1.50914.25402.068-.0679.75826-3.28511 1.53461-7.14983 1.80179-8.97013 2.79005-16.60364 3.16706-24.46444l.299-6.23437 4.36109-3.55191c2.39873-1.9535 4.48083-3.55181 4.62707-3.55181.4453 0 .29696 8.67957-.23099 13.52703-.5601 5.14127-2.6817 14.92043-4.76155 21.94744-3.09003 10.43941-10.25581 26.73307-17.7711 40.40789-6.48347 11.79739-19.68876 33.19054-19.71689 31.94228zM74.861912 245.2512c-.52099-22.31947-1.93511-32.4349-7.52109-53.79916-.91216-3.48863-2.23827-8.77453-2.94693-11.7464-.70859-2.97186-2.30307-8.46515-3.54315-12.20727-1.64401-4.961-2.10375-6.89963-1.69727-7.15801 1.914-1.21711 8.71959.2365 14.03664 2.99792 4.1449 2.15275 3.69102 1.10595 5.05937 11.66882 1.83666 14.17778 3.32295 30.14396 4.24351 45.58397.44013 7.38357.39256 8.95418-.46234 15.27047-1.3575 10.02823-3.30432 21.6614-3.05877 18.27754 1.11757-15.40261 1.26196-19.27712 1.00497-26.97758-.31232-9.36048-.68086-13.2915-2.26136-24.12277l-1.01738-6.9729-1.41151.28228c-.77629.15531-1.49318.36401-1.59296.46391-.0999.0997.24045 3.00481.75634 6.45556.51588 3.45085 1.21642 8.70572 1.55688 11.67759.80698 7.0457.69641 29.68875-.18355 37.58888l-.65429 5.87314zM44.547992 247.09095c-.84527-6.43881-1.76885-14.45554-2.05229-17.81503-1.24015-14.69836 1.12267-30.81467 7.09187-48.37241 3.07177-9.0354 6.20815-16.82386 6.59305-16.37249.5739.67297 2.35557 5.83757 2.35557 6.82811 0 .53183-1.49081 4.44794-3.3128 8.70247-2.97297 6.94146-5.30632 13.98832-7.0088 21.16552-.32509 1.37066-.51276 2.57044-.41716 2.66603.0956.0957.7843.2429 1.53032.32702 1.31132.14785 1.38592.0435 2.24383-3.13599 1.86707-6.91853 3.8574-12.89592 6.16395-18.51155 2.7418-6.67483 2.62166-6.70524 4.24606 1.08021l1.06867 5.12191-2.49323 4.51019c-8.13919 14.72474-11.53065 28.38646-13.54169 54.55039-.40723 5.29767-.78308 9.93153-.83541 10.29729-.0522.36598-.78668-4.60289-1.63194-11.04167z"/><path style="fill:#fcef3c;fill-opacity:1;stroke:#fcef3c;stroke-width:.0830602;stroke-opacity:1" d="M84.408202 241.54614c-.0162-.2716.93902-6.37875 1.2087-7.7283.64769-3.24231 1.91272-8.3098 6.92916-27.75661 2.73983-10.6214 2.98022-11.62328 4.27153-17.80196 1.65509-7.92009 2.9138-14.48843 5.437318-28.37488 1.9716-10.84878 2.28758-12.40654 2.19686-10.82965-.17038 2.96426-.67762 8.86252-.89638 10.42416-1.89433 13.52516-3.35759 21.56308-5.655088 31.06453-1.54151 6.37486-3.77062 14.91694-7.97642 30.56609-.97602 3.63197-2.30266 8.62167-2.94808 11.08861-1.03317 3.94957-2.30203 8.66099-2.4941 9.26122-.0365.11431-.0698.15329-.0736.087zM85.314732 249.22763c0-.32741 5.27627-19.02448 5.60258-19.85351.16411-.41673.11794-.12005-.11631.74759-.32231 1.19403-.23379 1.80452.27427 1.88923.60087.10001 1.20748-.70924 2.91061-3.88271.39232-.73085.71358-1.28781.71399-1.23729 0 .0498-.20924.53613-.46588 1.07969-1.93546 4.09988-5.91891 13.58514-8.01656 19.08899-.76661 2.01138-.9027 2.33827-.9027 2.16801zM85.361022 257.98841c.17861-.90908 2.96085-8.4901 4.96864-13.5388.62889-1.58147.70465-1.73235.66138-1.3184-.0423.40938-.0255.49024.13626.65228.22346.2235.59322.18214.89336-.10002.42591-.40016 2.14592-3.17972 3.88286-6.2748.49402-.88025.91593-1.58281.93768-1.561.0215.0214-1.16658 2.38655-2.64068 5.25516-5.58541 10.86938-8.4202 16.35947-8.65445 16.76097-.23407.40114-.24027.40543-.18505.12456z"/><path style="fill:#fcef3c;fill-opacity:1;stroke:#fcef3c;stroke-width:.0415303;stroke-opacity:1" d="M77.424232 266.78248c0-.48351.3158-3.65802 1.19866-12.0749l.0784-.74758.009.41645c.009.47255.0585.60197.24614.59972.26401 0 .31627-.13093.56885-1.39.18006-.8973.72971-4.04563.87752-5.02507.0418-.2741.0812-.46693.0897-.42846.014.0699-.12199 1.01041-.82531 5.70282-.91761 6.12315-1.59836 10.39364-1.88429 11.82122-.13864.69136-.29301 1.28144-.33548 1.28144-.0104 0-.0192-.0699-.0192-.15564zM74.455662 265.21469c.011-.59385.0389-1.77129.0604-2.61644.0574-2.25167.12983-6.84109.16093-10.25796l.0273-2.99008.0957 4.40217c.0528 2.42117.10441 4.46035.11497 4.53142.018.12129.0331.13092.23181.15453.11677.014.22055.0331.23047.0435.0522.0522-.76504 7.05555-.88204 7.55718-.0557.23773-.0585.17947-.0389-.82398zM76.865302 271.71411c.0267-.63997.11688-1.54105.24729-2.47101.1249-.89022.18088-1.1511.2426-1.12998.0888.0301.0481 1.09721-.0718 1.90773-.13991.94377-.29689 1.7877-.37678 2.02548-.0614.18146-.0623.17195-.0418-.33222z"/><path style="fill:#fcef3c;fill-opacity:1;stroke:#fcef3c;stroke-width:.0103825;stroke-opacity:1" d="M85.173012 258.5445c.009-.0651.098-.45584.12061-.512.0134-.0331.0134 0 0 .0699-.0134.0736-.009.10669.0255.12145.0481.0214.0831-.018.21905-.2534.0389-.0671.0727-.12021.0755-.11757 0 0-.29957.58998-.35299.68111-.0296.0499-.0605.0831-.0784.0831-.0121 0-.014-.0124-.009-.0717z"/><path style="fill:#fcef3c;fill-opacity:1;stroke:#fcef3c;stroke-width:.00519125;stroke-opacity:1" d="M85.065522 250.02215c0-.0301.0595-.27822.14821-.62269.0331-.12704.0604-.23302.0614-.23535v.0558c-.00018.0558 0 .0604.0121.0727.029.0314.0661.021.0974-.0272.0499-.0755.19978-.43677.44847-1.08277.0151-.0395.0284-.0699.029-.0669 0 .009-.25553.67507-.40491 1.04489-.14426.35688-.25426.6138-.32062.7488-.0319.0651-.0652.12331-.0708.12331v-.0109z"/><path style="fill:#fcef3c;fill-opacity:1;stroke:#fcef3c;stroke-width:.00734155;stroke-opacity:1" d="M84.319972 241.90117c-.0377-.0377-.0377-.0812 0-.26941.0117-.0568.0302-.15964.0406-.22914.0117-.0699.0215-.12502.0238-.12363 0 0 0 .0545-.009.11866-.0192.1782-.009.22322.047.22322.0284 0 .047-.0163.0671-.0575.009-.021.0191-.036.0209-.0342 0 0-.0482.17177-.0888.2857-.0255.0717-.0342.0888-.051.0972-.0267.014-.0255.014-.0499-.0109z"/><path style="fill:#fcef3c;fill-opacity:1;stroke:#fcef3c;stroke-width:.0207651;stroke-opacity:1" d="M90.879712 242.95673c0-.0407 1.15076-2.8656 1.79003-4.39405.67019-1.60243 1.86828-4.37057 2.51892-5.81949l.20281-.45166h.14248c.0783 0 .14252 0 .14252.009 0 0-.17392.38037-.38652.83564-2.08478 4.46482-3.62791 7.99909-4.09646 9.3823-.0793.23349-.14908.41118-.15552.39453-.0168-.0435-.067-.0365-.11591.0155-.0238.0244-.0424.0388-.0424.029z"/><path style="fill:#fcef3c;fill-opacity:1;stroke:#fcef3c;stroke-width:.0415303;stroke-opacity:1" d="M95.448092 232.22638c0-.0191.20344-.48125.45224-1.02778 3.57889-7.86486 7.701408-15.80885 11.776578-22.69333 1.56077-2.63691 1.52045-2.57502 1.67661-2.57502h.13998l-.0802.13512c-4.5588 7.6722-8.28365 14.74256-13.073048 24.81425-.63457 1.33446-.66062 1.38092-.77438 1.38092-.0652 0-.11775-.0155-.11775-.0342z"/><path style="fill:#fcef3c;fill-opacity:1;stroke:#fcef3c;stroke-width:.0207651;stroke-opacity:1" d="M91.059902 229.2001c-.0151-.0755-.0394-.0812-.0971-.0238-.0226.0227-.0418.0318-.0418.0214 0-.0272.18673-.6221.45004-1.43378.65204-2.01023 1.20313-3.42167 2.69574-6.90438.5812-1.356 1.88586-4.33668 1.91173-4.36772h.0377c.0261.009.0186.0365-.0418.17317-1.80633 4.10881-3.92916 9.53852-4.80088 12.27973-.0868.27329-.10337.3099-.1144.2545zM94.743842 226.89789c0-.0545-.0652-.0641-.10604-.0155-.014.0168-.029.0284-.0331.0244-.0121-.0124 2.75491-5.5365 3.22775-6.4446.68168-1.30894 1.29491-2.46074 1.30483-2.45082.009.009-.20733.428-.47145.94059-1.11212 2.15833-2.74633 5.48747-3.86181 7.8673-.0394.0849-.0585.10995-.0605.0784zM96.735802 236.22085c-.00018-.014.0319-.0915.0727-.17077.0394-.0794.0727-.16899.0727-.19894 0-.0481-.009-.0528-.0522-.0418-.0284.009-.0522.009-.0522 0s.23227-.4345.51612-.95026c.80495-1.46268 1.88214-3.45399 2.63923-4.87907.0718-.13481.134928-.24034.140788-.23455.009.009-.297878.60661-.674778 1.33528-.61276 1.18474-1.67794 3.2513-2.4007 4.65748-.14381.27996-.26162.49692-.2618.48229z"/><path style="fill:#fcef3c;fill-opacity:1;stroke:#fcef3c;stroke-width:.0415303;stroke-opacity:1" d="M109.66765 205.19316c2.99066-4.88522 6.449-10.03352 9.79881-14.58744 1.36724-1.85865 3.10065-4.12552 3.13127-4.09494.0109.0109-.0441.11073-.12362.22026-.0794.10964-.73215 1.00289-1.45021 1.98505-4.48791 6.13859-8.13861 11.57689-11.28428 16.80937-.2053.34156-.22688.36337-.35815.36337h-.13975z"/><path style="fill:#fcef3c;fill-opacity:1;stroke:#fcef3c;stroke-width:.0110399;stroke-opacity:1" d="M96.036952 216.48981c-.009-.009-.0226-.018-.0331-.0197-.022 0 0-.0435.56438-1.30075 1.57748-3.48579 3.03249-6.55321 5.010298-10.56247l.24643-.49942h.0423c.0238 0 .0423 0 .0423.009 0 0-.23663.47888-.52581 1.05713-1.731098 3.46176-3.228798 6.61577-4.645938 9.78419-.21162.47319-.62175 1.39933-.67356 1.52137-.0116.0267-.0151.0284-.0267.014z"/><path style="fill:#fcef3c;fill-opacity:1;stroke:#fcef3c;stroke-width:.0156128;stroke-opacity:1" d="M102.2863 203.19958c2.52409-5.04887 5.83027-11.21077 8.53204-15.90166l.0831-.14443h.12994c.12995 0 .13001 0 .1115.0348-.0104.0191-.164.28456-.34168.58946-2.8671 4.91805-5.7374 10.16503-8.26334 15.10542-.21957.42939-.44709.87728-.50562.99528-.0984.19856-.10969.21469-.14967.21469-.0424 0-.036-.014.40364-.89382z"/><path style="fill:#fcef3c;fill-opacity:1;stroke:#fcef3c;stroke-width:.0624515;stroke-opacity:1" d="M111.07005 186.91146c.068-.11151.48189-.8212.92056-1.5769 6.82625-11.75806 14.15231-22.3559 20.44172-29.57069 2.20168-2.5256 5.2333-5.5937 7.1756-7.26173.96807-.83129 1.12307-.92527 1.58408-.95944l.39777-.029-.5334.28437c-.93291.49738-1.76866 1.2286-4.27802 3.74323-2.34049 2.34531-3.00772 3.05907-4.64825 4.97248-5.58965 6.51961-12.5887 16.59826-19.2911 27.77915-.71422 1.19154-1.38064 2.31381-1.48077 2.49404-.1166.20971-.22351.32793-.29666.32793-.10918 0-.10878-.009.009-.20291zM142.49533 176.82428c0-.0905 6.11289-6.22515 7.38628-7.41192 2.20544-2.05543.2332-.0435-5.99677 6.11632-.76421.75563-1.38951 1.33859-1.38951 1.2956z"/><path style="fill:#fcef3c;fill-opacity:1;stroke:#fcef3c;stroke-width:.124903;stroke-opacity:1" d="M161.14216 155.9307c.78969-.89938.81533-1.78132.0803-2.74464-.24197-.31674-.40445-.57604-.36106-.57604.10064 0 2.23218 1.74124 2.27667 1.85986.0342.0907-2.14731 1.88731-2.29118 1.88731-.0435 0 .0896-.19195.29568-.42649z"/><path style="fill:#fcef3c;fill-opacity:1;stroke:#fcef3c;stroke-width:.0624515;stroke-opacity:1" d="M160.63527 152.57522c-.23465-.26117-.87583-.7169-1.55021-1.10203-2.28955-1.30692-6.63783-2.67323-11.46875-3.60389-.89563-.17252-.71323-.20831.32572-.0641 1.07348.14925 2.0911.36646 4.07709.86987 4.72569 1.19802 6.0145 1.72209 8.15659 3.31667.5261.39164.65424.51647.62228.60644-.0377.10592-.0481.10437-.16272-.0238z"/><path style="fill:#fcef3c;fill-opacity:1;stroke:#fcef3c;stroke-width:.0312257;stroke-opacity:1" d="M153.96954 162.05763c.0273-.0441 1.56013-1.32199 2.71783-2.26558 2.36972-1.93123 3.14486-2.58692 3.71974-3.14626.29667-.2886.3498-.32856.36403-.27427.0109.0394.0424.0641.084.0641.0464 0-.13729.16533-.58254.52407-.35775.28825-1.19838.96557-1.86816 1.50519-1.4574 1.17401-2.67062 2.16547-3.6764 3.00436-.68888.57453-.80612.66543-.75883.58897zM150.78791 168.62382c-.0163-.0424.009-.0822.084-.15112.47946-.42305.74573-.64634.7571-.63491.009.009-.17369.20036-.40254.42853-.34731.34659-.4197.40559-.43838.35756z"/><path style="fill:#fcef3c;fill-opacity:1;stroke:#fcef3c;stroke-width:.02208;stroke-opacity:1" d="M164.29775 168.02324c.009-.15785.0244-.56026.0424-.89422.10002-1.89063.14832-3.68743.14909-5.531 0-2.57553-.084-3.53062-.32642-3.68992-.0935-.0614-.23204-.0641-.34324-.009-.45162.22785-2.46851 1.80319-6.14405 4.79878-.92091.75059-1.67916 1.35994-1.68497 1.35419-.0155-.0155 1.32983-1.11727 4.81672-3.94529 1.12934-.91592 2.37007-1.92251 2.75717-2.23658.38698-.31413.71086-.56293.71949-.55283.0163.0191.13807.91952.17735 1.30993.0879.87067.12316 2.4561.0905 4.05172-.0244 1.18487-.0651 2.37124-.11275 3.26778-.0418.78053-.11136 1.91973-.13155 2.14168l-.0197.22097z"/><path style="fill:#fcef3c;fill-opacity:1;stroke:#fcef3c;stroke-width:.0441598;stroke-opacity:1" d="M119.33019 270.12475c0-.018 1.39283-3.437 2.25567-5.5368.46142-1.12273.65274-1.4759.29023-.53561-.35717.92632-.6029 1.67946-.6029 1.84763 0 .19533.10528.31261.28048.31261.24103 0 .73128-.57993 1.74658-2.06655.25268-.36993.46889-.66318.48032-.65169.0227.0227-.19271.35892-1.71391 2.67415-1.02667 1.56245-1.97346 2.96509-2.43667 3.61005-.23564.32816-.2998.40218-.2998.34621zM46.116472 260.16275c0-.0365-.0935-.64258-.20211-1.34699-.2064-1.33221-.25426-1.82101-.10367-1.0598.0482.24288.11642.48629.15182.54095.0708.1098.27352.13542.36274.0464.0671-.0671.0689-.12082-.0377.84498-.0793.71794-.15976 1.17529-.17108.9744z"/><path style="fill:#fcef3c;fill-opacity:1;stroke:#fcef3c;stroke-width:.0883196;stroke-opacity:1" d="M76.704322 241.94677c.0313-1.23865.0557-6.20665.0557-11.04 0-4.83331.0255-8.37043.0557-7.86034.35653 5.92087.31395 14.91479-.0958 20.22506-.0435.5675-.0499.0528-.0162-1.32472zM59.493652 177.83644c0-.15558.59924-1.31231.71776-1.38564.14352-.0887.31221.16812.47226.71887.17594.60499.17606.60453-.1151.38924-.30612-.2263-.64461-.16717-.89968.15716-.0964.12238-.17525.17664-.17525.12036zM55.258492 165.2301c-.0121-.30165.71196-1.6229.88993-1.6229.0907 0 .51931.89586.51873 1.08445-.00017.0595-.0793-.0221-.1753-.17919-.0963-.1578-.22642-.28704-.28924-.28704-.2176 0-.51038.27891-.72473.69045-.1184.22744-.21725.36876-.21939.31423zM58.257102 173.3537c0-.0314.11927-.42939.26505-.88425.14572-.45493.26766-.99565.27102-1.20146l.009-.37446.12936.42081c.12914.42016.12878.42186-.23964 1.25854-.33791.76742-.43195.93756-.43195.78082zM58.564962 161.62134c-.23268-.60922-.40509-1.12569-.38304-1.14779.0215-.0214.18813-.10204.369-.17769l.32886-.13729-.0671.24509c-.0916.33304-.0569.82746.11266 1.59901.0784.35595.12454.66508.10274.68689-.0215.0214-.22996-.45898-.46275-1.06814zM77.084172 166.09527c-.0557-.18673-.21887-.51385-.3621-.72717-.14322-.21329-.24672-.40142-.23001-.41824.0168-.0168.16921.0604.33878.17165.27775.18209.31401.25338.36709.72205.0698.62025.0267.71806-.11376.25171z"/><path style="fill:#fcef3c;fill-opacity:1;stroke:#fcef3c;stroke-width:.0156128;stroke-opacity:1" d="M76.439562 247.59858c0-.0604.009-.22513.0134-.36685.0342-.57645.12292-2.73037.15128-3.65337l.0121-.38252.0163.16394.0163.16388.0511-.00006c.0481-.00024.0511 0 .0511.0558 0 .16458-.21127 3.0257-.28813 3.90188-.0151.17671-.0197.2024-.0215.1171zM80.514142 248.14121c0-.0197-.0121-.0348-.0255-.0348-.0134 0-.0238-.009-.0238-.0163 0-.009.0319-.21457.0708-.45677.27909-1.73015.75251-4.83469 1.05388-6.91191.0528-.3649.099-.66649.10244-.67009.0313-.0331.0348-.0595-.7354 5.15875-.44262 2.99872-.44053 2.98486-.44325 2.93137zM78.711652 253.95327c-.0273-.0208-.0255-.0498.0499-.82253.0435-.44081.084-.86117.0906-.93414.009-.0727.014-.12099.0168-.10654 0 .0197-.10941 1.6989-.12536 1.85018 0 .0301-.009.0318-.0319.014z"/><path style="fill:#fcef3c;fill-opacity:1;stroke:#fcef3c;stroke-width:.00551998;stroke-opacity:1" d="M74.425902 266.34578c-.0238-.0944-.0226-.58887 0-1.19849l.009-.18221v.16011c0 .0877-.009.32405-.009.52441-.009.40282 0 .4983.0162.51745.0151.0155.036.009.0452-.0109 0-.009.014-.0424.0226-.0764.009-.0331.0162-.0545.0162-.0481 0 .0191-.036.20032-.051.25531-.0226.0822-.0365.0997-.047.0586z"/><path style="fill:#fcef3c;fill-opacity:1;stroke:#fcef3c;stroke-width:.353276;stroke-opacity:1" d="M101.87739 63.14084c-2.703938-4.46138-3.966648-9.87219-3.960618-16.97105v-3.9488l1.45322 2.29627c.799268 1.26298 2.389568 3.59569 3.534058 5.18393 3.59003 4.98179 5.2149 9.36887 5.24419 14.15805l.009 1.14818h-5.15002zM109.96025 55.63619c-.24341-.82433-1.3188-2.96755-2.38973-4.76275-1.68132-2.81818-1.91614-3.42961-1.7196-4.47743.12519-.66751 1.54812-4.66201 3.16208-8.87668 1.61391-4.21467 3.01613-7.90156 3.11602-8.19302.20867-.60851.0585-1.15658 2.07979 7.59547.83135 3.59985 1.53913 7.66194 1.63137 9.36188.16063 2.9633.14769 3.02146-.98252 4.41597-.62988.77722-1.88992 2.54315-2.8001 3.92425l-1.65469 2.51114zM113.70464 65.45231c-1.72395-.10763-2.0234-.2233-1.88556-.72804.0897-.32998.35937-1.47447.59831-2.54306.92301-4.12781 2.41416-6.49554 7.9317-12.59426 1.55578-1.71967 3.18024-3.60362 3.60991-4.18654.42969-.58292.78623-.84171.79243-.57517.0255 1.11778-1.13486 8.14421-1.64146 9.93715-1.41 4.98991-5.048 11.0148-6.57251 10.88478-.4309-.0368-1.70568-.12443-2.83282-.19486z"/><path style="fill:#fcef3c;fill-opacity:1;stroke-width:.0883196" d="M102.18582 139.48478c-1.55463-2.3413-1.99725-2.81147-4.447888-4.72535-3.65668-2.85595-4.19682-3.33577-4.82675-4.28757-.17838-.26955-.73708-.98742-1.24166-1.59533-2.50163-3.01408-3.63608-4.84742-4.58478-7.40898-1.61298-4.35549-1.97003-5.2991-2.19685-5.8045-.14085-.31405-.25623-.58625-.25623-.60494 0-.0186.33942.18727.75419.45768 1.14263.74477 3.48416 1.83516 6.62054 3.08295 3.75524 1.494 4.71734 1.96194 5.34333 2.59902 3.008308 3.06141 4.987738 7.4271 5.608338 12.36958.16115 1.28329.27381 6.19786.15587 6.80059l-.0774.39743zM106.44744 140.74053c0-.62012.28709-3.23083.52174-4.7609.74277-4.84223 2.20155-8.48335 4.57568-11.42089.60284-.74588 2.29344-2.41979 3.02344-2.99371.90734-.71324 2.22876-1.28567 5.96532-2.58415 1.83741-.63848 2.15786-.72251 3.35619-.87993.7286-.0957 1.73908-.23189 2.24546-.3026.50631-.0707.95195-.1286.99023-.1286.085 0-.25315.79576-1.52236 3.58832-2.04336 4.49546-3.43811 6.66367-5.81791 9.04381-1.66229 1.66245-2.89315 2.58252-6.03598 4.51151-1.05967.65051-2.26791 1.4382-2.68477 1.75047-1.13596.85084-2.29889 2.00733-3.38316 3.36471-.53416.66875-1.0305 1.23863-1.10295 1.26648-.10732.0418-.13163-.0435-.13093-.45457z"/></svg>